<?xml version="1.0" standalone="no"?>
<!DOCTYPE svg PUBLIC "-//W3C//DTD SVG 20010904//EN"
 "http://www.w3.org/TR/2001/REC-SVG-20010904/DTD/svg10.dtd">
<svg version="1.0" xmlns="http://www.w3.org/2000/svg"
 width="500.000000pt" height="500.000000pt" viewBox="0 0 500.000000 500.000000"
 preserveAspectRatio="xMidYMid meet">
<metadata>
Created by potrace 1.14, written by Peter Selinger 2001-2017
</metadata>
<g transform="translate(0.000000,500.000000) scale(0.100000,-0.100000)"
fill="#000000" stroke="none">
<path d="M0 2500 l0 -2500 2500 0 2500 0 0 2500 0 2500 -2500 0 -2500 0 0
-2500z m3429 1174 c406 -76 755 -378 879 -761 60 -182 75 -423 38 -593 -88
-407 -375 -726 -773 -859 -202 -68 -505 -68 -706 0 -208 71 -393 194 -517 344
l-53 64 -218 3 c-245 3 -255 6 -292 81 -17 33 -17 42 -5 79 9 28 24 50 47 65
33 23 39 23 328 23 321 0 343 3 378 57 22 33 21 104 -1 138 -36 55 -34 55
-536 55 -447 0 -464 1 -496 20 -33 21 -62 71 -62 110 0 34 29 79 63 100 30 19
53 20 430 20 430 0 435 1 471 54 9 14 16 45 16 70 0 55 -35 101 -88 116 -21 5
-148 10 -289 10 -139 0 -263 4 -277 10 -37 14 -66 67 -66 118 0 36 6 50 33 77
44 44 81 47 497 41 309 -4 339 -3 375 13 67 31 92 98 60 165 -24 51 -60 66
-160 66 -48 0 -85 4 -83 9 5 13 95 88 156 130 116 79 237 130 387 166 125 30
332 34 464 9z m-2278 -1069 c63 -33 86 -112 49 -172 -36 -59 -54 -63 -308 -63
-222 0 -230 1 -263 23 -79 53 -79 151 0 204 33 22 41 23 263 23 187 0 234 -3
259 -15z m409 -501 c84 -50 76 -182 -15 -220 -48 -20 -282 -20 -330 0 -90 38
-100 167 -16 219 38 24 320 24 361 1z"/>
<path d="M3120 3311 l0 -99 -67 -21 c-288 -87 -388 -401 -189 -589 68 -64 119
-93 260 -146 195 -74 240 -111 241 -193 0 -42 -26 -82 -69 -105 -70 -38 -250
-26 -390 27 -50 19 -92 32 -94 30 -3 -3 -61 -220 -62 -232 0 -2 17 -11 39 -22
50 -26 177 -59 257 -67 l64 -7 0 -98 0 -99 105 0 105 0 0 109 0 108 38 7 c61
9 182 75 231 125 24 25 56 71 70 101 23 48 26 68 26 160 0 110 -10 144 -69
223 -35 48 -144 112 -281 167 -199 79 -245 114 -245 184 0 52 34 89 100 106
67 18 197 5 298 -29 l83 -29 8 21 c4 12 18 64 31 116 19 78 21 95 9 102 -28
18 -145 49 -214 56 l-70 8 -3 93 -3 92 -104 0 -105 0 0 -99z"/>
</g>
</svg>
