<?xml version="1.0" standalone="no"?>
<!DOCTYPE svg PUBLIC "-//W3C//DTD SVG 20010904//EN"
 "http://www.w3.org/TR/2001/REC-SVG-20010904/DTD/svg10.dtd">
<svg version="1.0" xmlns="http://www.w3.org/2000/svg"
 width="1563.000000pt" height="1563.000000pt" viewBox="0 0 1563.000000 1563.000000"
 preserveAspectRatio="xMidYMid meet">
<metadata>
Created by potrace 1.14, written by Peter Selinger 2001-2017
</metadata>
<g transform="translate(0.000000,1563.000000) scale(0.100000,-0.100000)"
fill="#000000" stroke="none">
<path d="M9197 12244 c-1 -1 -40 -4 -87 -8 -47 -3 -94 -7 -105 -10 -11 -2 -41
-6 -66 -10 -409 -59 -858 -248 -1191 -499 -86 -65 -260 -218 -265 -232 -2 -6
68 -10 195 -10 187 -1 200 -2 246 -25 143 -69 206 -235 143 -373 -30 -66 -78
-115 -144 -148 l-48 -24 -917 -2 -918 -2 -55 -25 c-230 -105 -226 -426 5 -526
l55 -24 615 -1 615 -1 57 -28 c229 -109 218 -437 -17 -525 -53 -20 -80 -21
-967 -23 l-913 -3 -49 -24 c-220 -109 -219 -413 3 -518 l56 -27 1060 -1 c1146
-1 1100 1 1178 -55 151 -110 163 -321 25 -445 -88 -79 -60 -76 -826 -78 l-677
-2 -50 -27 c-205 -108 -218 -381 -25 -502 68 -42 95 -45 570 -45 250 0 465 0
477 0 15 -1 37 -21 70 -63 147 -193 374 -406 598 -560 83 -57 268 -167 288
-171 7 -1 14 -5 17 -8 6 -8 127 -64 195 -91 193 -77 436 -143 600 -163 28 -4
61 -8 75 -10 86 -13 156 -17 325 -17 105 0 215 3 245 6 104 13 135 17 160 21
14 3 41 7 60 10 94 15 250 54 380 95 179 57 437 181 605 291 297 195 554 445
749 728 206 298 359 663 421 999 3 15 7 36 9 47 6 30 16 110 26 200 9 79 6
477 -3 525 -3 14 -8 50 -11 80 -8 74 -24 163 -41 230 -8 30 -16 66 -19 80 -20
105 -127 394 -196 530 -255 505 -678 926 -1188 1181 -297 149 -591 235 -937
275 -53 6 -402 13 -408 8z m388 -665 c6 -4 10 -86 9 -213 -1 -144 2 -206 10
-207 21 -1 81 -7 144 -13 126 -13 353 -64 427 -96 11 -4 42 -16 69 -27 26 -10
50 -24 53 -30 3 -7 -12 -77 -32 -155 -20 -79 -38 -150 -40 -158 -2 -8 -13 -51
-25 -95 -12 -44 -23 -91 -26 -104 -8 -39 -12 -40 -57 -19 -23 12 -90 38 -148
59 -92 33 -144 46 -284 74 -76 15 -321 14 -395 -1 -157 -33 -246 -115 -255
-234 -8 -125 61 -207 260 -308 83 -42 121 -58 385 -162 252 -100 386 -175 508
-285 126 -115 217 -280 238 -431 3 -27 8 -58 10 -69 7 -30 6 -166 -1 -221 -16
-124 -77 -281 -151 -384 -44 -62 -153 -167 -222 -213 -123 -84 -316 -165 -433
-182 -24 -4 -47 -9 -51 -11 -5 -3 -8 -117 -8 -253 l0 -248 -235 0 c-147 0
-238 4 -242 10 -3 6 -6 109 -6 229 0 151 -3 221 -11 223 -6 2 -45 6 -86 9
-215 16 -473 79 -648 157 -88 40 -91 43 -82 82 5 18 25 95 45 172 20 77 40
156 45 175 6 29 32 128 46 177 2 9 21 4 61 -17 341 -171 771 -233 1013 -146
230 84 286 304 120 477 -60 64 -200 133 -448 222 -298 108 -506 222 -633 349
-85 85 -103 109 -149 203 -52 105 -70 178 -75 301 -9 215 50 393 181 554 57
70 59 72 151 143 108 82 306 170 461 202 l32 7 0 232 0 233 233 0 c127 0 237
-3 242 -8z"/>
<path d="M3376 9725 c-63 -26 -122 -81 -153 -144 -27 -54 -25 -193 4 -246 31
-58 92 -113 154 -138 54 -22 60 -22 579 -21 522 0 525 0 573 23 198 92 233
342 67 484 -78 67 -74 66 -648 67 l-517 0 -59 -25z"/>
<path d="M4720 8583 c-78 -27 -132 -73 -173 -148 -31 -58 -31 -192 1 -252 29
-55 82 -106 140 -135 46 -23 51 -23 392 -23 l345 0 51 27 c102 54 158 148 158
263 -1 112 -58 201 -162 252 l-57 28 -325 2 c-274 2 -332 0 -370 -14z"/>
<path d="M3570 6434 c-189 -39 -339 -137 -470 -306 -36 -47 -97 -180 -116
-253 -24 -96 -28 -257 -8 -354 60 -295 266 -507 574 -592 71 -20 302 -17 380
4 213 58 394 199 490 383 111 210 117 477 16 690 -109 230 -306 382 -554 430
-91 17 -222 16 -312 -2z m275 -350 c74 -19 127 -49 183 -105 44 -44 89 -125
98 -175 3 -16 7 -37 10 -47 7 -24 6 -122 -2 -172 -3 -22 -19 -68 -34 -102 -90
-199 -355 -285 -560 -183 -98 50 -183 157 -205 260 -32 147 6 313 93 412 93
104 267 152 417 112z"/>
<path d="M10955 6405 c-9 -22 -23 -53 -30 -70 -7 -16 -68 -169 -135 -340 -66
-170 -125 -319 -130 -330 -6 -11 -21 -51 -35 -90 -14 -38 -30 -79 -35 -90 -5
-11 -36 -87 -68 -170 -32 -82 -63 -159 -67 -170 -5 -11 -25 -63 -45 -115 l-37
-95 186 -3 c102 -1 190 -1 196 2 5 2 28 51 50 110 l40 106 256 0 257 0 39
-107 40 -108 206 -3 c114 -1 207 -1 207 1 0 5 -115 287 -135 332 -7 17 -70
170 -140 340 -210 512 -245 599 -261 632 -7 17 -14 35 -14 40 0 4 -6 19 -13
33 -7 14 -23 50 -35 80 l-22 55 -130 0 -129 0 -16 -40z m209 -738 c31 -87 56
-162 56 -167 0 -6 -51 -10 -120 -10 -66 0 -120 2 -120 3 0 2 21 62 46 133 25
71 50 141 54 156 9 30 20 51 25 46 2 -2 28 -74 59 -161z"/>
<path d="M13565 6439 c-180 -34 -327 -135 -395 -272 -37 -77 -41 -92 -45 -193
-11 -245 127 -401 400 -450 11 -1 34 -5 50 -8 17 -3 59 -8 95 -12 84 -7 145
-21 181 -39 84 -44 56 -157 -47 -184 -160 -42 -303 12 -321 121 l-6 38 -185 0
-184 0 5 -57 c23 -215 149 -363 372 -438 210 -71 458 -22 639 125 42 35 107
135 126 197 58 187 2 362 -153 480 -63 49 -271 107 -422 118 -143 10 -210 74
-169 160 25 53 81 79 174 79 122 1 192 -48 199 -139 1 -7 67 -10 184 -10 l182
0 1 30 c1 48 -24 141 -52 197 -33 66 -125 158 -190 191 -96 49 -173 68 -284
72 -58 1 -127 -1 -155 -6z"/>
<path d="M4729 6428 c-1 -17 -1 -1435 0 -1470 l1 -28 180 0 180 0 0 255 0 255
29 0 c26 0 35 -10 84 -87 29 -49 88 -143 130 -211 43 -68 77 -127 77 -132 0
-4 3 -10 8 -12 4 -1 15 -16 24 -33 l17 -30 198 -3 199 -2 -4 37 c-3 28 -43 96
-158 266 -85 125 -154 232 -154 237 0 5 14 17 32 26 18 9 38 23 46 30 7 7 21
19 30 26 10 7 36 36 59 63 171 208 153 512 -41 697 -48 46 -159 102 -234 117
-79 16 -702 15 -703 -1z m651 -360 c104 -53 117 -194 24 -265 -36 -27 -41 -28
-176 -31 l-138 -4 0 161 0 161 123 0 c107 0 128 -3 167 -22z"/>
<path d="M6029 6403 c0 -21 0 -360 -1 -753 l0 -715 494 -3 493 -2 0 175 c0
149 -2 175 -15 176 -8 0 -141 1 -295 1 -154 0 -287 2 -295 4 -12 3 -15 25 -15
119 l0 115 25 1 c14 0 149 1 300 2 l275 2 3 177 2 176 -300 -1 c-165 -1 -301
0 -301 3 -1 3 -2 49 -3 103 -1 79 1 98 14 101 8 3 145 4 303 4 158 0 291 2
294 6 4 4 7 83 8 176 l0 170 -492 0 -493 0 -1 -37z"/>
<path d="M9265 5685 l0 -755 492 0 c271 0 493 3 494 8 1 10 1 248 0 302 l-1
45 -307 0 -308 0 -1 118 -1 117 26 1 c14 0 150 1 302 1 l276 0 0 179 0 178
-301 -1 -301 0 0 103 0 104 285 2 c157 1 295 2 308 2 22 1 22 1 22 176 l0 175
-493 0 -492 0 0 -755z"/>
<path d="M1370 5679 l0 -749 183 0 182 0 0 365 c0 201 2 365 5 365 3 0 53 -70
110 -155 l103 -155 102 2 102 2 104 154 104 154 3 -366 2 -366 183 2 182 3 0
745 0 745 -125 2 c-69 1 -134 0 -146 -2 -12 -3 -45 -40 -80 -92 -33 -49 -118
-173 -189 -278 -70 -104 -131 -194 -135 -198 -4 -4 -39 41 -80 100 -40 59
-129 190 -197 289 l-124 182 -144 0 -145 -1 0 -748z"/>
<path d="M7759 6417 c-4 -66 -2 -1471 2 -1479 7 -11 703 -5 759 6 302 64 527
308 566 616 55 423 -195 789 -587 856 -19 4 -193 8 -386 9 -264 3 -353 0 -354
-8z m751 -369 c113 -53 188 -155 216 -293 9 -44 6 -143 -6 -185 -32 -119 -106
-211 -209 -258 -52 -25 -68 -27 -223 -30 l-168 -4 1 402 0 402 167 -4 c154 -4
171 -6 222 -30z"/>
<path d="M11958 6425 c-2 -3 -1 -1465 1 -1487 1 -5 224 -8 496 -8 l495 0 0
175 c0 133 -3 175 -12 176 -7 0 -148 2 -313 2 l-300 2 -2 565 c-1 311 -2 568
-2 571 -1 6 -357 10 -363 4z"/>
<path d="M2152 4225 c-46 -90 -160 -300 -219 -405 -11 -19 -35 -61 -52 -93
l-33 -57 -19 24 c-10 13 -19 27 -19 30 0 3 -17 34 -38 68 -21 35 -52 88 -69
118 -63 114 -126 227 -151 270 -14 25 -36 67 -50 93 -13 26 -26 46 -28 44 -5
-4 -11 -60 -19 -157 -3 -41 -8 -91 -10 -110 -10 -81 -14 -118 -21 -180 -3 -36
-8 -72 -9 -81 -2 -9 -6 -40 -10 -70 -21 -172 -29 -190 -91 -208 -19 -5 15 -8
95 -8 110 0 120 1 92 13 -32 13 -53 49 -47 81 2 10 7 59 10 108 4 50 9 108 12
130 3 22 7 63 10 90 3 28 7 61 9 75 2 14 3 29 4 35 1 6 4 6 10 0 10 -10 111
-185 111 -192 0 -2 11 -20 23 -41 13 -20 50 -86 82 -147 32 -60 66 -122 75
-138 l17 -27 38 72 c152 293 264 495 266 478 0 -8 2 -24 4 -35 2 -11 7 -45 10
-75 3 -30 8 -68 10 -85 4 -27 12 -128 20 -231 4 -55 -13 -87 -54 -100 -27 -9
-3 -11 125 -11 147 -1 155 0 119 13 -22 7 -41 14 -41 14 -1 0 -7 12 -13 28
-10 27 -15 48 -25 130 -14 100 -16 120 -21 167 -4 28 -8 66 -10 85 -3 19 -7
64 -10 100 -3 36 -8 76 -10 90 -2 14 -7 63 -10 110 -4 47 -8 86 -9 87 -1 1
-25 -45 -54 -102z"/>
<path d="M4693 4282 c-31 -66 -148 -286 -189 -355 -19 -32 -34 -60 -34 -62 0
-3 -13 -26 -28 -52 -16 -27 -41 -70 -56 -96 l-28 -49 -35 59 c-20 32 -73 123
-118 203 -108 189 -115 201 -165 295 -23 44 -46 84 -50 88 -7 8 -15 -45 -25
-178 -3 -33 -7 -80 -10 -105 -2 -25 -7 -72 -10 -105 -3 -33 -8 -67 -10 -75 -2
-8 -7 -40 -10 -70 -3 -30 -8 -66 -10 -80 -2 -14 -7 -45 -10 -70 -8 -70 -23
-97 -61 -112 -32 -13 -26 -14 88 -15 105 0 118 1 89 11 -40 14 -59 38 -56 69
2 12 6 61 10 107 3 47 8 96 10 110 2 14 7 54 11 90 3 36 8 74 9 85 1 11 3 30
4 43 1 28 13 28 27 -1 6 -12 30 -56 54 -97 24 -41 87 -155 141 -254 l97 -178
25 48 c31 60 94 181 134 254 73 132 97 177 115 213 23 43 33 52 34 29 1 -9 4
-39 7 -67 16 -117 26 -227 32 -331 5 -90 -4 -107 -61 -123 -17 -4 37 -8 131
-8 119 0 152 2 130 10 -60 20 -74 50 -90 197 -6 51 -12 107 -21 170 -4 38 -13
119 -19 175 -2 28 -7 73 -10 100 -2 28 -7 77 -10 110 -3 32 -7 60 -8 61 -1 1
-12 -19 -24 -44z"/>
<path d="M8828 4325 c-2 -2 -15 -6 -30 -9 -98 -17 -167 -111 -153 -208 11 -72
49 -123 157 -209 129 -103 161 -140 172 -205 14 -77 -40 -148 -122 -157 -90
-11 -165 31 -204 113 l-24 50 0 -72 1 -73 57 -28 c180 -91 398 10 398 183 0
84 -41 150 -143 230 -151 118 -189 162 -192 222 -4 70 50 120 130 121 57 1
105 -29 132 -82 12 -24 23 -45 25 -46 2 -2 2 28 0 66 -4 69 -4 70 -39 84 -31
13 -156 28 -165 20z"/>
<path d="M10541 4314 c-203 -43 -332 -194 -333 -389 -1 -98 8 -141 42 -210 47
-96 113 -154 227 -197 44 -16 81 -21 163 -22 110 -1 142 3 225 28 l50 15 0 86
1 87 -22 -50 c-38 -86 -113 -126 -236 -124 -105 1 -189 39 -248 113 -63 80
-83 145 -84 274 0 99 2 116 26 167 56 121 139 177 274 186 133 8 203 -26 251
-121 l19 -38 0 79 c1 75 0 79 -25 89 -94 38 -228 49 -330 27z"/>
<path d="M2860 4303 c16 -6 37 -24 47 -39 16 -25 18 -56 17 -353 0 -365 -2
-379 -66 -398 -23 -6 43 -9 227 -9 l260 1 0 77 c0 43 -1 78 -2 78 -2 0 -9 -15
-16 -32 -24 -56 -51 -72 -127 -76 -87 -5 -138 11 -154 49 -18 42 -21 309 -4
310 56 4 156 -2 178 -11 14 -6 31 -23 37 -38 8 -21 10 -6 11 73 1 94 0 98 -13
67 -18 -41 -47 -52 -146 -52 l-80 0 4 155 c2 85 7 158 10 161 10 10 158 11
200 2 45 -10 62 -25 82 -70 14 -32 14 -32 15 42 l0 75 -254 0 c-204 0 -248 -2
-226 -12z"/>
<path d="M5373 4303 c61 -25 62 -30 62 -397 0 -369 -1 -373 -67 -393 -24 -7
21 -9 172 -8 226 2 250 7 309 66 44 43 61 80 65 140 8 114 -55 193 -169 215
l-40 7 37 16 c139 60 173 233 63 317 -54 41 -90 47 -284 49 -165 1 -180 0
-148 -12z m324 -51 c42 -29 67 -86 65 -144 -3 -103 -71 -165 -177 -164 l-40 1
1 150 c0 83 3 159 7 169 6 16 16 18 61 14 32 -3 65 -13 83 -26z m-5 -360 c52
-24 95 -68 107 -110 5 -17 9 -57 8 -89 -3 -98 -59 -153 -156 -153 -38 0 -56 6
-77 23 -26 23 -26 24 -30 183 l-3 161 54 2 c37 1 69 -4 97 -17z"/>
<path d="M6457 4303 c46 -18 55 -37 62 -125 10 -134 5 -558 -8 -604 -9 -34
-18 -45 -48 -56 -33 -14 -13 -15 220 -14 142 0 257 3 257 6 4 41 4 150 0 150
-4 0 -11 -15 -18 -34 -22 -61 -43 -71 -148 -71 -84 0 -96 2 -116 23 -22 21
-23 32 -26 177 l-3 155 23 1 c43 3 133 -1 156 -6 12 -3 31 -19 41 -35 l17 -29
0 95 c0 78 -3 92 -11 70 -19 -46 -42 -55 -138 -56 l-88 0 2 156 c1 116 5 157
15 161 24 9 159 10 194 1 49 -13 70 -31 85 -75 13 -37 13 -37 14 42 l1 80
-256 0 c-208 0 -251 -2 -227 -12z"/>
<path d="M7468 4306 c66 -19 67 -23 67 -386 0 -364 -3 -379 -61 -402 -32 -13
-22 -14 117 -15 142 0 150 1 117 14 -50 20 -59 48 -63 202 l-4 132 62 -3 c69
-3 69 -4 131 -113 55 -99 110 -173 139 -190 41 -25 112 -41 182 -43 l60 -1
-47 14 c-64 21 -125 87 -219 237 l-76 122 47 47 c96 96 97 251 2 334 -53 47
-111 59 -307 60 -131 1 -171 -2 -147 -9z m293 -40 c69 -12 120 -86 124 -176 5
-131 -64 -210 -185 -210 -19 0 -40 4 -46 8 -8 5 -11 59 -9 182 2 96 3 180 4
187 2 19 39 22 112 9z"/>
<path d="M11422 4312 c56 -15 80 -45 85 -107 5 -73 4 -590 -2 -620 -8 -39 -31
-63 -69 -73 -18 -5 81 -8 232 -8 l262 -1 -1 86 c-1 47 -4 75 -8 61 -19 -75
-68 -102 -177 -99 -74 2 -110 23 -120 69 -10 50 -6 575 5 617 11 40 38 67 76
75 11 2 -51 3 -138 3 -86 0 -152 -1 -145 -3z"/>
<path d="M12437 4308 c40 -10 62 -37 68 -84 3 -21 7 -140 9 -264 3 -124 9
-239 14 -255 31 -99 98 -173 180 -196 74 -22 208 -17 262 10 122 59 157 140
160 368 2 121 5 255 9 346 1 32 41 74 74 79 12 2 -37 3 -110 3 -118 0 -151 -2
-111 -9 23 -3 45 -20 58 -45 20 -39 23 -470 3 -556 -25 -111 -96 -165 -216
-165 -110 0 -181 60 -207 175 -16 71 -13 489 4 542 7 23 40 48 71 55 11 2 -51
4 -139 4 -93 0 -146 -4 -129 -8z"/>
<path d="M13720 4309 c0 -3 11 -11 24 -17 15 -7 27 -24 34 -51 12 -50 14 -603
2 -658 -9 -38 -40 -69 -75 -76 -11 -2 72 -3 185 -3 192 1 208 2 247 23 83 45
122 102 127 189 7 105 -61 190 -167 209 l-37 7 47 26 c85 44 120 109 110 199
-8 74 -55 119 -154 151 -34 11 -343 12 -343 1z m301 -43 c60 -25 90 -73 91
-144 3 -108 -69 -180 -177 -178 l-40 1 0 145 c0 196 -2 190 50 190 23 0 58 -6
76 -14z m35 -381 c75 -38 99 -80 99 -176 0 -63 -4 -83 -21 -106 -46 -63 -158
-85 -210 -40 -27 23 -27 24 -30 177 -2 84 -1 157 2 161 11 19 110 9 160 -16z"/>
</g>
</svg>
