<svg xmlns="http://www.w3.org/2000/svg" xmlns:xlink="http://www.w3.org/1999/xlink" width="500" zoomAndPan="magnify" viewBox="0 0 375 374.999991" height="500" preserveAspectRatio="xMidYMid meet" version="1.0"><defs><clipPath id="8905cc8f0e"><path d="M 0 2.34375 L 315 2.34375 L 315 317 L 0 317 Z M 0 2.34375 " clip-rule="nonzero"/></clipPath><clipPath id="2e236ffa8c"><path d="M 39 353 L 95 353 L 95 372.84375 L 39 372.84375 Z M 39 353 " clip-rule="nonzero"/></clipPath></defs><rect x="-37.5" width="450" fill="#ffffff" y="-37.499999" height="449.999989" fill-opacity="1"/><rect x="-37.5" width="450" fill="#ffffff" y="-37.499999" height="449.999989" fill-opacity="1"/><g clip-path="url(#8905cc8f0e)"><path fill="#dce3ef" d="M 314.433594 159.617188 C 314.433594 162.191406 314.371094 164.765625 314.242188 167.335938 C 314.117188 169.90625 313.929688 172.472656 313.675781 175.03125 C 313.421875 177.59375 313.109375 180.148438 312.730469 182.695312 C 312.355469 185.242188 311.914062 187.777344 311.414062 190.300781 C 310.910156 192.824219 310.347656 195.335938 309.722656 197.832031 C 309.097656 200.328125 308.410156 202.808594 307.664062 205.273438 C 306.917969 207.734375 306.109375 210.179688 305.242188 212.601562 C 304.378906 215.023438 303.453125 217.425781 302.46875 219.804688 C 301.484375 222.183594 300.441406 224.535156 299.339844 226.859375 C 298.242188 229.1875 297.085938 231.484375 295.871094 233.757812 C 294.660156 236.027344 293.390625 238.265625 292.070312 240.472656 C 290.746094 242.679688 289.371094 244.855469 287.941406 246.996094 C 286.511719 249.132812 285.03125 251.238281 283.5 253.304688 C 281.964844 255.371094 280.382812 257.402344 278.75 259.390625 C 277.121094 261.378906 275.4375 263.328125 273.710938 265.234375 C 271.984375 267.144531 270.210938 269.007812 268.390625 270.828125 C 266.574219 272.648438 264.710938 274.421875 262.804688 276.148438 C 260.898438 277.878906 258.949219 279.558594 256.960938 281.191406 C 254.972656 282.824219 252.945312 284.40625 250.878906 285.941406 C 248.8125 287.472656 246.710938 288.957031 244.570312 290.386719 C 242.433594 291.816406 240.257812 293.191406 238.050781 294.515625 C 235.847656 295.839844 233.609375 297.105469 231.339844 298.320312 C 229.070312 299.535156 226.773438 300.691406 224.449219 301.792969 C 222.121094 302.890625 219.769531 303.933594 217.394531 304.917969 C 215.015625 305.90625 212.617188 306.832031 210.195312 307.699219 C 207.773438 308.566406 205.332031 309.371094 202.871094 310.121094 C 200.40625 310.867188 197.929688 311.550781 195.433594 312.179688 C 192.9375 312.804688 190.429688 313.367188 187.90625 313.871094 C 185.382812 314.371094 182.847656 314.8125 180.304688 315.1875 C 177.757812 315.566406 175.207031 315.882812 172.644531 316.132812 C 170.085938 316.386719 167.519531 316.574219 164.953125 316.703125 C 162.382812 316.828125 159.8125 316.890625 157.238281 316.890625 C 154.664062 316.890625 152.09375 316.828125 149.523438 316.703125 C 146.957031 316.574219 144.390625 316.386719 141.832031 316.132812 C 139.269531 315.882812 136.71875 315.566406 134.171875 315.1875 C 131.628906 314.8125 129.09375 314.371094 126.570312 313.871094 C 124.046875 313.367188 121.539062 312.804688 119.042969 312.179688 C 116.546875 311.550781 114.070312 310.867188 111.605469 310.121094 C 109.144531 309.371094 106.703125 308.566406 104.28125 307.699219 C 101.859375 306.832031 99.460938 305.90625 97.082031 304.917969 C 94.707031 303.933594 92.355469 302.890625 90.027344 301.792969 C 87.703125 300.691406 85.40625 299.535156 83.136719 298.320312 C 80.867188 297.105469 78.632812 295.839844 76.425781 294.515625 C 74.21875 293.191406 72.046875 291.816406 69.90625 290.386719 C 67.765625 288.957031 65.664062 287.472656 63.597656 285.941406 C 61.53125 284.40625 59.503906 282.824219 57.515625 281.191406 C 55.527344 279.558594 53.578125 277.878906 51.671875 276.148438 C 49.765625 274.421875 47.90625 272.648438 46.085938 270.828125 C 44.265625 269.007812 42.492188 267.144531 40.765625 265.234375 C 39.039062 263.328125 37.359375 261.378906 35.726562 259.390625 C 34.09375 257.402344 32.511719 255.371094 30.980469 253.304688 C 29.445312 251.238281 27.964844 249.132812 26.535156 246.996094 C 25.105469 244.855469 23.730469 242.679688 22.410156 240.472656 C 21.085938 238.265625 19.816406 236.027344 18.605469 233.757812 C 17.394531 231.484375 16.238281 229.1875 15.136719 226.859375 C 14.035156 224.535156 12.996094 222.183594 12.011719 219.804688 C 11.027344 217.425781 10.101562 215.023438 9.234375 212.601562 C 8.367188 210.179688 7.558594 207.734375 6.8125 205.273438 C 6.066406 202.808594 5.378906 200.328125 4.753906 197.832031 C 4.128906 195.335938 3.566406 192.824219 3.066406 190.300781 C 2.5625 187.777344 2.125 185.242188 1.746094 182.695312 C 1.367188 180.148438 1.054688 177.59375 0.800781 175.03125 C 0.550781 172.472656 0.359375 169.90625 0.234375 167.335938 C 0.105469 164.765625 0.0429688 162.191406 0.0429688 159.617188 C 0.0429688 157.042969 0.105469 154.472656 0.234375 151.902344 C 0.359375 149.328125 0.550781 146.761719 0.800781 144.203125 C 1.054688 141.640625 1.367188 139.085938 1.746094 136.539062 C 2.125 133.996094 2.5625 131.460938 3.066406 128.933594 C 3.566406 126.410156 4.128906 123.898438 4.753906 121.402344 C 5.378906 118.90625 6.066406 116.425781 6.8125 113.964844 C 7.558594 111.5 8.367188 109.058594 9.234375 106.632812 C 10.101562 104.210938 11.027344 101.808594 12.011719 99.429688 C 12.996094 97.054688 14.035156 94.699219 15.136719 92.375 C 16.238281 90.046875 17.394531 87.75 18.605469 85.480469 C 19.816406 83.210938 21.085938 80.96875 22.410156 78.761719 C 23.730469 76.554688 25.105469 74.382812 26.535156 72.242188 C 27.964844 70.101562 29.445312 67.996094 30.980469 65.929688 C 32.511719 63.863281 34.09375 61.832031 35.726562 59.84375 C 37.359375 57.855469 39.039062 55.90625 40.765625 54 C 42.492188 52.09375 44.265625 50.226562 46.085938 48.40625 C 47.90625 46.589844 49.765625 44.8125 51.671875 43.085938 C 53.578125 41.355469 55.527344 39.675781 57.515625 38.042969 C 59.503906 36.410156 61.53125 34.828125 63.597656 33.292969 C 65.664062 31.761719 67.765625 30.277344 69.90625 28.847656 C 72.046875 27.417969 74.21875 26.042969 76.425781 24.71875 C 78.632812 23.394531 80.867188 22.128906 83.136719 20.914062 C 85.40625 19.699219 87.703125 18.542969 90.027344 17.445312 C 92.355469 16.34375 94.707031 15.300781 97.082031 14.316406 C 99.460938 13.332031 101.859375 12.40625 104.28125 11.539062 C 106.703125 10.671875 109.144531 9.863281 111.605469 9.117188 C 114.070312 8.367188 116.546875 7.683594 119.042969 7.058594 C 121.539062 6.433594 124.046875 5.867188 126.570312 5.367188 C 129.09375 4.863281 131.628906 4.421875 134.171875 4.046875 C 136.71875 3.667969 139.269531 3.351562 141.832031 3.101562 C 144.390625 2.847656 146.957031 2.660156 149.523438 2.535156 C 152.09375 2.40625 154.664062 2.34375 157.238281 2.34375 C 159.8125 2.34375 162.382812 2.40625 164.953125 2.535156 C 167.519531 2.660156 170.085938 2.847656 172.644531 3.101562 C 175.207031 3.351562 177.757812 3.667969 180.304688 4.046875 C 182.847656 4.421875 185.382812 4.863281 187.90625 5.367188 C 190.429688 5.867188 192.9375 6.433594 195.433594 7.058594 C 197.929688 7.683594 200.40625 8.367188 202.871094 9.117188 C 205.332031 9.863281 207.773438 10.671875 210.195312 11.539062 C 212.617188 12.40625 215.015625 13.332031 217.394531 14.316406 C 219.769531 15.300781 222.121094 16.34375 224.449219 17.445312 C 226.773438 18.542969 229.070312 19.699219 231.339844 20.914062 C 233.609375 22.128906 235.847656 23.394531 238.050781 24.71875 C 240.257812 26.042969 242.433594 27.417969 244.570312 28.847656 C 246.710938 30.277344 248.8125 31.761719 250.878906 33.292969 C 252.945312 34.828125 254.972656 36.410156 256.960938 38.042969 C 258.949219 39.675781 260.898438 41.355469 262.804688 43.085938 C 264.710938 44.8125 266.574219 46.589844 268.390625 48.40625 C 270.210938 50.226562 271.984375 52.09375 273.710938 54 C 275.4375 55.90625 277.121094 57.855469 278.75 59.84375 C 280.382812 61.832031 281.964844 63.863281 283.496094 65.929688 C 285.03125 67.996094 286.511719 70.101562 287.941406 72.242188 C 289.371094 74.382812 290.746094 76.554688 292.070312 78.761719 C 293.390625 80.96875 294.660156 83.210938 295.871094 85.480469 C 297.085938 87.75 298.242188 90.046875 299.339844 92.375 C 300.441406 94.699219 301.484375 97.054688 302.46875 99.429688 C 303.453125 101.808594 304.378906 104.210938 305.242188 106.632812 C 306.109375 109.058594 306.917969 111.5 307.664062 113.964844 C 308.410156 116.425781 309.097656 118.90625 309.722656 121.402344 C 310.347656 123.898438 310.910156 126.410156 311.414062 128.933594 C 311.914062 131.460938 312.355469 133.996094 312.730469 136.539062 C 313.109375 139.085938 313.421875 141.640625 313.675781 144.203125 C 313.929688 146.761719 314.117188 149.328125 314.242188 151.902344 C 314.371094 154.472656 314.433594 157.042969 314.433594 159.617188 Z M 314.433594 159.617188 " fill-opacity="1" fill-rule="nonzero"/></g><path fill="#dce3ef" d="M 364.378906 159.25 L 358.582031 159.25 C 357.570312 154.738281 355.824219 150.507812 353.523438 146.640625 L 357.753906 142.410156 C 359.226562 140.9375 359.226562 138.453125 357.753906 136.980469 L 348.375 127.59375 C 346.902344 126.121094 344.417969 126.121094 342.945312 127.59375 L 338.808594 131.734375 C 335.035156 129.339844 330.804688 127.5 326.296875 126.394531 L 326.296875 120.320312 C 326.296875 118.207031 324.550781 116.457031 322.433594 116.457031 L 309.191406 116.457031 C 307.074219 116.457031 305.328125 118.207031 305.328125 120.320312 L 305.328125 126.121094 C 300.820312 127.132812 296.589844 128.878906 292.726562 131.179688 L 288.496094 126.949219 C 287.023438 125.476562 284.539062 125.476562 283.066406 126.949219 L 273.683594 136.335938 C 272.214844 137.808594 272.214844 140.292969 273.683594 141.765625 L 277.824219 145.90625 C 275.433594 149.679688 273.59375 153.910156 272.488281 158.421875 L 266.417969 158.421875 C 264.304688 158.421875 262.554688 160.167969 262.554688 162.285156 L 262.554688 175.539062 C 262.554688 177.65625 264.304688 179.402344 266.417969 179.402344 L 272.214844 179.402344 C 273.226562 183.914062 274.972656 188.144531 277.273438 192.011719 L 273.042969 196.246094 C 271.570312 197.714844 271.570312 200.203125 273.042969 201.675781 L 282.421875 211.0625 C 283.894531 212.53125 286.378906 212.53125 287.851562 211.0625 L 291.988281 206.917969 C 295.761719 209.3125 299.992188 211.152344 304.5 212.257812 L 304.5 218.332031 C 304.5 220.449219 306.246094 222.195312 308.363281 222.195312 L 321.605469 222.195312 C 323.722656 222.195312 325.46875 220.449219 325.46875 218.332031 L 325.46875 212.441406 C 329.976562 211.429688 334.207031 209.679688 338.070312 207.378906 L 342.300781 211.613281 C 343.773438 213.085938 346.257812 213.085938 347.730469 211.613281 L 357.113281 202.226562 C 358.582031 200.753906 358.582031 198.269531 357.113281 196.796875 L 352.972656 192.65625 C 355.363281 188.882812 357.203125 184.648438 358.308594 180.140625 L 364.285156 180.140625 C 366.402344 180.140625 368.148438 178.390625 368.148438 176.273438 L 368.148438 163.023438 C 368.242188 160.996094 366.492188 159.25 364.378906 159.25 Z M 315.351562 193.851562 C 301.738281 193.851562 290.792969 182.808594 290.792969 169.28125 C 290.792969 155.660156 301.832031 144.710938 315.351562 144.710938 C 328.964844 144.710938 340.003906 155.753906 340.003906 169.28125 C 339.910156 182.808594 328.964844 193.851562 315.351562 193.851562 Z M 315.351562 193.851562 " fill-opacity="1" fill-rule="nonzero"/><path fill="#162667" d="M 373.300781 215.019531 L 332.828125 215.019531 C 331.910156 215.019531 331.171875 214.28125 331.171875 213.359375 L 331.171875 171.488281 C 331.171875 170.570312 331.910156 169.832031 332.828125 169.832031 L 373.300781 169.832031 C 374.21875 169.832031 374.957031 170.570312 374.957031 171.488281 L 374.957031 213.359375 C 374.957031 214.191406 374.21875 215.019531 373.300781 215.019531 Z M 373.300781 215.019531 " fill-opacity="1" fill-rule="nonzero"/><path fill="#ffffff" d="M 330.253906 215.292969 C 329.148438 215.292969 328.230469 214.375 328.230469 213.269531 L 328.230469 171.398438 C 328.230469 170.292969 329.148438 169.371094 330.253906 169.371094 L 370.632812 169.371094 C 371.738281 169.371094 372.65625 170.292969 372.65625 171.398438 L 372.65625 213.269531 C 372.65625 214.375 371.738281 215.292969 370.632812 215.292969 Z M 330.253906 215.292969 " fill-opacity="1" fill-rule="nonzero"/><path fill="#162667" d="M 370.726562 169.742188 C 371.644531 169.742188 372.378906 170.476562 372.378906 171.398438 L 372.378906 213.269531 C 372.378906 214.191406 371.644531 214.925781 370.726562 214.925781 L 330.34375 214.925781 C 329.425781 214.925781 328.691406 214.191406 328.691406 213.269531 L 328.691406 171.398438 C 328.691406 170.476562 329.425781 169.742188 330.34375 169.742188 L 370.726562 169.742188 M 370.726562 169.097656 L 330.34375 169.097656 C 329.058594 169.097656 328.046875 170.109375 328.046875 171.398438 L 328.046875 213.269531 C 328.046875 214.558594 329.058594 215.570312 330.34375 215.570312 L 370.726562 215.570312 C 372.011719 215.570312 373.023438 214.558594 373.023438 213.269531 L 373.023438 171.398438 C 373.023438 170.109375 372.011719 169.097656 370.726562 169.097656 Z M 370.726562 169.097656 " fill-opacity="1" fill-rule="nonzero"/><path fill="#efc237" d="M 345.976562 181.90625 C 346.253906 182.183594 346.507812 182.480469 346.738281 182.792969 C 346.96875 183.109375 347.171875 183.4375 347.34375 183.777344 C 347.515625 184.117188 347.65625 184.460938 347.769531 184.8125 C 347.878906 185.167969 347.953125 185.519531 347.996094 185.867188 C 348.039062 186.21875 348.046875 186.5625 348.019531 186.898438 C 347.992188 187.234375 347.929688 187.554688 347.835938 187.863281 C 347.742188 188.167969 347.613281 188.457031 347.453125 188.726562 C 347.296875 188.992188 347.105469 189.234375 346.890625 189.453125 C 346.671875 189.671875 346.429688 189.859375 346.160156 190.019531 C 345.894531 190.179688 345.605469 190.308594 345.296875 190.402344 C 344.988281 190.496094 344.667969 190.558594 344.332031 190.585938 C 344 190.613281 343.65625 190.605469 343.304688 190.5625 C 342.953125 190.519531 342.605469 190.441406 342.25 190.332031 C 341.898438 190.222656 341.554688 190.082031 341.214844 189.910156 C 340.875 189.734375 340.546875 189.535156 340.234375 189.304688 C 339.917969 189.074219 339.621094 188.820312 339.34375 188.542969 C 339.066406 188.265625 338.8125 187.96875 338.582031 187.652344 C 338.351562 187.339844 338.152344 187.011719 337.980469 186.671875 C 337.804688 186.332031 337.664062 185.984375 337.554688 185.632812 C 337.445312 185.28125 337.367188 184.929688 337.328125 184.578125 C 337.285156 184.230469 337.277344 183.886719 337.304688 183.550781 C 337.328125 183.214844 337.390625 182.894531 337.484375 182.585938 C 337.582031 182.277344 337.707031 181.992188 337.867188 181.722656 C 338.027344 181.457031 338.214844 181.210938 338.433594 180.996094 C 338.652344 180.777344 338.894531 180.585938 339.160156 180.429688 C 339.429688 180.269531 339.71875 180.140625 340.023438 180.046875 C 340.332031 179.953125 340.652344 179.890625 340.988281 179.863281 C 341.324219 179.835938 341.667969 179.84375 342.015625 179.886719 C 342.367188 179.929688 342.71875 180.003906 343.070312 180.113281 C 343.421875 180.222656 343.769531 180.367188 344.109375 180.539062 C 344.449219 180.710938 344.773438 180.914062 345.089844 181.144531 C 345.40625 181.375 345.699219 181.628906 345.976562 181.90625 Z M 345.976562 181.90625 " fill-opacity="1" fill-rule="nonzero"/><path fill="#efc237" d="M 360.699219 203.144531 C 360.054688 203.789062 358.949219 203.789062 358.214844 203.054688 L 345.246094 189.066406 L 346.625 187.6875 L 360.605469 200.660156 C 361.34375 201.398438 361.34375 202.503906 360.699219 203.144531 Z M 360.699219 203.144531 " fill-opacity="1" fill-rule="nonzero"/><path fill="#efc237" d="M 366.21875 184.28125 C 366.21875 184.28125 360.421875 190.078125 359.042969 191.457031 C 358.859375 191.644531 358.582031 191.644531 358.398438 191.457031 C 358.03125 191.089844 357.480469 190.722656 357.019531 190.539062 C 356.46875 190.355469 355.914062 190.261719 355.363281 190.261719 L 343.40625 203.144531 L 343.316406 203.238281 C 342.671875 203.882812 341.566406 203.882812 340.921875 203.238281 C 340.277344 202.59375 340.277344 201.488281 341.015625 200.84375 L 353.890625 188.882812 C 353.890625 188.328125 353.800781 187.777344 353.617188 187.226562 C 353.433594 186.671875 353.0625 186.214844 352.695312 185.84375 C 352.511719 185.660156 352.511719 185.386719 352.695312 185.199219 L 359.871094 178.023438 L 361.066406 179.21875 L 354.996094 185.292969 L 356.191406 186.488281 L 362.261719 180.414062 L 363.824219 181.980469 L 357.753906 188.054688 L 358.949219 189.25 L 365.023438 183.175781 Z M 366.21875 184.28125 " fill-opacity="1" fill-rule="nonzero"/><path fill="#dce3ef" d="M 336.691406 286.246094 C 335.957031 286.523438 333.472656 281.09375 333.195312 280.539062 C 331.082031 275.570312 330.53125 269.957031 331.355469 264.710938 C 332.183594 259.558594 334.207031 254.40625 336.785156 250.265625 C 338.992188 246.859375 342.027344 243.269531 345.707031 242.257812 C 347.820312 241.707031 349.9375 242.257812 351.410156 244.28125 C 352.695312 246.03125 353.339844 248.515625 353.523438 250.816406 C 354.167969 258.085938 352.511719 265.171875 350.214844 271.707031 C 348.464844 276.675781 346.074219 281.921875 341.75 284.222656 C 340.277344 285.140625 338.53125 285.601562 336.691406 286.246094 Z M 336.691406 286.246094 " fill-opacity="1" fill-rule="nonzero"/><path fill="#162667" d="M 331.816406 328.488281 L 331.449219 328.488281 C 331.542969 326.832031 334.117188 286.984375 342.394531 262.503906 L 342.761719 262.59375 C 334.484375 286.984375 331.910156 326.832031 331.816406 328.488281 Z M 331.816406 328.488281 " fill-opacity="1" fill-rule="nonzero"/><path fill="#dce3ef" d="M 325.839844 288.730469 C 326.296875 288.914062 328.136719 285.417969 328.320312 285.050781 C 329.886719 281.828125 330.4375 278.054688 329.886719 274.375 C 329.425781 270.785156 328.136719 267.195312 326.390625 264.253906 C 324.917969 261.765625 322.894531 259.191406 320.410156 258.269531 C 319.03125 257.71875 317.46875 258.085938 316.457031 259.28125 C 315.535156 260.386719 314.984375 262.042969 314.800781 263.609375 C 314.15625 268.578125 315.261719 273.453125 316.640625 278.054688 C 317.742188 281.554688 319.214844 285.234375 322.160156 287.074219 C 323.355469 287.71875 324.640625 288.179688 325.839844 288.730469 Z M 325.839844 288.730469 " fill-opacity="1" fill-rule="nonzero"/><path fill="#dce3ef" d="M 317.007812 303.273438 C 317.558594 303.273438 318.113281 299.128906 318.203125 298.761719 C 318.664062 295.082031 317.929688 291.308594 316.273438 288.085938 C 314.707031 285.050781 312.410156 282.199219 309.832031 280.171875 C 307.71875 278.515625 304.957031 277.042969 302.382812 277.320312 C 300.910156 277.503906 299.625 278.425781 298.980469 279.988281 C 298.429688 281.460938 298.519531 283.210938 298.796875 284.683594 C 299.808594 289.558594 302.292969 293.609375 305.144531 297.289062 C 307.257812 300.050781 309.832031 302.8125 313.144531 303.179688 C 314.433594 303.457031 315.71875 303.363281 317.007812 303.273438 Z M 317.007812 303.273438 " fill-opacity="1" fill-rule="nonzero"/><path fill="#162667" d="M 330.898438 330.328125 C 330.898438 329.960938 329.148438 295.632812 321.238281 271.707031 L 321.605469 271.613281 C 329.515625 295.632812 331.265625 330.050781 331.265625 330.328125 Z M 330.898438 330.328125 " fill-opacity="1" fill-rule="nonzero"/><path fill="#dce3ef" d="M 339.726562 311.921875 C 339.175781 311.738281 339.453125 307.597656 339.453125 307.230469 C 339.726562 303.546875 341.199219 300.050781 343.40625 297.382812 C 345.523438 294.804688 348.375 292.6875 351.226562 291.398438 C 353.617188 290.386719 356.558594 289.652344 359.042969 290.570312 C 360.421875 291.125 361.527344 292.320312 361.800781 294.070312 C 361.988281 295.632812 361.617188 297.289062 361.066406 298.671875 C 359.136719 303.085938 355.914062 306.402344 352.511719 309.253906 C 349.9375 311.371094 346.808594 313.394531 343.589844 312.933594 C 342.210938 312.75 341.015625 312.289062 339.726562 311.921875 Z M 339.726562 311.921875 " fill-opacity="1" fill-rule="nonzero"/><path fill="#162667" d="M 333.011719 328.761719 L 332.644531 328.578125 C 332.644531 328.488281 332.738281 328.210938 332.921875 327.84375 C 337.335938 313.761719 343.222656 306.125 347.363281 302.257812 L 347.636719 302.535156 C 343.5 306.402344 337.613281 313.945312 333.289062 328.027344 C 333.105469 328.394531 333.011719 328.671875 333.011719 328.761719 Z M 333.011719 328.761719 " fill-opacity="1" fill-rule="nonzero"/><path fill="#162667" d="M 330.070312 329.40625 C 329.976562 329.222656 320.6875 306.214844 309.191406 291.859375 L 309.464844 291.585938 C 321.054688 306.03125 330.34375 328.945312 330.4375 329.222656 Z M 330.070312 329.40625 " fill-opacity="1" fill-rule="nonzero"/><path fill="#162667" d="M 316.363281 349.835938 L 346.164062 349.835938 L 351.226562 317.71875 L 311.398438 317.71875 Z M 316.363281 349.835938 " fill-opacity="1" fill-rule="nonzero"/><path fill="#162667" d="M 311.488281 324.53125 L 351.132812 324.53125 C 351.960938 324.53125 352.695312 323.792969 352.695312 322.964844 L 352.695312 317.167969 C 352.695312 316.339844 351.960938 315.601562 351.132812 315.601562 L 311.488281 315.601562 C 310.660156 315.601562 309.925781 316.339844 309.925781 317.167969 L 309.925781 322.964844 C 309.925781 323.886719 310.570312 324.53125 311.488281 324.53125 Z M 311.488281 324.53125 " fill-opacity="1" fill-rule="nonzero"/><path fill="#162667" d="M 141.140625 43.664062 L 141.140625 343.117188 C 141.140625 346.800781 144.085938 349.746094 147.765625 349.746094 L 314.433594 349.746094 C 318.113281 349.746094 321.054688 346.800781 321.054688 343.117188 L 321.054688 43.664062 C 321.054688 39.984375 318.113281 37.039062 314.433594 37.039062 L 271.386719 37.039062 C 268.535156 37.039062 266.234375 39.339844 266.234375 42.191406 C 266.234375 43.664062 265.683594 44.953125 264.671875 45.871094 C 263.75 46.792969 262.464844 47.4375 260.992188 47.4375 L 201.203125 47.4375 C 198.355469 47.4375 196.054688 45.136719 196.054688 42.285156 C 196.054688 40.8125 195.503906 39.523438 194.492188 38.601562 C 193.570312 37.683594 192.28125 37.039062 190.8125 37.039062 L 147.765625 37.039062 C 144.085938 36.945312 141.140625 39.984375 141.140625 43.664062 Z M 141.140625 43.664062 " fill-opacity="1" fill-rule="nonzero"/><path fill="#ffffff" d="M 140.222656 348.734375 C 137.09375 348.734375 134.519531 346.15625 134.519531 343.027344 L 134.519531 43.480469 C 134.519531 40.351562 137.09375 37.773438 140.222656 37.773438 L 183.269531 37.773438 C 184.371094 37.773438 185.476562 38.234375 186.304688 39.0625 C 187.132812 39.890625 187.59375 40.902344 187.59375 42.097656 C 187.59375 45.503906 190.351562 48.265625 193.753906 48.265625 L 253.542969 48.265625 C 255.199219 48.265625 256.761719 47.621094 257.863281 46.425781 C 259.0625 45.320312 259.613281 43.753906 259.613281 42.097656 C 259.613281 39.707031 261.542969 37.773438 263.84375 37.773438 L 306.890625 37.773438 C 310.019531 37.773438 312.59375 40.351562 312.59375 43.480469 L 312.59375 342.933594 C 312.59375 346.0625 310.019531 348.640625 306.890625 348.640625 L 140.222656 348.640625 Z M 140.222656 348.734375 " fill-opacity="1" fill-rule="nonzero"/><path fill="#162667" d="M 306.890625 38.695312 C 309.558594 38.695312 311.671875 40.902344 311.671875 43.480469 L 311.671875 342.933594 C 311.671875 345.605469 309.464844 347.71875 306.890625 347.71875 L 140.222656 347.71875 C 137.554688 347.71875 135.4375 345.605469 135.4375 342.933594 L 135.4375 43.480469 C 135.4375 40.8125 137.554688 38.695312 140.222656 38.695312 L 183.269531 38.695312 C 184.1875 38.695312 185.015625 39.0625 185.660156 39.707031 C 186.304688 40.351562 186.671875 41.179688 186.671875 42.097656 C 186.671875 45.964844 189.800781 49.183594 193.753906 49.183594 L 253.542969 49.183594 C 255.472656 49.183594 257.222656 48.449219 258.507812 47.160156 C 259.886719 45.871094 260.625 44.03125 260.625 42.191406 C 260.625 40.351562 262.097656 38.785156 263.9375 38.785156 L 306.890625 38.785156 M 306.890625 36.855469 L 263.84375 36.855469 C 260.992188 36.855469 258.691406 39.15625 258.691406 42.097656 C 258.691406 43.570312 258.140625 44.859375 257.128906 45.78125 C 256.210938 46.699219 254.921875 47.34375 253.449219 47.34375 L 193.664062 47.34375 C 190.8125 47.34375 188.417969 45.042969 188.417969 42.097656 C 188.417969 40.625 187.867188 39.339844 186.949219 38.417969 C 186.027344 37.496094 184.742188 36.855469 183.269531 36.855469 L 140.222656 36.855469 C 136.542969 36.855469 133.597656 39.796875 133.597656 43.480469 L 133.597656 342.933594 C 133.597656 346.617188 136.542969 349.5625 140.222656 349.5625 L 306.890625 349.5625 C 310.570312 349.5625 313.511719 346.617188 313.511719 342.933594 L 313.511719 43.480469 C 313.511719 39.796875 310.570312 36.855469 306.890625 36.855469 Z M 306.890625 36.855469 " fill-opacity="1" fill-rule="nonzero"/><path fill="#dce3ef" d="M 293.371094 88.847656 L 156.59375 88.847656 C 154.386719 88.847656 152.640625 87.101562 152.640625 84.890625 L 152.640625 70.8125 C 152.640625 68.601562 154.386719 66.855469 156.59375 66.855469 L 293.371094 66.855469 C 295.578125 66.855469 297.324219 68.601562 297.324219 70.8125 L 297.324219 84.890625 C 297.324219 87.007812 295.578125 88.847656 293.371094 88.847656 Z M 156.59375 67.683594 C 154.847656 67.683594 153.46875 69.0625 153.46875 70.8125 L 153.46875 84.890625 C 153.46875 86.640625 154.847656 88.019531 156.59375 88.019531 L 293.371094 88.019531 C 295.117188 88.019531 296.496094 86.640625 296.496094 84.890625 L 296.496094 70.8125 C 296.496094 69.0625 295.117188 67.683594 293.371094 67.683594 Z M 156.59375 67.683594 " fill-opacity="1" fill-rule="nonzero"/><path fill="#dce3ef" d="M 167.265625 81.578125 C 167.082031 81.578125 166.894531 81.578125 166.710938 81.578125 C 165.699219 81.488281 164.871094 80.933594 164.230469 80.105469 C 163.035156 78.449219 163.308594 76.148438 164.964844 74.859375 C 165.792969 74.308594 166.710938 74.03125 167.722656 74.125 C 168.734375 74.214844 169.5625 74.769531 170.207031 75.597656 C 170.851562 76.425781 171.035156 77.34375 170.945312 78.359375 C 170.851562 79.371094 170.300781 80.199219 169.472656 80.84375 C 168.828125 81.304688 168.09375 81.578125 167.265625 81.578125 Z M 167.265625 75.136719 C 166.710938 75.136719 166.070312 75.320312 165.609375 75.6875 C 164.414062 76.609375 164.136719 78.359375 165.058594 79.554688 C 165.515625 80.105469 166.160156 80.472656 166.894531 80.660156 C 167.632812 80.75 168.367188 80.566406 168.921875 80.105469 C 169.472656 79.644531 169.839844 79.003906 170.023438 78.265625 C 170.117188 77.53125 169.933594 76.792969 169.472656 76.242188 C 169.011719 75.6875 168.367188 75.320312 167.632812 75.136719 C 167.539062 75.136719 167.355469 75.136719 167.265625 75.136719 Z M 167.265625 75.136719 " fill-opacity="1" fill-rule="nonzero"/><path fill="#dce3ef" d="M 160.949219 81.964844 L 164.402344 79.359375 L 165.011719 80.167969 L 161.558594 82.773438 Z M 160.949219 81.964844 " fill-opacity="1" fill-rule="nonzero"/><path fill="#dce3ef" d="M 197.066406 148.023438 L 157.054688 148.023438 C 154.296875 148.023438 152.085938 145.8125 152.085938 143.054688 L 152.085938 103.019531 C 152.085938 100.261719 154.296875 98.050781 157.054688 98.050781 L 197.066406 98.050781 C 199.824219 98.050781 202.03125 100.261719 202.03125 103.019531 L 202.03125 143.054688 C 202.03125 145.8125 199.824219 148.023438 197.066406 148.023438 Z M 197.066406 148.023438 " fill-opacity="1" fill-rule="nonzero"/><path fill="#162667" d="M 197.066406 148.480469 L 157.054688 148.480469 C 154.109375 148.480469 151.628906 146.089844 151.628906 143.054688 L 151.628906 103.019531 C 151.628906 100.078125 154.019531 97.589844 157.054688 97.589844 L 197.066406 97.589844 C 200.007812 97.589844 202.492188 99.984375 202.492188 103.019531 L 202.492188 143.054688 C 202.492188 146.089844 200.101562 148.480469 197.066406 148.480469 Z M 157.054688 98.605469 C 154.570312 98.605469 152.640625 100.628906 152.640625 103.019531 L 152.640625 143.054688 C 152.640625 145.539062 154.664062 147.46875 157.054688 147.46875 L 197.066406 147.46875 C 199.550781 147.46875 201.480469 145.445312 201.480469 143.054688 L 201.480469 103.019531 C 201.480469 100.535156 199.457031 98.605469 197.066406 98.605469 Z M 157.054688 98.605469 " fill-opacity="1" fill-rule="nonzero"/><path fill="#ed5540" d="M 158.066406 126.394531 C 158.066406 127.316406 158.800781 128.144531 159.8125 128.144531 L 194.398438 128.144531 C 195.316406 128.144531 196.144531 127.410156 196.144531 126.394531 C 196.144531 126.304688 196.144531 126.121094 196.144531 126.027344 C 196.054688 125.660156 195.871094 125.382812 195.6875 125.199219 C 195.410156 124.921875 194.949219 124.648438 194.492188 124.648438 L 159.90625 124.648438 C 159.078125 124.648438 158.34375 125.199219 158.25 126.027344 C 158.066406 126.121094 158.066406 126.210938 158.066406 126.394531 Z M 158.066406 126.394531 " fill-opacity="1" fill-rule="nonzero"/><path fill="#ed5540" d="M 158.066406 126.027344 C 158.25 126.765625 158.894531 127.410156 159.722656 127.410156 L 194.304688 127.410156 C 195.132812 127.410156 195.871094 126.855469 195.960938 126.027344 C 195.871094 125.660156 195.6875 125.382812 195.503906 125.199219 C 195.226562 124.921875 194.765625 124.648438 194.304688 124.648438 L 159.722656 124.648438 C 158.894531 124.648438 158.25 125.199219 158.066406 126.027344 Z M 158.066406 126.027344 " fill-opacity="1" fill-rule="nonzero"/><path fill="#162667" d="M 158.527344 123.449219 C 158.527344 124.1875 159.078125 124.738281 159.8125 124.738281 L 194.304688 124.738281 C 195.042969 124.738281 195.59375 124.1875 195.59375 123.449219 C 195.59375 123.359375 195.59375 123.265625 195.59375 123.175781 C 195.503906 122.898438 195.410156 122.714844 195.226562 122.53125 C 194.949219 122.253906 194.675781 122.164062 194.304688 122.164062 L 159.8125 122.164062 C 159.171875 122.164062 158.710938 122.621094 158.617188 123.175781 C 158.527344 123.265625 158.527344 123.359375 158.527344 123.449219 Z M 158.527344 123.449219 " fill-opacity="1" fill-rule="nonzero"/><path fill="#162667" d="M 158.617188 123.175781 C 158.710938 123.726562 159.261719 124.1875 159.8125 124.1875 L 194.304688 124.1875 C 194.949219 124.1875 195.410156 123.726562 195.503906 123.175781 C 195.410156 122.898438 195.316406 122.714844 195.132812 122.53125 C 194.859375 122.253906 194.582031 122.164062 194.214844 122.164062 L 159.722656 122.164062 C 159.171875 122.164062 158.710938 122.621094 158.617188 123.175781 Z M 158.617188 123.175781 " fill-opacity="1" fill-rule="nonzero"/><path fill="#162667" d="M 158.527344 129.339844 C 158.527344 130.078125 159.078125 130.628906 159.8125 130.628906 L 194.304688 130.628906 C 195.042969 130.628906 195.59375 130.078125 195.59375 129.339844 C 195.59375 129.25 195.59375 129.15625 195.59375 129.066406 C 195.503906 128.878906 195.410156 128.605469 195.226562 128.511719 C 194.949219 128.238281 194.675781 128.144531 194.304688 128.144531 L 159.8125 128.144531 C 159.261719 128.144531 158.710938 128.511719 158.617188 129.066406 C 158.527344 129.066406 158.527344 129.25 158.527344 129.339844 Z M 158.527344 129.339844 " fill-opacity="1" fill-rule="nonzero"/><path fill="#162667" d="M 158.617188 128.972656 C 158.710938 129.523438 159.261719 129.984375 159.8125 129.984375 L 194.304688 129.984375 C 194.859375 129.984375 195.410156 129.617188 195.503906 128.972656 C 195.410156 128.789062 195.316406 128.511719 195.132812 128.421875 C 194.859375 128.144531 194.582031 128.050781 194.214844 128.050781 L 159.722656 128.050781 C 159.261719 128.050781 158.710938 128.421875 158.617188 128.972656 Z M 158.617188 128.972656 " fill-opacity="1" fill-rule="nonzero"/><path fill="#efc237" d="M 158.800781 130.996094 L 158.800781 134.769531 C 158.800781 136.886719 160.550781 138.636719 162.664062 138.636719 L 191.457031 138.636719 C 193.292969 138.636719 194.765625 137.347656 195.226562 135.691406 C 195.316406 135.414062 195.316406 135.046875 195.316406 134.769531 L 195.316406 130.996094 Z M 158.800781 130.996094 " fill-opacity="1" fill-rule="nonzero"/><path fill="#ffffff" d="M 158.710938 121.519531 L 158.710938 122.164062 C 160.089844 123.726562 162.574219 123.726562 163.953125 122.164062 C 165.332031 123.726562 167.816406 123.726562 169.195312 122.164062 C 169.933594 122.992188 170.851562 123.359375 171.863281 123.359375 C 172.78125 123.359375 173.796875 122.992188 174.53125 122.164062 C 175.265625 122.992188 176.1875 123.359375 177.199219 123.359375 C 178.117188 123.359375 179.128906 122.992188 179.867188 122.164062 C 180.601562 122.992188 181.519531 123.359375 182.53125 123.359375 C 183.453125 123.359375 184.464844 122.992188 185.199219 122.164062 C 185.9375 122.992188 186.855469 123.359375 187.867188 123.359375 C 188.789062 123.359375 189.800781 122.992188 190.535156 122.164062 C 191.269531 122.992188 192.191406 123.359375 193.203125 123.359375 C 194.121094 123.359375 195.132812 122.992188 195.871094 122.164062 L 195.871094 121.519531 Z M 158.710938 121.519531 " fill-opacity="1" fill-rule="nonzero"/><path fill="#ffffff" d="M 195.410156 130.539062 L 158.617188 130.539062 L 158.617188 131.179688 C 159.996094 132.746094 162.480469 132.746094 163.859375 131.179688 C 165.242188 132.746094 167.722656 132.746094 169.105469 131.179688 C 170.484375 132.746094 172.96875 132.746094 174.347656 131.179688 C 175.726562 132.746094 178.210938 132.746094 179.589844 131.179688 C 180.96875 132.746094 183.453125 132.746094 184.832031 131.179688 C 186.210938 132.746094 188.695312 132.746094 190.074219 131.179688 C 191.457031 132.746094 193.9375 132.746094 195.316406 131.179688 " fill-opacity="1" fill-rule="nonzero"/><path fill="#efc237" d="M 158.710938 121.519531 L 195.503906 121.519531 C 195.503906 120.964844 195.410156 120.507812 195.316406 119.953125 C 194.121094 113.972656 186.394531 107.4375 177.105469 107.4375 C 172.507812 107.4375 168.367188 109.003906 165.148438 111.304688 C 161.195312 114.15625 158.710938 118.019531 158.710938 121.519531 Z M 158.710938 121.519531 " fill-opacity="1" fill-rule="nonzero"/><path fill="#efc237" d="M 212.792969 99.523438 L 297.230469 99.523438 L 297.230469 105.230469 L 212.792969 105.230469 Z M 212.792969 99.523438 " fill-opacity="1" fill-rule="nonzero"/><path fill="#dce3ef" d="M 212.792969 111.761719 L 297.230469 111.761719 L 297.230469 114.15625 L 212.792969 114.15625 Z M 212.792969 111.761719 " fill-opacity="1" fill-rule="nonzero"/><path fill="#dce3ef" d="M 212.792969 118.757812 L 297.230469 118.757812 L 297.230469 121.152344 L 212.792969 121.152344 Z M 212.792969 118.757812 " fill-opacity="1" fill-rule="nonzero"/><path fill="#dce3ef" d="M 212.792969 125.75 L 297.230469 125.75 L 297.230469 128.144531 L 212.792969 128.144531 Z M 212.792969 125.75 " fill-opacity="1" fill-rule="nonzero"/><path fill="#ed5540" d="M 286.746094 145.261719 L 286.746094 146.550781 L 285.644531 146.550781 L 285.644531 145.261719 C 284.539062 145.167969 283.433594 144.800781 282.792969 144.339844 L 283.433594 142.960938 C 283.988281 143.421875 284.816406 143.695312 285.644531 143.789062 L 285.644531 141.855469 C 284.355469 141.582031 282.976562 141.121094 282.976562 139.464844 C 282.976562 138.265625 283.894531 137.164062 285.644531 136.980469 L 285.644531 135.691406 L 286.746094 135.691406 L 286.746094 136.980469 C 287.574219 137.070312 288.402344 137.253906 289.046875 137.714844 L 288.496094 139.09375 C 287.941406 138.726562 287.296875 138.542969 286.746094 138.542969 L 286.746094 140.476562 C 288.035156 140.753906 289.414062 141.210938 289.414062 142.777344 C 289.414062 143.972656 288.585938 145.078125 286.746094 145.261719 Z M 285.644531 140.199219 L 285.644531 138.542969 C 285 138.636719 284.816406 139.003906 284.816406 139.371094 C 284.816406 139.832031 285.183594 140.015625 285.644531 140.199219 Z M 287.574219 142.960938 C 287.574219 142.59375 287.207031 142.316406 286.746094 142.132812 L 286.746094 143.695312 C 287.390625 143.605469 287.574219 143.328125 287.574219 142.960938 Z M 287.574219 142.960938 " fill-opacity="1" fill-rule="nonzero"/><path fill="#ed5540" d="M 294.105469 145.261719 L 294.105469 146.550781 L 293 146.550781 L 293 145.261719 C 291.898438 145.167969 290.792969 144.800781 290.148438 144.339844 L 290.792969 142.960938 C 291.34375 143.421875 292.171875 143.695312 293 143.789062 L 293 141.855469 C 291.714844 141.582031 290.332031 141.121094 290.332031 139.464844 C 290.332031 138.265625 291.253906 137.164062 293 136.980469 L 293 135.691406 L 294.105469 135.691406 L 294.105469 136.980469 C 294.933594 137.070312 295.761719 137.253906 296.40625 137.714844 L 295.851562 139.09375 C 295.300781 138.726562 294.65625 138.542969 294.105469 138.542969 L 294.105469 140.476562 C 295.394531 140.753906 296.773438 141.210938 296.773438 142.777344 C 296.773438 143.972656 295.851562 145.078125 294.105469 145.261719 Z M 292.910156 140.199219 L 292.910156 138.542969 C 292.265625 138.636719 292.082031 139.003906 292.082031 139.371094 C 292.082031 139.832031 292.449219 140.015625 292.910156 140.199219 Z M 294.933594 142.960938 C 294.933594 142.59375 294.566406 142.316406 294.105469 142.132812 L 294.105469 143.695312 C 294.65625 143.605469 294.933594 143.328125 294.933594 142.960938 Z M 294.933594 142.960938 " fill-opacity="1" fill-rule="nonzero"/><path fill="#dce3ef" d="M 196.972656 221.089844 L 156.960938 221.089844 C 154.203125 221.089844 151.996094 218.882812 151.996094 216.121094 L 151.996094 176.089844 C 151.996094 173.328125 154.203125 171.121094 156.960938 171.121094 L 196.972656 171.121094 C 199.734375 171.121094 201.941406 173.328125 201.941406 176.089844 L 201.941406 216.121094 C 201.941406 218.882812 199.734375 221.089844 196.972656 221.089844 Z M 196.972656 221.089844 " fill-opacity="1" fill-rule="nonzero"/><path fill="#162667" d="M 196.972656 221.550781 L 156.960938 221.550781 C 154.019531 221.550781 151.535156 219.160156 151.535156 216.121094 L 151.535156 176.089844 C 151.535156 173.144531 153.925781 170.660156 156.960938 170.660156 L 196.972656 170.660156 C 199.917969 170.660156 202.402344 173.054688 202.402344 176.089844 L 202.402344 216.121094 C 202.402344 219.066406 200.007812 221.550781 196.972656 221.550781 Z M 156.960938 171.582031 C 154.480469 171.582031 152.546875 173.605469 152.546875 176 L 152.546875 216.121094 C 152.546875 218.605469 154.570312 220.539062 156.960938 220.539062 L 196.972656 220.539062 C 199.457031 220.539062 201.390625 218.515625 201.390625 216.121094 L 201.390625 176.089844 C 201.390625 173.605469 199.367188 171.671875 196.972656 171.671875 L 156.960938 171.671875 Z M 156.960938 171.582031 " fill-opacity="1" fill-rule="nonzero"/><path fill="#162667" d="M 182.441406 196.246094 C 182.257812 196.152344 182.074219 195.96875 182.164062 195.785156 L 185.9375 180.507812 C 186.027344 180.324219 186.210938 180.140625 186.394531 180.230469 C 186.582031 180.324219 186.765625 180.507812 186.671875 180.691406 L 182.902344 195.96875 C 182.808594 196.152344 182.625 196.246094 182.441406 196.246094 Z M 182.441406 196.246094 " fill-opacity="1" fill-rule="nonzero"/><path fill="#162667" d="M 176.277344 192.746094 C 176.09375 192.746094 175.910156 192.65625 175.820312 192.472656 L 173.609375 176.828125 C 173.609375 176.644531 173.703125 176.457031 173.886719 176.367188 C 174.070312 176.367188 174.253906 176.457031 174.347656 176.644531 L 176.554688 192.289062 C 176.644531 192.472656 176.460938 192.746094 176.277344 192.746094 Z M 176.277344 192.746094 " fill-opacity="1" fill-rule="nonzero"/><path fill="#efc237" d="M 195.316406 203.054688 L 159.078125 205.539062 C 159.078125 205.539062 157.699219 197.902344 163.035156 197.992188 C 163.035156 197.992188 163.035156 197.992188 163.035156 197.902344 C 163.035156 197.808594 163.035156 197.53125 163.035156 197.257812 C 163.125 195.691406 163.859375 192.289062 168.921875 192.195312 C 169.746094 191.457031 173.335938 188.421875 176.921875 189.988281 C 176.921875 189.988281 185.660156 187.226562 186.027344 195.324219 C 188.050781 195.046875 190.535156 195.507812 192.191406 198.359375 C 193.753906 199.003906 195.226562 200.292969 195.316406 203.054688 Z M 195.316406 203.054688 " fill-opacity="1" fill-rule="nonzero"/><path fill="#ed5540" d="M 186.765625 212.53125 L 167.082031 212.53125 C 162.019531 212.53125 157.882812 208.390625 157.882812 203.332031 L 157.882812 202.316406 L 195.871094 202.316406 L 195.871094 203.332031 C 195.871094 208.390625 191.824219 212.53125 186.765625 212.53125 Z M 186.765625 212.53125 " fill-opacity="1" fill-rule="nonzero"/><path fill="#162667" d="M 180.140625 192.195312 C 179.128906 191.367188 177.933594 190.722656 176.832031 190.078125 L 176.921875 189.894531 C 178.117188 190.539062 179.222656 191.183594 180.324219 192.011719 Z M 180.140625 192.195312 " fill-opacity="1" fill-rule="nonzero"/><path fill="#162667" d="M 166.804688 199.097656 C 165.332031 198.453125 164.136719 198.085938 163.035156 198.085938 L 163.035156 197.902344 C 164.136719 197.902344 165.425781 198.269531 166.804688 198.914062 Z M 166.804688 199.097656 " fill-opacity="1" fill-rule="nonzero"/><path fill="#162667" d="M 175.265625 193.667969 C 172.046875 192.195312 169.839844 192.289062 168.921875 192.289062 L 168.828125 192.289062 L 168.828125 192.101562 L 168.921875 192.101562 C 169.839844 192.101562 172.046875 192.011719 175.359375 193.484375 Z M 175.265625 193.667969 " fill-opacity="1" fill-rule="nonzero"/><path fill="#162667" d="M 182.992188 196.335938 L 182.902344 196.152344 C 182.902344 196.152344 184.28125 195.417969 186.027344 195.140625 L 186.027344 195.324219 C 184.28125 195.691406 182.992188 196.335938 182.992188 196.335938 Z M 182.992188 196.335938 " fill-opacity="1" fill-rule="nonzero"/><path fill="#162667" d="M 192.191406 198.453125 C 190.628906 197.902344 188.972656 197.992188 188.972656 197.992188 L 188.972656 197.808594 C 188.972656 197.808594 190.628906 197.625 192.28125 198.269531 Z M 192.191406 198.453125 " fill-opacity="1" fill-rule="nonzero"/><path fill="#efc237" d="M 212.792969 172.410156 L 297.230469 172.410156 L 297.230469 178.113281 L 212.792969 178.113281 Z M 212.792969 172.410156 " fill-opacity="1" fill-rule="nonzero"/><path fill="#dce3ef" d="M 212.792969 184.648438 L 297.230469 184.648438 L 297.230469 187.042969 L 212.792969 187.042969 Z M 212.792969 184.648438 " fill-opacity="1" fill-rule="nonzero"/><path fill="#dce3ef" d="M 212.792969 191.644531 L 297.230469 191.644531 L 297.230469 194.035156 L 212.792969 194.035156 Z M 212.792969 191.644531 " fill-opacity="1" fill-rule="nonzero"/><path fill="#dce3ef" d="M 212.792969 198.636719 L 297.230469 198.636719 L 297.230469 201.03125 L 212.792969 201.03125 Z M 212.792969 198.636719 " fill-opacity="1" fill-rule="nonzero"/><path fill="#ed5540" d="M 286.746094 218.148438 L 286.746094 219.433594 L 285.644531 219.433594 L 285.644531 218.148438 C 284.539062 218.054688 283.433594 217.6875 282.792969 217.226562 L 283.433594 215.847656 C 283.988281 216.304688 284.816406 216.582031 285.644531 216.675781 L 285.644531 214.742188 C 284.355469 214.464844 282.976562 214.003906 282.976562 212.347656 C 282.976562 211.152344 283.894531 210.046875 285.644531 209.863281 L 285.644531 208.574219 L 286.746094 208.574219 L 286.746094 209.863281 C 287.574219 209.957031 288.402344 210.140625 289.046875 210.601562 L 288.496094 211.980469 C 287.941406 211.613281 287.296875 211.429688 286.746094 211.429688 L 286.746094 213.359375 C 288.035156 213.636719 289.414062 214.097656 289.414062 215.660156 C 289.414062 216.859375 288.585938 217.960938 286.746094 218.148438 Z M 285.644531 213.085938 L 285.644531 211.429688 C 285 211.519531 284.816406 211.890625 284.816406 212.257812 C 284.816406 212.71875 285.183594 212.902344 285.644531 213.085938 Z M 287.574219 215.847656 C 287.574219 215.476562 287.207031 215.203125 286.746094 215.019531 L 286.746094 216.582031 C 287.390625 216.488281 287.574219 216.214844 287.574219 215.847656 Z M 287.574219 215.847656 " fill-opacity="1" fill-rule="nonzero"/><path fill="#ed5540" d="M 294.105469 218.148438 L 294.105469 219.433594 L 293 219.433594 L 293 218.148438 C 291.898438 218.054688 290.792969 217.6875 290.148438 217.226562 L 290.792969 215.847656 C 291.34375 216.304688 292.171875 216.582031 293 216.675781 L 293 214.742188 C 291.714844 214.464844 290.332031 214.003906 290.332031 212.347656 C 290.332031 211.152344 291.253906 210.046875 293 209.863281 L 293 208.574219 L 294.105469 208.574219 L 294.105469 209.863281 C 294.933594 209.957031 295.761719 210.140625 296.40625 210.601562 L 295.851562 211.980469 C 295.300781 211.613281 294.65625 211.429688 294.105469 211.429688 L 294.105469 213.359375 C 295.394531 213.636719 296.773438 214.097656 296.773438 215.660156 C 296.773438 216.859375 295.851562 217.960938 294.105469 218.148438 Z M 292.910156 213.085938 L 292.910156 211.429688 C 292.265625 211.519531 292.082031 211.890625 292.082031 212.257812 C 292.082031 212.71875 292.449219 212.902344 292.910156 213.085938 Z M 294.933594 215.847656 C 294.933594 215.476562 294.566406 215.203125 294.105469 215.019531 L 294.105469 216.582031 C 294.65625 216.488281 294.933594 216.214844 294.933594 215.847656 Z M 294.933594 215.847656 " fill-opacity="1" fill-rule="nonzero"/><path fill="#dce3ef" d="M 197.066406 298.945312 L 157.054688 298.945312 C 154.296875 298.945312 152.085938 296.738281 152.085938 293.976562 L 152.085938 253.945312 C 152.085938 251.183594 154.296875 248.976562 157.054688 248.976562 L 197.066406 248.976562 C 199.824219 248.976562 202.03125 251.183594 202.03125 253.945312 L 202.03125 293.976562 C 202.03125 296.738281 199.824219 298.945312 197.066406 298.945312 Z M 197.066406 298.945312 " fill-opacity="1" fill-rule="nonzero"/><path fill="#162667" d="M 197.066406 299.5 L 157.054688 299.5 C 154.109375 299.5 151.628906 297.105469 151.628906 294.070312 L 151.628906 254.039062 C 151.628906 251.09375 154.019531 248.609375 157.054688 248.609375 L 197.066406 248.609375 C 200.007812 248.609375 202.492188 251 202.492188 254.039062 L 202.492188 294.070312 C 202.492188 297.011719 200.101562 299.5 197.066406 299.5 Z M 157.054688 249.527344 C 154.570312 249.527344 152.640625 251.550781 152.640625 253.945312 L 152.640625 293.976562 C 152.640625 296.460938 154.664062 298.394531 157.054688 298.394531 L 197.066406 298.394531 C 199.550781 298.394531 201.480469 296.371094 201.480469 293.976562 L 201.480469 253.945312 C 201.480469 251.460938 199.457031 249.527344 197.066406 249.527344 Z M 157.054688 249.527344 " fill-opacity="1" fill-rule="nonzero"/><path fill="#ed5540" d="M 187.777344 289.925781 L 166.527344 289.925781 L 165.882812 264.527344 L 188.511719 264.527344 Z M 187.777344 289.925781 " fill-opacity="1" fill-rule="nonzero"/><path fill="#162667" d="M 189.984375 265.910156 C 189.984375 266.199219 189.898438 266.484375 189.734375 266.769531 C 189.566406 267.054688 189.316406 267.332031 188.988281 267.597656 C 188.660156 267.867188 188.257812 268.121094 187.78125 268.363281 C 187.304688 268.605469 186.765625 268.828125 186.15625 269.03125 C 185.550781 269.238281 184.890625 269.421875 184.179688 269.582031 C 183.464844 269.742188 182.710938 269.878906 181.921875 269.988281 C 181.128906 270.101562 180.3125 270.183594 179.46875 270.242188 C 178.628906 270.296875 177.78125 270.324219 176.921875 270.324219 C 176.066406 270.324219 175.214844 270.296875 174.375 270.242188 C 173.53125 270.183594 172.714844 270.101562 171.925781 269.988281 C 171.132812 269.878906 170.378906 269.742188 169.664062 269.582031 C 168.953125 269.421875 168.292969 269.238281 167.6875 269.03125 C 167.082031 268.828125 166.539062 268.605469 166.0625 268.363281 C 165.585938 268.121094 165.183594 267.867188 164.855469 267.597656 C 164.527344 267.332031 164.28125 267.054688 164.113281 266.769531 C 163.945312 266.484375 163.859375 266.199219 163.859375 265.910156 C 163.859375 265.617188 163.945312 265.332031 164.113281 265.046875 C 164.28125 264.761719 164.527344 264.484375 164.855469 264.21875 C 165.183594 263.949219 165.585938 263.695312 166.0625 263.453125 C 166.539062 263.214844 167.082031 262.988281 167.6875 262.785156 C 168.292969 262.578125 168.953125 262.398438 169.664062 262.234375 C 170.378906 262.074219 171.132812 261.9375 171.925781 261.828125 C 172.714844 261.714844 173.53125 261.632812 174.375 261.578125 C 175.214844 261.519531 176.066406 261.492188 176.921875 261.492188 C 177.78125 261.492188 178.628906 261.519531 179.46875 261.578125 C 180.3125 261.632812 181.128906 261.714844 181.921875 261.828125 C 182.710938 261.9375 183.464844 262.074219 184.179688 262.234375 C 184.890625 262.398438 185.550781 262.578125 186.15625 262.785156 C 186.765625 262.988281 187.304688 263.214844 187.78125 263.453125 C 188.257812 263.695312 188.660156 263.949219 188.988281 264.21875 C 189.316406 264.484375 189.566406 264.761719 189.734375 265.046875 C 189.898438 265.332031 189.984375 265.617188 189.984375 265.910156 Z M 189.984375 265.910156 " fill-opacity="1" fill-rule="nonzero"/><path fill="#ffffff" d="M 188.417969 264.34375 C 188.417969 264.605469 188.347656 264.859375 188.199219 265.117188 C 188.050781 265.371094 187.832031 265.617188 187.542969 265.859375 C 187.253906 266.097656 186.902344 266.328125 186.480469 266.542969 C 186.0625 266.757812 185.585938 266.957031 185.050781 267.140625 C 184.519531 267.324219 183.9375 267.488281 183.308594 267.632812 C 182.683594 267.777344 182.019531 267.902344 181.320312 268 C 180.625 268.097656 179.90625 268.175781 179.164062 268.226562 C 178.425781 268.277344 177.675781 268.300781 176.921875 268.300781 C 176.167969 268.300781 175.417969 268.277344 174.679688 268.226562 C 173.9375 268.175781 173.21875 268.097656 172.523438 268 C 171.824219 267.902344 171.164062 267.777344 170.535156 267.632812 C 169.90625 267.488281 169.324219 267.324219 168.792969 267.140625 C 168.257812 266.957031 167.78125 266.757812 167.363281 266.542969 C 166.941406 266.328125 166.589844 266.097656 166.300781 265.859375 C 166.011719 265.617188 165.792969 265.371094 165.644531 265.117188 C 165.5 264.859375 165.425781 264.605469 165.425781 264.34375 C 165.425781 264.085938 165.5 263.828125 165.644531 263.570312 C 165.792969 263.316406 166.011719 263.070312 166.300781 262.828125 C 166.589844 262.589844 166.941406 262.363281 167.363281 262.144531 C 167.78125 261.929688 168.257812 261.730469 168.792969 261.546875 C 169.324219 261.363281 169.90625 261.199219 170.535156 261.054688 C 171.164062 260.910156 171.824219 260.789062 172.523438 260.6875 C 173.21875 260.589844 173.9375 260.515625 174.679688 260.464844 C 175.417969 260.414062 176.167969 260.386719 176.921875 260.386719 C 177.675781 260.386719 178.425781 260.414062 179.164062 260.464844 C 179.90625 260.515625 180.625 260.589844 181.320312 260.6875 C 182.019531 260.789062 182.683594 260.910156 183.308594 261.054688 C 183.9375 261.199219 184.519531 261.363281 185.050781 261.546875 C 185.585938 261.730469 186.0625 261.929688 186.480469 262.144531 C 186.902344 262.363281 187.253906 262.589844 187.542969 262.828125 C 187.832031 263.070312 188.050781 263.316406 188.199219 263.570312 C 188.347656 263.828125 188.417969 264.085938 188.417969 264.34375 Z M 188.417969 264.34375 " fill-opacity="1" fill-rule="nonzero"/><path fill="#162667" d="M 184.554688 264.160156 C 184.554688 264.222656 184.519531 264.28125 184.445312 264.335938 C 184.371094 264.390625 184.261719 264.441406 184.125 264.484375 C 183.988281 264.527344 183.828125 264.5625 183.648438 264.585938 C 183.46875 264.609375 183.28125 264.621094 183.085938 264.621094 C 182.890625 264.621094 182.703125 264.609375 182.523438 264.585938 C 182.339844 264.5625 182.183594 264.527344 182.042969 264.484375 C 181.90625 264.441406 181.800781 264.390625 181.726562 264.335938 C 181.652344 264.28125 181.613281 264.222656 181.613281 264.160156 C 181.613281 264.097656 181.652344 264.039062 181.726562 263.984375 C 181.800781 263.925781 181.90625 263.878906 182.042969 263.835938 C 182.183594 263.792969 182.339844 263.757812 182.523438 263.734375 C 182.703125 263.710938 182.890625 263.699219 183.085938 263.699219 C 183.28125 263.699219 183.46875 263.710938 183.648438 263.734375 C 183.828125 263.757812 183.988281 263.792969 184.125 263.835938 C 184.261719 263.878906 184.371094 263.925781 184.445312 263.984375 C 184.519531 264.039062 184.554688 264.097656 184.554688 264.160156 Z M 184.554688 264.160156 " fill-opacity="1" fill-rule="nonzero"/><path fill="#ed5540" d="M 187.777344 289.925781 C 187.777344 290.132812 187.707031 290.335938 187.574219 290.539062 C 187.4375 290.738281 187.238281 290.933594 186.972656 291.125 C 186.703125 291.316406 186.378906 291.496094 185.992188 291.664062 C 185.605469 291.835938 185.167969 291.996094 184.679688 292.140625 C 184.1875 292.285156 183.652344 292.414062 183.074219 292.527344 C 182.496094 292.644531 181.886719 292.738281 181.246094 292.816406 C 180.605469 292.898438 179.941406 292.957031 179.261719 292.996094 C 178.582031 293.035156 177.894531 293.054688 177.199219 293.054688 C 176.503906 293.054688 175.816406 293.035156 175.132812 292.996094 C 174.453125 292.957031 173.792969 292.898438 173.148438 292.816406 C 172.507812 292.738281 171.898438 292.644531 171.320312 292.527344 C 170.742188 292.414062 170.210938 292.285156 169.71875 292.140625 C 169.226562 291.996094 168.789062 291.835938 168.402344 291.664062 C 168.015625 291.496094 167.691406 291.316406 167.425781 291.125 C 167.160156 290.933594 166.960938 290.738281 166.824219 290.539062 C 166.6875 290.335938 166.621094 290.132812 166.621094 289.925781 C 166.621094 289.722656 166.6875 289.519531 166.824219 289.316406 C 166.960938 289.117188 167.160156 288.921875 167.425781 288.730469 C 167.691406 288.539062 168.015625 288.359375 168.402344 288.1875 C 168.789062 288.019531 169.226562 287.859375 169.71875 287.714844 C 170.210938 287.570312 170.742188 287.441406 171.320312 287.324219 C 171.898438 287.210938 172.507812 287.117188 173.148438 287.035156 C 173.792969 286.957031 174.453125 286.898438 175.132812 286.859375 C 175.816406 286.820312 176.503906 286.796875 177.199219 286.796875 C 177.894531 286.796875 178.582031 286.820312 179.261719 286.859375 C 179.941406 286.898438 180.605469 286.957031 181.246094 287.035156 C 181.886719 287.117188 182.496094 287.210938 183.074219 287.324219 C 183.652344 287.441406 184.1875 287.570312 184.679688 287.714844 C 185.167969 287.859375 185.605469 288.019531 185.992188 288.1875 C 186.378906 288.359375 186.703125 288.539062 186.972656 288.730469 C 187.238281 288.921875 187.4375 289.117188 187.574219 289.316406 C 187.707031 289.519531 187.777344 289.722656 187.777344 289.925781 Z M 187.777344 289.925781 " fill-opacity="1" fill-rule="nonzero"/><path fill="#ffffff" d="M 182.164062 279.4375 C 182.164062 279.761719 182.132812 280.085938 182.070312 280.40625 C 182.007812 280.726562 181.910156 281.035156 181.785156 281.339844 C 181.664062 281.640625 181.507812 281.925781 181.328125 282.199219 C 181.148438 282.46875 180.941406 282.71875 180.710938 282.949219 C 180.480469 283.179688 180.230469 283.386719 179.957031 283.570312 C 179.6875 283.75 179.398438 283.902344 179.097656 284.027344 C 178.796875 284.152344 178.488281 284.246094 178.167969 284.308594 C 177.847656 284.375 177.523438 284.40625 177.199219 284.40625 C 176.871094 284.40625 176.550781 284.375 176.230469 284.308594 C 175.910156 284.246094 175.597656 284.152344 175.296875 284.027344 C 174.996094 283.902344 174.710938 283.75 174.4375 283.570312 C 174.167969 283.386719 173.917969 283.179688 173.6875 282.949219 C 173.457031 282.71875 173.25 282.46875 173.066406 282.199219 C 172.886719 281.925781 172.734375 281.640625 172.609375 281.339844 C 172.484375 281.035156 172.390625 280.726562 172.328125 280.40625 C 172.261719 280.085938 172.230469 279.761719 172.230469 279.4375 C 172.230469 279.109375 172.261719 278.785156 172.328125 278.46875 C 172.390625 278.148438 172.484375 277.835938 172.609375 277.535156 C 172.734375 277.234375 172.886719 276.945312 173.066406 276.675781 C 173.25 276.40625 173.457031 276.152344 173.6875 275.921875 C 173.917969 275.691406 174.167969 275.484375 174.4375 275.304688 C 174.710938 275.125 174.996094 274.96875 175.296875 274.84375 C 175.597656 274.71875 175.910156 274.625 176.230469 274.5625 C 176.550781 274.5 176.871094 274.46875 177.199219 274.46875 C 177.523438 274.46875 177.847656 274.5 178.167969 274.5625 C 178.488281 274.625 178.796875 274.71875 179.097656 274.84375 C 179.398438 274.96875 179.6875 275.125 179.957031 275.304688 C 180.230469 275.484375 180.480469 275.691406 180.710938 275.921875 C 180.941406 276.152344 181.148438 276.40625 181.328125 276.675781 C 181.507812 276.945312 181.664062 277.234375 181.785156 277.535156 C 181.910156 277.835938 182.007812 278.148438 182.070312 278.46875 C 182.132812 278.785156 182.164062 279.109375 182.164062 279.4375 Z M 182.164062 279.4375 " fill-opacity="1" fill-rule="nonzero"/><path fill="#162667" d="M 183.453125 264.160156 L 182.71875 264.160156 L 183.542969 254.679688 L 190.167969 254.679688 L 190.167969 255.324219 L 184.1875 255.324219 Z M 183.453125 264.160156 " fill-opacity="1" fill-rule="nonzero"/><path fill="#efc237" d="M 212.792969 250.449219 L 297.230469 250.449219 L 297.230469 256.152344 L 212.792969 256.152344 Z M 212.792969 250.449219 " fill-opacity="1" fill-rule="nonzero"/><path fill="#dce3ef" d="M 212.792969 262.6875 L 297.230469 262.6875 L 297.230469 265.082031 L 212.792969 265.082031 Z M 212.792969 262.6875 " fill-opacity="1" fill-rule="nonzero"/><path fill="#dce3ef" d="M 212.792969 269.683594 L 297.230469 269.683594 L 297.230469 272.074219 L 212.792969 272.074219 Z M 212.792969 269.683594 " fill-opacity="1" fill-rule="nonzero"/><path fill="#dce3ef" d="M 212.792969 276.675781 L 297.230469 276.675781 L 297.230469 279.070312 L 212.792969 279.070312 Z M 212.792969 276.675781 " fill-opacity="1" fill-rule="nonzero"/><path fill="#ed5540" d="M 286.746094 296.183594 L 286.746094 297.472656 L 285.644531 297.472656 L 285.644531 296.183594 C 284.539062 296.09375 283.433594 295.726562 282.792969 295.265625 L 283.433594 293.882812 C 283.988281 294.34375 284.816406 294.621094 285.644531 294.714844 L 285.644531 292.78125 C 284.355469 292.503906 282.976562 292.042969 282.976562 290.386719 C 282.976562 289.191406 283.894531 288.085938 285.644531 287.902344 L 285.644531 286.613281 L 286.746094 286.613281 L 286.746094 287.902344 C 287.574219 287.996094 288.402344 288.179688 289.046875 288.640625 L 288.496094 290.019531 C 287.941406 289.652344 287.296875 289.46875 286.746094 289.46875 L 286.746094 291.398438 C 288.035156 291.675781 289.414062 292.136719 289.414062 293.699219 C 289.414062 294.988281 288.585938 296 286.746094 296.183594 Z M 285.644531 291.125 L 285.644531 289.46875 C 285 289.558594 284.816406 289.925781 284.816406 290.296875 C 284.816406 290.757812 285.183594 290.941406 285.644531 291.125 Z M 287.574219 293.882812 C 287.574219 293.515625 287.207031 293.242188 286.746094 293.054688 L 286.746094 294.621094 C 287.390625 294.527344 287.574219 294.253906 287.574219 293.882812 Z M 287.574219 293.882812 " fill-opacity="1" fill-rule="nonzero"/><path fill="#ed5540" d="M 294.105469 296.183594 L 294.105469 297.472656 L 293 297.472656 L 293 296.183594 C 291.898438 296.09375 290.792969 295.726562 290.148438 295.265625 L 290.792969 293.882812 C 291.34375 294.34375 292.171875 294.621094 293 294.714844 L 293 292.78125 C 291.714844 292.503906 290.332031 292.042969 290.332031 290.386719 C 290.332031 289.191406 291.253906 288.085938 293 287.902344 L 293 286.613281 L 294.105469 286.613281 L 294.105469 287.902344 C 294.933594 287.996094 295.761719 288.179688 296.40625 288.640625 L 295.851562 290.019531 C 295.300781 289.652344 294.65625 289.46875 294.105469 289.46875 L 294.105469 291.398438 C 295.394531 291.675781 296.773438 292.136719 296.773438 293.699219 C 296.773438 294.988281 295.851562 296 294.105469 296.183594 Z M 292.910156 291.125 L 292.910156 289.46875 C 292.265625 289.558594 292.082031 289.925781 292.082031 290.296875 C 292.082031 290.757812 292.449219 290.941406 292.910156 291.125 Z M 294.933594 293.882812 C 294.933594 293.515625 294.566406 293.242188 294.105469 293.054688 L 294.105469 294.621094 C 294.65625 294.527344 294.933594 294.253906 294.933594 293.882812 Z M 294.933594 293.882812 " fill-opacity="1" fill-rule="nonzero"/><path fill="#162667" d="M 150.984375 158.789062 L 298.613281 158.789062 L 298.613281 159.527344 L 150.984375 159.527344 Z M 150.984375 158.789062 " fill-opacity="1" fill-rule="nonzero"/><path fill="#162667" d="M 150.984375 234.621094 L 298.613281 234.621094 L 298.613281 235.355469 L 150.984375 235.355469 Z M 150.984375 234.621094 " fill-opacity="1" fill-rule="nonzero"/><path fill="#ed5540" d="M 254.460938 333.640625 L 201.941406 333.640625 C 196.605469 333.640625 192.28125 329.316406 192.28125 323.976562 C 192.28125 318.640625 196.605469 314.316406 201.941406 314.316406 L 254.460938 314.316406 C 259.796875 314.316406 264.121094 318.640625 264.121094 323.976562 C 264.121094 329.316406 259.796875 333.640625 254.460938 333.640625 Z M 254.460938 333.640625 " fill-opacity="1" fill-rule="nonzero"/><path fill="#ffffff" d="M 208.378906 327.75 C 206.078125 327.75 204.242188 326.003906 204.242188 323.609375 C 204.242188 321.214844 206.078125 319.46875 208.378906 319.46875 C 210.679688 319.46875 212.519531 321.125 212.519531 323.609375 C 212.519531 326.09375 210.679688 327.75 208.378906 327.75 Z M 208.378906 326.003906 C 209.667969 326.003906 210.496094 325.082031 210.496094 323.703125 C 210.496094 322.230469 209.667969 321.402344 208.378906 321.402344 C 207.09375 321.402344 206.265625 322.320312 206.265625 323.703125 C 206.265625 325.082031 207.089844 326.003906 208.378906 326.003906 Z M 208.378906 326.003906 " fill-opacity="1" fill-rule="nonzero"/><path fill="#ffffff" d="M 218.039062 319.652344 C 219.96875 319.652344 220.980469 320.757812 220.980469 322.230469 C 220.980469 323.242188 220.429688 324.160156 219.234375 324.53125 L 221.074219 327.75 L 218.867188 327.75 L 217.210938 324.714844 L 216.75 324.714844 L 216.75 327.75 L 214.816406 327.75 L 214.816406 319.746094 L 218.039062 319.746094 Z M 217.945312 321.308594 L 216.75 321.308594 L 216.75 323.332031 L 217.945312 323.332031 C 218.679688 323.332031 219.050781 322.964844 219.050781 322.320312 C 219.050781 321.675781 218.679688 321.308594 217.945312 321.308594 Z M 217.945312 321.308594 " fill-opacity="1" fill-rule="nonzero"/><path fill="#ffffff" d="M 230.640625 323.703125 C 230.640625 326.09375 228.984375 327.75 226.40625 327.75 L 223.371094 327.75 L 223.371094 319.746094 L 226.40625 319.746094 C 228.984375 319.652344 230.640625 321.308594 230.640625 323.703125 Z M 226.222656 326.003906 C 227.695312 326.003906 228.613281 325.175781 228.613281 323.703125 C 228.613281 322.230469 227.789062 321.308594 226.222656 321.308594 L 225.304688 321.308594 L 225.304688 326.003906 Z M 226.222656 326.003906 " fill-opacity="1" fill-rule="nonzero"/><path fill="#ffffff" d="M 237.722656 321.214844 L 234.777344 321.214844 L 234.777344 322.875 L 237.445312 322.875 L 237.445312 324.34375 L 234.777344 324.34375 L 234.777344 326.09375 L 237.722656 326.09375 L 237.722656 327.660156 L 232.753906 327.660156 L 232.753906 319.652344 L 237.722656 319.652344 Z M 237.722656 321.214844 " fill-opacity="1" fill-rule="nonzero"/><path fill="#ffffff" d="M 243.425781 319.652344 C 245.355469 319.652344 246.367188 320.757812 246.367188 322.230469 C 246.367188 323.242188 245.816406 324.160156 244.621094 324.53125 L 246.460938 327.75 L 244.25 327.75 L 242.597656 324.714844 L 242.136719 324.714844 L 242.136719 327.75 L 240.203125 327.75 L 240.203125 319.746094 L 243.425781 319.746094 Z M 243.332031 321.308594 L 242.136719 321.308594 L 242.136719 323.332031 L 243.332031 323.332031 C 244.066406 323.332031 244.4375 322.964844 244.4375 322.320312 C 244.4375 321.675781 244.066406 321.308594 243.332031 321.308594 Z M 243.332031 321.308594 " fill-opacity="1" fill-rule="nonzero"/><path fill="#162667" d="M 95.519531 348.179688 L 367.6875 348.179688 L 367.6875 350.296875 L 95.519531 350.296875 Z M 95.519531 348.179688 " fill-opacity="1" fill-rule="nonzero"/><g clip-path="url(#2e236ffa8c)"><path fill="#162667" d="M 94.324219 362.996094 C 94.324219 363.320312 94.28125 363.640625 94.191406 363.960938 C 94.105469 364.28125 93.972656 364.601562 93.796875 364.917969 C 93.621094 365.234375 93.40625 365.546875 93.144531 365.855469 C 92.882812 366.164062 92.582031 366.46875 92.238281 366.765625 C 91.894531 367.0625 91.511719 367.355469 91.085938 367.636719 C 90.664062 367.921875 90.203125 368.199219 89.703125 368.46875 C 89.207031 368.734375 88.671875 368.996094 88.101562 369.242188 C 87.53125 369.492188 86.929688 369.730469 86.296875 369.960938 C 85.660156 370.1875 84.996094 370.402344 84.300781 370.609375 C 83.609375 370.8125 82.886719 371.003906 82.140625 371.183594 C 81.394531 371.363281 80.625 371.527344 79.835938 371.679688 C 79.042969 371.832031 78.234375 371.972656 77.402344 372.09375 C 76.574219 372.21875 75.730469 372.324219 74.871094 372.417969 C 74.011719 372.511719 73.140625 372.589844 72.261719 372.65625 C 71.382812 372.71875 70.492188 372.765625 69.601562 372.796875 C 68.707031 372.828125 67.8125 372.84375 66.914062 372.84375 C 66.015625 372.84375 65.121094 372.828125 64.226562 372.796875 C 63.332031 372.765625 62.445312 372.71875 61.566406 372.65625 C 60.6875 372.589844 59.816406 372.511719 58.957031 372.417969 C 58.097656 372.324219 57.253906 372.21875 56.425781 372.09375 C 55.59375 371.972656 54.785156 371.832031 53.992188 371.679688 C 53.199219 371.527344 52.433594 371.363281 51.6875 371.183594 C 50.9375 371.003906 50.21875 370.8125 49.523438 370.609375 C 48.832031 370.402344 48.167969 370.1875 47.53125 369.960938 C 46.898438 369.730469 46.296875 369.492188 45.726562 369.242188 C 45.15625 368.996094 44.621094 368.734375 44.125 368.46875 C 43.625 368.199219 43.164062 367.921875 42.742188 367.636719 C 42.316406 367.355469 41.933594 367.0625 41.589844 366.765625 C 41.246094 366.46875 40.945312 366.164062 40.683594 365.855469 C 40.421875 365.546875 40.207031 365.234375 40.03125 364.917969 C 39.855469 364.601562 39.722656 364.28125 39.636719 363.960938 C 39.546875 363.640625 39.503906 363.320312 39.503906 362.996094 C 39.503906 362.675781 39.546875 362.351562 39.636719 362.03125 C 39.722656 361.710938 39.855469 361.390625 40.03125 361.074219 C 40.207031 360.757812 40.421875 360.445312 40.683594 360.136719 C 40.945312 359.828125 41.246094 359.527344 41.589844 359.230469 C 41.933594 358.929688 42.316406 358.640625 42.742188 358.355469 C 43.164062 358.070312 43.625 357.792969 44.125 357.527344 C 44.621094 357.257812 45.15625 357 45.726562 356.75 C 46.296875 356.5 46.898438 356.261719 47.53125 356.035156 C 48.167969 355.804688 48.832031 355.589844 49.523438 355.386719 C 50.21875 355.179688 50.9375 354.988281 51.6875 354.808594 C 52.433594 354.628906 53.199219 354.464844 53.992188 354.3125 C 54.785156 354.160156 55.59375 354.023438 56.425781 353.898438 C 57.253906 353.777344 58.097656 353.667969 58.957031 353.574219 C 59.816406 353.480469 60.6875 353.402344 61.566406 353.339844 C 62.445312 353.277344 63.332031 353.230469 64.226562 353.199219 C 65.121094 353.164062 66.015625 353.148438 66.914062 353.148438 C 67.8125 353.148438 68.707031 353.164062 69.601562 353.199219 C 70.492188 353.230469 71.382812 353.277344 72.261719 353.339844 C 73.140625 353.402344 74.011719 353.480469 74.871094 353.574219 C 75.730469 353.667969 76.574219 353.777344 77.402344 353.898438 C 78.234375 354.023438 79.042969 354.160156 79.835938 354.3125 C 80.625 354.464844 81.394531 354.628906 82.140625 354.808594 C 82.886719 354.988281 83.609375 355.179688 84.300781 355.386719 C 84.996094 355.589844 85.660156 355.804688 86.296875 356.035156 C 86.929688 356.261719 87.53125 356.5 88.101562 356.75 C 88.671875 357 89.207031 357.257812 89.703125 357.527344 C 90.203125 357.792969 90.664062 358.070312 91.085938 358.355469 C 91.511719 358.640625 91.894531 358.929688 92.238281 359.230469 C 92.582031 359.527344 92.882812 359.828125 93.144531 360.136719 C 93.40625 360.445312 93.621094 360.757812 93.796875 361.074219 C 93.972656 361.390625 94.105469 361.710938 94.191406 362.03125 C 94.28125 362.351562 94.324219 362.675781 94.324219 362.996094 Z M 94.324219 362.996094 " fill-opacity="1" fill-rule="nonzero"/></g><path fill="#162667" d="M 67.742188 336.675781 C 57.347656 336.675781 46.402344 333.546875 46.402344 327.660156 C 46.402344 321.769531 57.441406 318.640625 67.742188 318.640625 C 78.136719 318.640625 89.082031 321.769531 89.082031 327.660156 C 89.082031 333.546875 78.042969 336.675781 67.742188 336.675781 Z M 67.742188 321.859375 C 56.613281 321.859375 49.621094 325.265625 49.621094 327.660156 C 49.621094 330.050781 56.703125 333.457031 67.742188 333.457031 C 78.871094 333.457031 85.863281 330.050781 85.863281 327.660156 C 85.863281 325.265625 78.78125 321.859375 67.742188 321.859375 Z M 67.742188 321.859375 " fill-opacity="1" fill-rule="nonzero"/><path fill="#162667" d="M 63.417969 267.65625 L 70.042969 267.65625 L 70.042969 363.179688 L 63.417969 363.179688 Z M 63.417969 267.65625 " fill-opacity="1" fill-rule="nonzero"/><path fill="#162667" d="M 48.914062 328.378906 L 48.957031 327 L 64.21875 327.464844 L 64.175781 328.84375 Z M 48.914062 328.378906 " fill-opacity="1" fill-rule="nonzero"/><path fill="#162667" d="M 79.101562 224.835938 C 80.25 225.386719 81.378906 225.976562 82.480469 226.605469 C 83.585938 227.238281 84.664062 227.90625 85.710938 228.609375 C 86.757812 229.316406 87.773438 230.054688 88.757812 230.824219 C 89.738281 231.597656 90.683594 232.402344 91.589844 233.234375 C 92.5 234.066406 93.363281 234.925781 94.1875 235.8125 C 95.007812 236.695312 95.785156 237.601562 96.515625 238.53125 C 97.246094 239.460938 97.925781 240.40625 98.558594 241.371094 C 99.191406 242.332031 99.769531 243.308594 100.292969 244.296875 C 100.820312 245.285156 101.292969 246.28125 101.707031 247.289062 C 102.125 248.292969 102.480469 249.300781 102.785156 250.3125 C 103.085938 251.324219 103.328125 252.332031 103.511719 253.339844 C 103.695312 254.347656 103.820312 255.347656 103.886719 256.339844 C 103.953125 257.335938 103.957031 258.320312 103.902344 259.289062 C 103.847656 260.261719 103.734375 261.21875 103.5625 262.15625 C 103.386719 263.097656 103.15625 264.015625 102.867188 264.914062 C 102.574219 265.8125 102.226562 266.683594 101.820312 267.53125 C 101.414062 268.382812 100.953125 269.199219 100.4375 269.992188 C 99.921875 270.78125 99.351562 271.539062 98.730469 272.261719 C 98.109375 272.988281 97.4375 273.675781 96.714844 274.328125 C 95.992188 274.980469 95.226562 275.59375 94.410156 276.167969 C 93.597656 276.738281 92.738281 277.269531 91.839844 277.761719 C 90.941406 278.25 90.003906 278.691406 89.027344 279.09375 C 88.050781 279.492188 87.042969 279.847656 86 280.152344 C 84.957031 280.460938 83.886719 280.71875 82.785156 280.929688 C 81.6875 281.140625 80.5625 281.300781 79.417969 281.414062 C 78.269531 281.527344 77.109375 281.59375 75.925781 281.605469 C 74.746094 281.621094 73.550781 281.585938 72.347656 281.5 C 71.144531 281.414062 69.929688 281.28125 68.714844 281.097656 C 67.496094 280.914062 66.28125 280.679688 65.0625 280.402344 C 63.84375 280.121094 62.632812 279.792969 61.425781 279.417969 C 60.21875 279.046875 59.023438 278.625 57.839844 278.164062 C 56.65625 277.699219 55.488281 277.191406 54.339844 276.640625 C 53.191406 276.089844 52.0625 275.5 50.957031 274.871094 C 49.855469 274.238281 48.777344 273.570312 47.730469 272.867188 C 46.679688 272.164062 45.664062 271.421875 44.683594 270.652344 C 43.699219 269.878906 42.757812 269.074219 41.847656 268.242188 C 40.941406 267.410156 40.078125 266.550781 39.253906 265.664062 C 38.433594 264.78125 37.65625 263.875 36.925781 262.945312 C 36.195312 262.015625 35.511719 261.070312 34.882812 260.105469 C 34.25 259.144531 33.671875 258.167969 33.144531 257.179688 C 32.621094 256.191406 32.148438 255.195312 31.734375 254.1875 C 31.316406 253.183594 30.957031 252.175781 30.65625 251.164062 C 30.355469 250.15625 30.113281 249.144531 29.929688 248.136719 C 29.742188 247.128906 29.617188 246.128906 29.554688 245.136719 C 29.488281 244.140625 29.484375 243.15625 29.539062 242.1875 C 29.589844 241.214844 29.707031 240.257812 29.878906 239.320312 C 30.050781 238.382812 30.285156 237.460938 30.574219 236.5625 C 30.867188 235.664062 31.214844 234.792969 31.621094 233.945312 C 32.023438 233.097656 32.484375 232.277344 33.003906 231.484375 C 33.519531 230.695312 34.085938 229.9375 34.710938 229.214844 C 35.332031 228.488281 36.003906 227.800781 36.726562 227.148438 C 37.445312 226.496094 38.214844 225.882812 39.03125 225.308594 C 39.84375 224.738281 40.703125 224.207031 41.601562 223.714844 C 42.5 223.226562 43.4375 222.785156 44.414062 222.382812 C 45.390625 221.984375 46.398438 221.628906 47.441406 221.324219 C 48.484375 221.015625 49.554688 220.757812 50.65625 220.546875 C 51.753906 220.335938 52.878906 220.175781 54.023438 220.0625 C 55.167969 219.949219 56.332031 219.882812 57.515625 219.871094 C 58.695312 219.855469 59.886719 219.890625 61.09375 219.976562 C 62.296875 220.0625 63.507812 220.195312 64.726562 220.378906 C 65.945312 220.5625 67.160156 220.796875 68.378906 221.074219 C 69.597656 221.355469 70.808594 221.683594 72.015625 222.058594 C 73.222656 222.429688 74.417969 222.851562 75.601562 223.3125 C 76.785156 223.777344 77.953125 224.285156 79.101562 224.835938 Z M 79.101562 224.835938 " fill-opacity="1" fill-rule="nonzero"/><path fill="#162667" d="M 67.742188 336.675781 C 57.347656 336.675781 46.402344 333.546875 46.402344 327.660156 L 49.621094 327.660156 C 49.621094 330.050781 56.703125 333.457031 67.742188 333.457031 C 78.871094 333.457031 85.863281 330.050781 85.863281 327.660156 L 89.082031 327.660156 C 89.082031 333.457031 78.042969 336.675781 67.742188 336.675781 Z M 67.742188 336.675781 " fill-opacity="1" fill-rule="nonzero"/><path fill="#efc237" d="M 138.382812 360.050781 C 132.585938 364.285156 122.835938 355.910156 122.378906 354.070312 C 121.917969 352.230469 121.550781 345.417969 120.261719 343.855469 C 118.976562 342.199219 117.136719 339.253906 117.59375 337.597656 C 117.777344 336.953125 117.871094 336.125 117.964844 335.203125 C 118.148438 333.457031 118.332031 331.707031 118.332031 331.707031 L 127.710938 330.511719 C 127.710938 330.511719 131.023438 339.53125 133.230469 346.15625 C 133.785156 347.90625 134.886719 349.46875 135.992188 350.847656 C 139.027344 354.4375 142.613281 357.015625 138.382812 360.050781 Z M 138.382812 360.050781 " fill-opacity="1" fill-rule="nonzero"/><path fill="#ed5540" d="M 118.140625 339.222656 L 120.253906 339.296875 L 119.90625 349.230469 L 117.792969 349.15625 Z M 118.140625 339.222656 " fill-opacity="1" fill-rule="nonzero"/><path fill="#ed5540" d="M 138.382812 360.050781 C 132.585938 364.285156 122.835938 355.910156 122.378906 354.070312 C 121.917969 352.230469 121.550781 345.417969 120.261719 343.855469 C 118.976562 342.199219 117.136719 339.253906 117.59375 337.597656 C 117.777344 336.953125 117.871094 336.125 117.964844 335.203125 C 119.160156 337.230469 122.011719 342.382812 122.652344 344.316406 C 123.480469 346.800781 123.390625 353.976562 129.277344 354.164062 C 133.691406 354.347656 135.625 352.875 135.898438 350.757812 C 139.027344 354.4375 142.613281 357.015625 138.382812 360.050781 Z M 138.382812 360.050781 " fill-opacity="1" fill-rule="nonzero"/><path fill="#efc237" d="M 146.9375 259.375 C 149.695312 265.910156 138.199219 303.273438 127.34375 335.113281 L 117.964844 333.917969 C 117.964844 333.917969 122.652344 281.554688 127.710938 265.265625 C 131.484375 253.484375 145.1875 255.234375 146.9375 259.375 Z M 146.9375 259.375 " fill-opacity="1" fill-rule="nonzero"/><path fill="#efc237" d="M 85.308594 256.707031 C 103.890625 267.289062 120.722656 272.71875 122.929688 268.851562 C 125.136719 264.988281 111.890625 253.207031 93.3125 242.535156 C 74.730469 231.949219 57.898438 226.519531 55.691406 230.386719 C 53.484375 234.25 66.730469 246.03125 85.308594 256.707031 Z M 85.308594 256.707031 " fill-opacity="1" fill-rule="nonzero"/><path fill="#efc237" d="M 118.882812 270.878906 C 118.882812 270.878906 100.300781 288.546875 77.492188 320.664062 L 83.285156 329.5 C 83.285156 329.5 135.898438 285.96875 138.105469 275.753906 C 139.945312 267.105469 135.164062 262.320312 129.738281 262.410156 C 122.652344 262.59375 118.882812 270.878906 118.882812 270.878906 Z M 118.882812 270.878906 " fill-opacity="1" fill-rule="nonzero"/><path fill="#162667" d="M 123.664062 293.699219 C 123.574219 293.699219 123.574219 293.699219 123.574219 293.609375 C 123.480469 293.515625 123.480469 293.425781 123.574219 293.332031 C 132.496094 284.496094 137.371094 278.515625 138.015625 275.664062 C 138.933594 271.523438 138.289062 267.839844 136.265625 265.449219 C 134.703125 263.515625 132.3125 262.503906 129.828125 262.59375 C 129.738281 262.59375 129.644531 262.503906 129.644531 262.410156 C 129.644531 262.320312 129.738281 262.226562 129.828125 262.226562 C 132.496094 262.136719 134.886719 263.238281 136.542969 265.265625 C 138.660156 267.75 139.300781 271.523438 138.382812 275.847656 C 137.738281 278.792969 132.863281 284.867188 123.851562 293.699219 C 123.757812 293.699219 123.757812 293.699219 123.664062 293.699219 Z M 123.664062 293.699219 " fill-opacity="1" fill-rule="nonzero"/><path fill="#efc237" d="M 71.054688 354.898438 C 63.96875 353.609375 63.234375 340.820312 64.246094 339.160156 C 65.257812 337.503906 69.855469 332.535156 70.132812 330.511719 C 70.410156 328.394531 71.238281 325.082031 72.800781 324.253906 C 73.351562 323.976562 74.089844 323.425781 74.824219 322.875 C 76.203125 321.859375 77.582031 320.664062 77.582031 320.664062 L 84.941406 326.554688 C 84.941406 326.554688 80.804688 335.203125 77.492188 341.371094 C 76.664062 343.027344 76.296875 344.867188 76.019531 346.617188 C 75.558594 351.402344 76.203125 355.820312 71.054688 354.898438 Z M 71.054688 354.898438 " fill-opacity="1" fill-rule="nonzero"/><path fill="#ed5540" d="M 71.957031 325.925781 L 73.375 327.5 L 65.992188 334.152344 L 64.578125 332.578125 Z M 71.957031 325.925781 " fill-opacity="1" fill-rule="nonzero"/><path fill="#ed5540" d="M 71.054688 354.898438 C 63.96875 353.609375 63.234375 340.820312 64.246094 339.160156 C 65.257812 337.503906 69.855469 332.535156 70.132812 330.511719 C 70.410156 328.394531 71.238281 325.082031 72.800781 324.253906 C 73.351562 323.976562 74.089844 323.425781 74.824219 322.875 C 74.179688 325.175781 72.523438 330.789062 71.511719 332.628906 C 70.316406 334.929688 65.074219 339.898438 69.03125 344.222656 C 71.972656 347.535156 74.363281 347.90625 76.019531 346.707031 C 75.558594 351.402344 76.203125 355.820312 71.054688 354.898438 Z M 71.054688 354.898438 " fill-opacity="1" fill-rule="nonzero"/><path fill="#ffffff" d="M 52.75 227.535156 C 52.75 227.535156 47.230469 253.578125 63.144531 263.332031 C 79.054688 273.085938 107.109375 283.117188 107.109375 283.117188 C 107.109375 283.117188 126.332031 276.492188 146.109375 258.179688 C 146.109375 258.179688 142.707031 253.484375 124.953125 242.074219 C 112.261719 233.976562 100.394531 226.707031 100.394531 226.707031 Z M 52.75 227.535156 " fill-opacity="1" fill-rule="nonzero"/><path fill="#efc237" d="M 89.355469 161.640625 C 87.242188 163.296875 86.414062 166.152344 87.058594 168.820312 C 89.632812 180.601562 98.921875 226.246094 107.753906 224.863281 C 118.054688 223.207031 106.558594 182.808594 102.417969 173.328125 C 98.921875 165.324219 94.507812 157.683594 89.355469 161.640625 Z M 89.355469 161.640625 " fill-opacity="1" fill-rule="nonzero"/><path fill="#162667" d="M 97.359375 167.714844 C 75.46875 183.730469 54.40625 177.195312 48.058594 169.832031 C 49.714844 161.367188 56.519531 133.296875 58.175781 126.394531 C 63.050781 106.519531 79.515625 113.511719 79.515625 113.511719 C 100.300781 111.394531 97.636719 151.242188 97.359375 167.714844 Z M 97.359375 167.714844 " fill-opacity="1" fill-rule="nonzero"/><path fill="#efc237" d="M 84.113281 159.433594 C 84.113281 159.433594 77.125 167.070312 77.03125 167.070312 C 76.847656 167.070312 59.1875 159.984375 64.796875 160.167969 C 68.386719 160.355469 69.582031 156.765625 70.042969 154.1875 C 70.132812 153.726562 70.226562 153.269531 70.226562 152.808594 C 70.226562 152.53125 70.316406 152.253906 70.316406 151.980469 C 70.316406 151.609375 70.316406 151.425781 70.316406 151.425781 C 70.316406 151.425781 81.171875 150.414062 82.550781 153.636719 C 82.640625 153.820312 82.734375 154.097656 82.734375 154.371094 C 82.734375 155.199219 82.734375 155.9375 82.828125 156.582031 C 82.917969 157.132812 83.011719 157.5 83.101562 157.867188 C 83.46875 159.15625 84.113281 159.433594 84.113281 159.433594 Z M 84.113281 159.433594 " fill-opacity="1" fill-rule="nonzero"/><path fill="#efc237" d="M 91.65625 136.242188 C 91.65625 145.078125 87.792969 156.488281 78.964844 156.488281 C 70.132812 156.488281 65.902344 146.273438 65.902344 137.4375 C 65.902344 128.605469 66.914062 120.230469 75.742188 120.230469 C 84.574219 120.230469 91.65625 127.410156 91.65625 136.242188 Z M 91.65625 136.242188 " fill-opacity="1" fill-rule="nonzero"/><path fill="#162667" d="M 87.425781 139.648438 C 87.425781 139.867188 87.402344 140.078125 87.355469 140.28125 C 87.308594 140.484375 87.242188 140.664062 87.15625 140.820312 C 87.070312 140.972656 86.96875 141.09375 86.859375 141.179688 C 86.746094 141.261719 86.628906 141.304688 86.503906 141.304688 C 86.382812 141.304688 86.265625 141.261719 86.152344 141.179688 C 86.039062 141.09375 85.941406 140.972656 85.855469 140.820312 C 85.769531 140.664062 85.703125 140.484375 85.65625 140.28125 C 85.609375 140.078125 85.585938 139.867188 85.585938 139.648438 C 85.585938 139.429688 85.609375 139.21875 85.65625 139.015625 C 85.703125 138.8125 85.769531 138.632812 85.855469 138.476562 C 85.941406 138.320312 86.039062 138.203125 86.152344 138.117188 C 86.265625 138.035156 86.382812 137.992188 86.503906 137.992188 C 86.628906 137.992188 86.746094 138.035156 86.859375 138.117188 C 86.96875 138.203125 87.070312 138.320312 87.15625 138.476562 C 87.242188 138.632812 87.308594 138.8125 87.355469 139.015625 C 87.402344 139.21875 87.425781 139.429688 87.425781 139.648438 Z M 87.425781 139.648438 " fill-opacity="1" fill-rule="nonzero"/><path fill="#162667" d="M 76.296875 139.648438 C 76.296875 139.867188 76.273438 140.078125 76.226562 140.28125 C 76.179688 140.484375 76.113281 140.664062 76.027344 140.820312 C 75.941406 140.972656 75.839844 141.09375 75.726562 141.179688 C 75.617188 141.261719 75.496094 141.304688 75.375 141.304688 C 75.253906 141.304688 75.136719 141.261719 75.023438 141.179688 C 74.910156 141.09375 74.8125 140.972656 74.726562 140.820312 C 74.640625 140.664062 74.574219 140.484375 74.527344 140.28125 C 74.480469 140.078125 74.457031 139.867188 74.457031 139.648438 C 74.457031 139.429688 74.480469 139.21875 74.527344 139.015625 C 74.574219 138.8125 74.640625 138.632812 74.726562 138.476562 C 74.8125 138.320312 74.910156 138.203125 75.023438 138.117188 C 75.136719 138.035156 75.253906 137.992188 75.375 137.992188 C 75.496094 137.992188 75.617188 138.035156 75.726562 138.117188 C 75.839844 138.203125 75.941406 138.320312 76.027344 138.476562 C 76.113281 138.632812 76.179688 138.8125 76.226562 139.015625 C 76.273438 139.21875 76.296875 139.429688 76.296875 139.648438 Z M 76.296875 139.648438 " fill-opacity="1" fill-rule="nonzero"/><path fill="#162667" d="M 88.4375 134.953125 C 88.4375 134.953125 88.34375 134.953125 88.34375 134.953125 C 86.964844 134.125 85.308594 134.402344 84.757812 134.585938 C 84.667969 134.585938 84.574219 134.585938 84.574219 134.585938 C 84.480469 134.585938 84.390625 134.496094 84.390625 134.402344 C 84.390625 134.308594 84.480469 134.21875 84.574219 134.21875 C 84.574219 134.21875 84.667969 134.21875 84.667969 134.21875 C 85.21875 134.125 87.058594 133.757812 88.527344 134.679688 C 88.621094 134.769531 88.621094 134.863281 88.621094 134.953125 C 88.527344 134.863281 88.527344 134.953125 88.4375 134.953125 Z M 88.4375 134.953125 " fill-opacity="1" fill-rule="nonzero"/><path fill="#162667" d="M 77.308594 134.953125 C 77.308594 134.953125 77.214844 134.953125 77.214844 134.953125 C 75.835938 134.125 74.179688 134.402344 73.628906 134.585938 C 73.535156 134.585938 73.445312 134.585938 73.445312 134.585938 C 73.351562 134.585938 73.261719 134.496094 73.261719 134.402344 C 73.261719 134.308594 73.351562 134.21875 73.445312 134.21875 C 73.445312 134.21875 73.535156 134.21875 73.535156 134.21875 C 74.089844 134.125 75.929688 133.757812 77.398438 134.679688 C 77.492188 134.769531 77.492188 134.863281 77.492188 134.953125 C 77.398438 134.863281 77.398438 134.953125 77.308594 134.953125 Z M 77.308594 134.953125 " fill-opacity="1" fill-rule="nonzero"/><path fill="#162667" d="M 80.894531 146.640625 C 80.804688 146.640625 80.804688 146.640625 80.710938 146.550781 C 80.617188 146.457031 80.710938 146.367188 80.804688 146.273438 C 81.078125 146.183594 81.722656 145.722656 81.722656 145.261719 C 81.722656 144.800781 81.171875 142.867188 80.988281 142.132812 C 80.988281 142.039062 80.988281 141.949219 81.078125 141.855469 C 81.171875 141.855469 81.261719 141.855469 81.355469 141.949219 C 81.445312 142.222656 82.183594 144.523438 82.089844 145.167969 C 82.089844 146.089844 81.078125 146.640625 80.894531 146.640625 C 80.988281 146.640625 80.988281 146.640625 80.894531 146.640625 Z M 80.894531 146.640625 " fill-opacity="1" fill-rule="nonzero"/><path fill="#ffffff" d="M 77.765625 149.585938 C 77.765625 149.585938 81.445312 153.453125 83.839844 149.3125 Z M 77.765625 149.585938 " fill-opacity="1" fill-rule="nonzero"/><path fill="#efc237" d="M 81.816406 159.25 C 81.816406 159.25 83.5625 159.066406 86.78125 159.339844 C 87.703125 159.433594 88.804688 159.527344 90.09375 159.710938 C 90.554688 159.800781 91.011719 159.894531 91.566406 159.984375 C 96.53125 160.8125 98.738281 166.613281 101.039062 173.328125 C 101.683594 175.171875 102.234375 177.011719 102.878906 178.851562 C 106.003906 187.6875 100.117188 196.703125 99.566406 202.59375 C 99.015625 208.484375 100.671875 224.40625 97.910156 226.152344 C 95.152344 227.808594 58.359375 227.535156 57.257812 226.707031 C 56.519531 226.152344 52.839844 211.703125 48.976562 195.140625 C 46.953125 186.765625 45.574219 178.851562 45.757812 173.882812 C 45.941406 166.796875 50.265625 163.296875 54.679688 161.550781 C 55.417969 161.273438 56.058594 160.996094 56.796875 160.8125 C 60.566406 159.800781 63.878906 159.894531 63.878906 159.894531 Z M 81.816406 159.25 " fill-opacity="1" fill-rule="nonzero"/><path fill="#ed5540" d="M 90.828125 159.710938 C 90.828125 159.710938 94.785156 159.894531 98.09375 164.585938 C 101.40625 169.28125 106.28125 181.429688 108.121094 189.34375 L 87.609375 196.152344 Z M 90.828125 159.710938 " fill-opacity="1" fill-rule="nonzero"/><path fill="#ed5540" d="M 49.714844 194.957031 C 53.578125 211.519531 51.554688 227.71875 52.472656 227.625 C 100.671875 225.785156 103.0625 229.558594 102.511719 226.335938 C 100.855469 217.132812 101.5 218.976562 100.578125 209.863281 C 100.394531 207.65625 100.210938 205.722656 100.210938 204.25 C 100.210938 203.605469 100.210938 203.054688 100.210938 202.59375 C 100.210938 202.59375 100.210938 202.503906 100.210938 202.503906 C 100.300781 201.859375 100.394531 201.214844 100.578125 200.476562 C 100.761719 199.925781 100.855469 199.375 101.039062 198.730469 C 101.039062 198.636719 101.128906 198.453125 101.128906 198.359375 C 102.878906 192.746094 106.003906 185.660156 103.523438 178.757812 C 103.339844 178.300781 103.246094 177.929688 103.0625 177.5625 C 102.234375 175.445312 101.039062 173.515625 99.566406 171.765625 C 98.464844 170.476562 98.003906 169.925781 96.898438 168.636719 C 94.601562 165.875 91.933594 161.640625 90.738281 159.710938 C 90.367188 159.066406 87.515625 159.339844 87.515625 159.339844 C 88.621094 161.457031 91.933594 167.898438 90.460938 169.554688 C 88.714844 171.488281 67.558594 172.410156 64.890625 170.109375 C 62.589844 168.175781 58.820312 162.101562 57.441406 160.539062 C 57.257812 160.261719 55.507812 160.8125 55.230469 161.183594 C 55.230469 161.183594 55.230469 161.183594 55.324219 161.457031 C 56.335938 164.679688 62.957031 182.347656 49.714844 194.957031 Z M 49.714844 194.957031 " fill-opacity="1" fill-rule="nonzero"/><path fill="#efc237" d="M 59.738281 207.378906 C 59.003906 214.464844 57.625 220.816406 55.140625 223.851562 C 54.035156 225.140625 52.839844 225.875 51.371094 225.691406 C 44.101562 224.957031 44.65625 195.417969 45.390625 178.574219 C 45.390625 178.300781 45.390625 177.929688 45.484375 177.65625 L 45.484375 177.5625 C 45.484375 177.011719 45.574219 176.550781 45.574219 176 C 45.667969 174.984375 45.667969 173.972656 45.757812 173.054688 C 45.851562 171.671875 45.851562 170.476562 45.941406 169.554688 C 45.941406 169.371094 45.941406 169.28125 45.941406 169.097656 C 45.941406 169.097656 45.941406 169.003906 45.941406 169.003906 C 46.035156 168.636719 46.035156 168.359375 46.125 167.992188 C 46.679688 166.058594 47.964844 164.402344 49.988281 163.574219 C 52.289062 162.65625 54.035156 163.207031 55.324219 164.769531 C 57.53125 167.253906 58.726562 172.226562 59.554688 177.285156 C 60.292969 182.625 60.933594 196.058594 59.738281 207.378906 Z M 59.738281 207.378906 " fill-opacity="1" fill-rule="nonzero"/><path fill="#efc237" d="M 55.417969 179.496094 C 55.324219 179.679688 50.632812 179.585938 47.691406 179.496094 C 46.402344 179.496094 45.484375 179.496094 45.484375 179.496094 C 45.484375 179.496094 45.484375 179.21875 45.484375 178.667969 L 45.484375 178.574219 C 45.484375 177.472656 45.390625 175.539062 45.484375 173.421875 C 45.574219 172.132812 45.667969 170.84375 45.851562 169.648438 C 45.851562 169.648438 45.851562 169.554688 45.851562 169.554688 C 45.941406 169.1875 45.941406 168.820312 46.035156 168.453125 C 46.308594 167.253906 46.679688 166.152344 47.136719 165.414062 C 48.976562 162.65625 55.140625 161.183594 55.140625 161.183594 C 55.140625 161.183594 55.140625 162.839844 55.230469 165.046875 C 55.324219 170.382812 55.507812 179.3125 55.417969 179.496094 Z M 55.417969 179.496094 " fill-opacity="1" fill-rule="nonzero"/><path fill="#efc237" d="M 54.3125 226.335938 C 57.441406 226.0625 60.199219 224.035156 61.671875 221.277344 C 68.476562 208.761719 88.621094 168.726562 84.851562 163.941406 C 81.355469 159.527344 46.769531 212.808594 47.691406 220.816406 C 48.058594 224.773438 49.988281 226.707031 54.3125 226.335938 Z M 54.3125 226.335938 " fill-opacity="1" fill-rule="nonzero"/><path fill="#efc237" d="M 92.484375 161.183594 C 92.667969 163.207031 95.058594 164.957031 92.484375 168.453125 C 89.910156 171.949219 82.917969 171.949219 82.917969 171.949219 L 80.804688 166.058594 C 80.804688 166.058594 82 164.957031 82.367188 164.035156 C 82.734375 163.113281 84.480469 159.894531 88.160156 158.789062 C 91.839844 157.683594 97.359375 156.765625 97.910156 157.867188 C 98.371094 158.882812 92.300781 159.527344 92.484375 161.183594 Z M 92.484375 161.183594 " fill-opacity="1" fill-rule="nonzero"/><path fill="#efc237" d="M 109.59375 224.773438 C 112.167969 224.128906 114.101562 221.917969 114.925781 219.34375 C 118.605469 207.378906 129 169.554688 125.136719 165.785156 C 121.550781 162.378906 101.128906 218.148438 103.246094 220.816406 C 104.71875 222.839844 106.097656 225.691406 109.59375 224.773438 Z M 109.59375 224.773438 " fill-opacity="1" fill-rule="nonzero"/><path fill="#efc237" d="M 127.070312 170.9375 L 116.675781 213.636719 C 116.675781 213.636719 114.007812 203.515625 114.285156 199.097656 C 114.46875 195.875 120.355469 180.601562 124.125 173.421875 C 125.597656 170.84375 127.070312 170.9375 127.070312 170.9375 Z M 127.070312 170.9375 " fill-opacity="1" fill-rule="nonzero"/><path fill="#ed5540" d="M 113.640625 151.796875 L 103.707031 173.144531 C 102.96875 174.617188 104.074219 176.367188 105.730469 176.457031 L 115.019531 176.550781 C 115.9375 176.550781 116.765625 176 117.136719 175.171875 L 126.886719 153.453125 C 127.621094 151.886719 126.425781 150.140625 124.769531 150.230469 L 115.664062 150.414062 C 114.835938 150.414062 114.007812 150.96875 113.640625 151.796875 Z M 113.640625 151.796875 " fill-opacity="1" fill-rule="nonzero"/><path fill="#162667" d="M 114.558594 152.53125 L 104.625 173.882812 C 103.890625 175.355469 104.992188 177.101562 106.648438 177.195312 L 115.9375 177.285156 C 116.859375 177.285156 117.6875 176.734375 118.054688 175.90625 L 127.804688 154.1875 C 128.539062 152.625 127.34375 150.875 125.6875 150.96875 L 116.582031 151.152344 C 115.664062 151.242188 114.925781 151.796875 114.558594 152.53125 Z M 114.558594 152.53125 " fill-opacity="1" fill-rule="nonzero"/><path fill="#efc237" d="M 130.195312 162.746094 C 130.011719 161.640625 129 160.722656 127.898438 160.8125 C 124.308594 160.90625 117.136719 161.640625 116.582031 165.875 C 115.847656 171.582031 123.574219 175.90625 126.425781 172.871094 C 128.449219 170.660156 130.5625 165.597656 130.195312 162.746094 Z M 130.195312 162.746094 " fill-opacity="1" fill-rule="nonzero"/><path fill="#162667" d="M 116.988281 154.011719 C 117.160156 154.121094 117.25 154.304688 117.253906 154.566406 C 117.261719 154.824219 117.183594 155.082031 117.019531 155.339844 C 116.855469 155.597656 116.65625 155.78125 116.417969 155.886719 C 116.183594 155.988281 115.980469 155.988281 115.808594 155.878906 C 115.636719 155.769531 115.546875 155.585938 115.539062 155.328125 C 115.535156 155.070312 115.613281 154.808594 115.777344 154.554688 C 115.9375 154.296875 116.136719 154.113281 116.375 154.007812 C 116.613281 153.902344 116.816406 153.90625 116.988281 154.011719 Z M 116.988281 154.011719 " fill-opacity="1" fill-rule="nonzero"/><path fill="#ed5540" d="M 57.441406 160.445312 C 57.441406 160.445312 44.839844 161.640625 44.472656 172.410156 C 44.101562 183.175781 44.195312 191.917969 44.195312 191.917969 L 60.382812 190.539062 C 60.382812 190.539062 60.566406 165.875 57.441406 160.445312 Z M 57.441406 160.445312 " fill-opacity="1" fill-rule="nonzero"/><path fill="#162667" d="M 85.585938 125.75 C 85.585938 125.75 83.746094 128.050781 80.160156 129.984375 C 78.320312 130.90625 72.25 130.8125 69.949219 131.640625 C 62.957031 134.21875 61.855469 150.597656 61.855469 150.597656 C 61.855469 150.597656 55.140625 138.726562 61.578125 123.542969 C 66.820312 111.304688 84.113281 114.707031 85.492188 120.597656 C 85.492188 120.597656 92.667969 123.449219 91.011719 130.8125 C 91.105469 130.722656 88.714844 126.488281 85.585938 125.75 Z M 85.585938 125.75 " fill-opacity="1" fill-rule="nonzero"/><path fill="#ffffff" d="M 91.839844 50.199219 C 79.699219 50.199219 69.765625 60.042969 69.671875 72.191406 C 69.671875 84.339844 79.515625 94.277344 91.65625 94.371094 C 103.796875 94.371094 113.730469 84.523438 113.824219 72.375 C 113.824219 60.230469 103.980469 50.289062 91.839844 50.199219 Z M 91.839844 52.773438 C 93.402344 54.339844 96.992188 58.570312 98.832031 64.460938 C 94.140625 65.84375 89.449219 65.75 84.757812 64.371094 C 86.691406 58.480469 90.277344 54.339844 91.839844 52.773438 Z M 99.199219 78.175781 C 94.230469 76.703125 89.171875 76.703125 84.207031 78.175781 C 83.101562 73.847656 83.285156 69.890625 84.113281 66.394531 C 86.691406 67.128906 89.265625 67.589844 91.839844 67.589844 C 94.324219 67.589844 96.808594 67.222656 99.289062 66.488281 C 100.117188 69.890625 100.300781 73.847656 99.199219 78.175781 Z M 98.648438 80.199219 C 97.359375 83.878906 95.152344 87.746094 91.65625 91.792969 C 88.160156 87.746094 86.046875 83.878906 84.757812 80.199219 C 89.355469 78.816406 94.046875 78.816406 98.648438 80.199219 Z M 101.222656 65.84375 C 103.796875 64.921875 106.375 63.632812 108.765625 61.976562 C 110.605469 65.015625 111.707031 68.601562 111.707031 72.375 C 111.707031 76.148438 110.605469 79.738281 108.765625 82.773438 C 106.375 81.117188 103.796875 79.738281 101.222656 78.816406 C 102.417969 74.03125 102.140625 69.707031 101.222656 65.84375 Z M 107.570312 60.230469 C 105.363281 61.792969 103.0625 62.988281 100.671875 63.816406 C 99.015625 58.664062 96.164062 54.707031 94.324219 52.5 C 99.75 53.234375 104.441406 56.085938 107.570312 60.230469 Z M 89.265625 52.5 C 87.425781 54.707031 84.574219 58.570312 82.917969 63.726562 C 80.617188 62.804688 78.320312 61.609375 76.019531 60.042969 C 79.238281 55.996094 83.929688 53.140625 89.265625 52.5 Z M 74.824219 61.699219 C 77.308594 63.449219 79.792969 64.738281 82.273438 65.660156 C 81.261719 69.523438 81.078125 73.941406 82.273438 78.726562 C 79.792969 79.644531 77.214844 81.027344 74.730469 82.683594 C 72.800781 79.644531 71.695312 76.058594 71.695312 72.191406 C 71.789062 68.417969 72.894531 64.828125 74.824219 61.699219 Z M 75.929688 84.523438 C 78.226562 82.960938 80.527344 81.761719 82.828125 80.84375 C 84.023438 84.433594 86.046875 88.203125 89.265625 92.160156 C 83.839844 91.425781 79.148438 88.574219 75.929688 84.523438 Z M 94.046875 92.160156 C 97.265625 88.203125 99.382812 84.433594 100.578125 80.84375 C 102.96875 81.761719 105.363281 82.960938 107.570312 84.523438 C 104.351562 88.664062 99.566406 91.519531 94.046875 92.160156 Z M 94.046875 92.160156 " fill-opacity="1" fill-rule="nonzero"/><path fill="#162667" d="M 60.382812 190.722656 C 60.292969 190.722656 60.199219 190.628906 60.199219 190.539062 L 60.015625 177.839844 C 60.015625 177.746094 60.105469 177.65625 60.199219 177.65625 C 60.292969 177.65625 60.382812 177.746094 60.382812 177.839844 L 60.566406 190.539062 C 60.566406 190.628906 60.476562 190.722656 60.382812 190.722656 Z M 60.382812 190.722656 " fill-opacity="1" fill-rule="nonzero"/><path fill="#162667" d="M 103.523438 191 C 103.429688 191 103.339844 190.90625 103.339844 190.816406 C 103.339844 190.722656 104.441406 184.1875 102.601562 178.851562 C 102.601562 178.757812 102.601562 178.667969 102.695312 178.574219 C 102.785156 178.574219 102.878906 178.574219 102.96875 178.667969 C 104.808594 184.1875 103.796875 190.816406 103.796875 190.816406 C 103.707031 191 103.613281 191 103.523438 191 Z M 103.523438 191 " fill-opacity="1" fill-rule="nonzero"/><path fill="#162667" d="M 79.421875 156.765625 C 77.953125 156.765625 76.386719 156.398438 74.730469 155.570312 C 72.523438 154.464844 70.777344 153.082031 70.777344 153.082031 C 70.683594 152.992188 70.683594 152.898438 70.777344 152.808594 C 70.867188 152.714844 70.960938 152.714844 71.054688 152.808594 C 71.144531 152.898438 77.582031 158.328125 82.367188 155.753906 C 82.457031 155.660156 82.550781 155.753906 82.640625 155.84375 C 82.734375 155.9375 82.640625 156.027344 82.550781 156.121094 C 81.539062 156.582031 80.527344 156.765625 79.421875 156.765625 Z M 79.421875 156.765625 " fill-opacity="1" fill-rule="nonzero"/><path fill="#dce3ef" d="M 33.617188 245.386719 L 32.695312 245.386719 C 32.695312 231.949219 44.839844 228.363281 45.023438 228.269531 L 45.296875 229.191406 C 44.746094 229.375 33.617188 232.6875 33.617188 245.386719 Z M 33.617188 245.386719 " fill-opacity="1" fill-rule="nonzero"/><path fill="#ffffff" d="M 165.332031 114.339844 C 165.242188 114.339844 165.242188 114.339844 165.242188 114.339844 C 165.148438 114.25 165.148438 114.15625 165.148438 114.0625 C 165.148438 113.972656 168.734375 109.1875 176.921875 109.003906 C 177.015625 109.003906 177.199219 109.09375 177.199219 109.1875 C 177.199219 109.277344 177.105469 109.464844 177.015625 109.464844 C 169.011719 109.648438 165.609375 114.25 165.609375 114.339844 C 165.515625 114.339844 165.425781 114.339844 165.332031 114.339844 Z M 165.332031 114.339844 " fill-opacity="1" fill-rule="nonzero"/></svg>