<svg xmlns="http://www.w3.org/2000/svg" xmlns:xlink="http://www.w3.org/1999/xlink" width="500" zoomAndPan="magnify" viewBox="0 0 375 374.999991" height="500" preserveAspectRatio="xMidYMid meet" version="1.0"><defs><clipPath id="ec7bc09f2f"><path d="M 0 36.796875 L 375 36.796875 L 375 275 L 0 275 Z M 0 36.796875 " clip-rule="nonzero"/></clipPath><clipPath id="f0b7591a5e"><path d="M 57 257 L 318 257 L 318 338.296875 L 57 338.296875 Z M 57 257 " clip-rule="nonzero"/></clipPath><clipPath id="c21e2e491c"><path d="M 155 249.257812 L 220 249.257812 L 220 275 L 155 275 Z M 155 249.257812 " clip-rule="nonzero"/></clipPath><clipPath id="63d8b7fa9a"><path d="M 177 292 L 187 292 L 187 304.007812 L 177 304.007812 Z M 177 292 " clip-rule="nonzero"/></clipPath><clipPath id="a2346f826d"><path d="M 168.519531 269 L 198 269 L 198 304.007812 L 168.519531 304.007812 Z M 168.519531 269 " clip-rule="nonzero"/></clipPath></defs><rect x="-37.5" width="450" fill="#ffffff" y="-37.499999" height="449.999989" fill-opacity="1"/><rect x="-37.5" width="450" fill="#ffffff" y="-37.499999" height="449.999989" fill-opacity="1"/><g clip-path="url(#ec7bc09f2f)"><path fill="#ff3131" d="M 266.265625 109.113281 C 286.261719 129.207031 298.625 156.910156 298.625 187.5 C 298.625 197.796875 297.21875 207.761719 294.601562 217.222656 C 291.128906 215.695312 287.628906 214.253906 284.105469 212.882812 C 286.230469 204.777344 287.367188 196.273438 287.367188 187.5 C 287.367188 163.320312 278.773438 141.148438 264.472656 123.871094 C 265.539062 119.164062 266.148438 114.207031 266.265625 109.113281 Z M 90.894531 212.882812 C 87.375 214.253906 83.875 215.695312 80.402344 217.222656 C 77.78125 207.761719 76.375 197.796875 76.375 187.5 C 76.375 156.921875 88.726562 129.230469 108.714844 109.136719 L 108.714844 125.078125 C 108.714844 125.421875 108.726562 125.761719 108.738281 126.101562 C 95.515625 143.039062 87.632812 164.347656 87.632812 187.5 C 87.632812 196.273438 88.769531 204.777344 90.894531 212.882812 Z M 374.910156 274.996094 C 362.398438 259.796875 347.03125 246.992188 330.152344 236.207031 C 335.371094 220.925781 338.207031 204.546875 338.207031 187.5 C 338.207031 104.269531 270.730469 36.792969 187.5 36.792969 C 104.265625 36.792969 36.792969 104.269531 36.792969 187.5 C 36.792969 204.546875 39.625 220.929688 44.84375 236.207031 C 27.96875 246.992188 12.597656 259.796875 0.0859375 274.996094 C 0.0859375 274.996094 52.589844 251.214844 124.136719 233.878906 C 125.429688 233.5625 126.726562 233.261719 128.023438 232.964844 L 127.007812 249.515625 C 126.636719 255.578125 131.449219 260.699219 137.523438 260.699219 L 137.753906 260.699219 C 138.59375 260.699219 139.40625 260.597656 140.1875 260.410156 C 135.320312 259.261719 131.789062 254.742188 132.109375 249.515625 L 136.777344 173.503906 C 137.503906 161.652344 133.734375 149.777344 125.609375 141.117188 C 121.675781 136.921875 119.265625 131.285156 119.265625 125.078125 L 119.265625 64.34375 L 125.972656 64.34375 L 125.972656 116.507812 C 125.972656 118.359375 127.472656 119.859375 129.324219 119.859375 C 131.175781 119.859375 132.679688 118.359375 132.679688 116.507812 L 132.679688 64.34375 L 139.386719 64.34375 L 139.386719 116.507812 C 139.386719 118.359375 140.886719 119.859375 142.738281 119.859375 C 144.589844 119.859375 146.09375 118.359375 146.09375 116.507812 L 146.09375 64.34375 L 152.796875 64.34375 L 152.796875 116.507812 C 152.796875 118.359375 154.300781 119.859375 156.152344 119.859375 C 158.003906 119.859375 159.503906 118.359375 159.503906 116.507812 L 159.503906 64.34375 L 166.210938 64.34375 L 166.210938 125.078125 C 166.210938 131.285156 163.800781 136.921875 159.867188 141.117188 C 151.742188 149.777344 147.972656 161.652344 148.699219 173.503906 L 152.089844 228.65625 C 174.15625 225.726562 196.496094 225.546875 218.597656 228.117188 L 222 172.785156 C 222.6875 161.585938 219.050781 150.476562 211.585938 142.101562 C 204.625 134.296875 200.097656 121.625 200.097656 107.316406 C 200.097656 83.582031 212.550781 64.34375 227.917969 64.34375 C 243.28125 64.34375 255.734375 83.582031 255.734375 107.316406 C 255.734375 121.625 251.207031 134.296875 244.246094 142.101562 C 236.78125 150.476562 233.144531 161.585938 233.832031 172.785156 L 238.546875 249.515625 C 238.867188 254.742188 235.332031 259.261719 230.464844 260.410156 C 231.246094 260.597656 232.0625 260.699219 232.902344 260.699219 L 233.128906 260.699219 C 239.203125 260.699219 244.019531 255.578125 243.644531 249.515625 L 242.570312 232.007812 C 245.34375 232.589844 248.109375 233.207031 250.863281 233.878906 C 322.410156 251.214844 374.910156 274.996094 374.910156 274.996094 " fill-opacity="1" fill-rule="nonzero"/></g><g clip-path="url(#f0b7591a5e)"><path fill="#ff3131" d="M 296.59375 257.488281 C 273.542969 293.347656 233.296875 317.101562 187.5 317.101562 C 141.703125 317.101562 101.457031 293.347656 78.40625 257.488281 C 71.097656 259.761719 64.1875 262.023438 57.75 264.207031 C 83.996094 308.503906 132.277344 338.207031 187.5 338.207031 C 242.722656 338.207031 291.003906 308.503906 317.25 264.207031 C 310.8125 262.023438 303.90625 259.761719 296.59375 257.488281 " fill-opacity="1" fill-rule="nonzero"/></g><g clip-path="url(#c21e2e491c)"><path fill="#ff3131" d="M 218.332031 269.191406 L 209.882812 263.644531 L 209.882812 254.515625 C 209.882812 253.773438 209.273438 253.164062 208.53125 253.164062 L 203.660156 253.164062 C 202.917969 253.164062 202.308594 253.773438 202.308594 254.515625 L 202.308594 258.644531 L 189.054688 249.917969 C 188.109375 249.308594 186.890625 249.308594 185.941406 249.917969 L 156.660156 269.191406 C 155.378906 270.070312 154.972656 271.828125 155.851562 273.109375 C 156.730469 274.398438 158.492188 274.804688 159.773438 273.925781 L 187.5 255.667969 L 215.226562 273.925781 C 215.699219 274.261719 216.242188 274.398438 216.78125 274.398438 C 217.730469 274.398438 218.605469 273.925781 219.148438 273.109375 C 220.027344 271.828125 219.621094 270.070312 218.332031 269.191406 " fill-opacity="1" fill-rule="nonzero"/></g><path fill="#ff3131" d="M 201.027344 281.164062 C 200.820312 281.429688 200.484375 281.566406 200.140625 281.566406 C 199.941406 281.566406 199.675781 281.5 199.46875 281.363281 C 198.996094 280.957031 198.925781 280.277344 199.265625 279.804688 C 200.414062 278.324219 200.550781 276.5625 200.074219 275.820312 C 199.738281 275.277344 199.875 274.597656 200.414062 274.261719 C 200.957031 273.925781 201.628906 274.0625 201.96875 274.597656 C 203.054688 276.292969 202.652344 279.0625 201.027344 281.164062 Z M 202.851562 271.628906 C 199.742188 269.191406 194.867188 270.269531 191.964844 274.0625 C 189.53125 277.101562 189.1875 281.027344 190.882812 283.660156 C 190.339844 284.269531 189.660156 284.949219 189.054688 285.621094 C 190.132812 286.84375 191.21875 287.988281 192.234375 289.140625 C 192.910156 288.125 193.515625 287.109375 194.125 286.230469 C 197.101562 287.179688 200.820312 285.894531 203.1875 282.851562 C 206.09375 279.0625 205.964844 274.0625 202.851562 271.628906 " fill-opacity="1" fill-rule="nonzero"/><g clip-path="url(#63d8b7fa9a)"><path fill="#ff3131" d="M 177.828125 303.683594 C 179.722656 305.164062 182.902344 302.195312 186.148438 297.933594 C 185.066406 296.445312 183.851562 294.683594 182.5625 292.789062 C 178.636719 297.460938 175.734375 301.988281 177.828125 303.683594 " fill-opacity="1" fill-rule="nonzero"/></g><g clip-path="url(#a2346f826d)"><path fill="#ff3131" d="M 184.726562 280.621094 C 185.132812 278.386719 184.386719 276.085938 182.835938 274.46875 L 178.101562 269.734375 C 177.695312 269.324219 177.019531 269.261719 176.546875 269.667969 L 176.476562 269.734375 C 175.933594 270.140625 175.867188 270.949219 176.339844 271.492188 L 180.804688 276.359375 C 181.277344 276.902344 181.210938 277.78125 180.667969 278.1875 C 180.132812 278.589844 179.316406 278.523438 178.910156 277.980469 L 174.445312 272.707031 C 174.042969 272.230469 173.300781 272.101562 172.828125 272.507812 C 172.355469 272.910156 172.214844 273.652344 172.621094 274.125 L 176.683594 279.605469 C 177.085938 280.148438 177.019531 280.957031 176.40625 281.363281 C 175.804688 281.835938 174.988281 281.699219 174.582031 281.09375 L 170.933594 275.613281 C 170.527344 275.074219 169.78125 274.941406 169.238281 275.347656 L 169.175781 275.414062 C 168.703125 275.75 168.566406 276.429688 168.902344 276.964844 L 172.355469 282.714844 C 173.5 284.675781 175.597656 285.894531 177.828125 286.09375 L 180.941406 286.300781 C 185.46875 293.398438 193.660156 306.585938 197.171875 303.8125 C 200.757812 301.042969 189.933594 289.949219 184.117188 283.796875 L 184.726562 280.621094 " fill-opacity="1" fill-rule="nonzero"/></g></svg>