<svg xmlns="http://www.w3.org/2000/svg" xmlns:xlink="http://www.w3.org/1999/xlink" width="500" zoomAndPan="magnify" viewBox="0 0 375 374.999991" height="500" preserveAspectRatio="xMidYMid meet" version="1.0"><defs><clipPath id="4d8f753627"><path d="M 5.339844 343.132812 L 366.980469 343.132812 L 366.980469 365.0625 L 5.339844 365.0625 Z M 5.339844 343.132812 " clip-rule="nonzero"/></clipPath></defs><path fill="#edf8ff" d="M 361.808594 354.382812 L 241.210938 354.382812 C 247.515625 351.945312 251.984375 345.828125 251.984375 338.667969 L 251.988281 229.210938 C 258.5625 227.589844 265.890625 226.40625 274.152344 226.40625 C 282.222656 226.40625 291.179688 227.535156 301.183594 230.476562 C 374.925781 252.160156 361.808594 354.382812 361.808594 354.382812 M 131.832031 354.382812 L 12.457031 354.382812 C 12.457031 354.382812 3.417969 311.949219 19.265625 288.5 C 38.472656 260.074219 59.464844 271.363281 67.914062 259.921875 C 77.523438 246.898438 76.585938 200.53125 121.054688 190.199219 L 121.042969 338.65625 C 121.042969 345.824219 125.519531 351.945312 131.832031 354.382812 " fill-opacity="1" fill-rule="nonzero"/><g clip-path="url(#4d8f753627)"><path fill="#c5eae2" d="M 366.980469 354.105469 C 366.980469 360.15625 286.089844 365.0625 186.300781 365.0625 C 86.515625 365.0625 5.617188 360.15625 5.617188 354.105469 C 5.617188 348.058594 86.515625 343.148438 186.300781 343.148438 C 286.089844 343.148438 366.980469 348.058594 366.980469 354.105469 " fill-opacity="1" fill-rule="nonzero"/></g><path fill="#a2ddd0" d="M 349.761719 353.289062 C 349.761719 353.289062 340.832031 340.066406 346.519531 335.003906 C 350.007812 331.898438 351.714844 341.84375 351.714844 341.84375 C 351.714844 341.84375 353.695312 322.863281 360.125 326.867188 C 363.269531 328.828125 356.664062 346.328125 356.664062 346.328125 C 356.664062 346.328125 361.359375 337.230469 365.070312 339.726562 C 371.0625 343.761719 356.789062 353.15625 356.789062 353.15625 L 349.761719 353.289062 " fill-opacity="1" fill-rule="nonzero"/><path fill="#e0fbf0" d="M 353.160156 353.222656 L 357.777344 331.730469 C 357.800781 331.617188 357.722656 331.496094 357.605469 331.46875 C 357.484375 331.445312 357.371094 331.523438 357.34375 331.640625 L 352.707031 353.234375 L 353.160156 353.222656 " fill-opacity="1" fill-rule="nonzero"/><path fill="#e0fbf0" d="M 355.617188 353.179688 L 364.117188 342.863281 C 364.191406 342.765625 364.179688 342.628906 364.085938 342.550781 C 363.992188 342.476562 363.851562 342.488281 363.773438 342.582031 L 355.039062 353.191406 L 355.617188 353.179688 " fill-opacity="1" fill-rule="nonzero"/><path fill="#e0fbf0" d="M 351.585938 353.257812 L 348.09375 337.511719 C 348.070312 337.390625 347.953125 337.316406 347.832031 337.34375 C 347.714844 337.371094 347.640625 337.488281 347.664062 337.605469 L 351.140625 353.265625 L 351.585938 353.257812 " fill-opacity="1" fill-rule="nonzero"/><path fill="#dbf1ff" d="M 134.769531 72.605469 C 134.738281 71.8125 134.566406 71.011719 134.234375 70.289062 C 133.972656 69.722656 133.617188 69.191406 133.089844 68.839844 C 131.28125 67.640625 128.347656 68.4375 127.484375 70.445312 C 127.390625 70.644531 127.113281 70.46875 127.195312 70.277344 C 127.660156 69.316406 127.726562 68.191406 127.523438 67.152344 C 127.339844 66.222656 126.9375 65.3125 126.289062 64.613281 C 125.542969 63.808594 124.519531 63.410156 123.417969 63.480469 C 122.195312 63.558594 121.011719 64.160156 120.097656 64.957031 C 119.675781 65.320312 119.269531 65.710938 118.914062 66.144531 C 118.671875 66.4375 118.445312 66.773438 118.300781 67.136719 C 118.257812 67.347656 118.210938 67.554688 118.152344 67.765625 C 118.101562 67.9375 117.804688 67.910156 117.820312 67.714844 L 117.828125 67.671875 L 117.828125 67.667969 C 117.855469 67.460938 117.902344 67.261719 117.976562 67.070312 C 118.324219 65.3125 118.074219 63.417969 117.433594 61.753906 C 116.816406 60.144531 115.710938 58.5625 114.066406 57.882812 C 112.28125 57.144531 110.210938 57.664062 108.84375 58.984375 C 107.375 60.410156 106.617188 62.476562 106.214844 64.441406 C 105.976562 65.574219 105.84375 66.738281 105.949219 67.898438 C 106.078125 69.328125 106.476562 70.71875 106.542969 72.152344 C 106.550781 72.28125 106.398438 72.363281 106.289062 72.296875 C 105.769531 71.976562 105.238281 71.644531 104.644531 71.472656 C 104.03125 71.292969 103.402344 71.34375 102.828125 71.628906 C 101.902344 72.089844 100.996094 73.285156 101.199219 74.371094 C 101.234375 74.554688 100.996094 74.667969 100.894531 74.5 C 100.414062 73.722656 99.886719 72.96875 99.234375 72.324219 C 98.671875 71.761719 97.980469 71.257812 97.179688 71.128906 C 96.316406 70.992188 95.460938 71.363281 94.84375 71.953125 C 93.609375 73.121094 93.15625 75.121094 93.882812 76.675781 L 133.605469 76.675781 C 134.394531 75.472656 134.828125 74.046875 134.769531 72.605469 " fill-opacity="1" fill-rule="nonzero"/><path fill="#dbf1ff" d="M 33.675781 38.730469 C 32.9375 36.515625 33.238281 33.460938 35.539062 32.285156 C 37.398438 31.332031 39.6875 32.039062 40.621094 33.910156 C 40.78125 34.230469 41.246094 33.953125 41.097656 33.632812 C 40.257812 31.839844 39.53125 29.023438 41.808594 27.941406 C 43.613281 27.078125 45.871094 28.410156 46.976562 29.957031 C 47.082031 30.117188 47.179688 30.289062 47.289062 30.449219 C 47.492188 30.738281 47.9375 30.488281 47.765625 30.167969 C 45.863281 27.429688 44.894531 23.957031 44.835938 20.640625 C 44.785156 17.71875 45.527344 14.582031 47.824219 12.59375 C 50.234375 10.507812 53.785156 10.164062 56.652344 11.433594 C 59.683594 12.777344 61.960938 15.496094 63.507812 18.355469 C 65.011719 21.152344 66.03125 24.410156 65.847656 27.609375 C 65.828125 27.917969 66.332031 27.984375 66.386719 27.683594 C 66.675781 26.113281 67.074219 24.527344 67.808594 23.101562 C 68.441406 21.875 69.332031 20.769531 70.574219 20.121094 C 71.804688 19.480469 73.246094 19.378906 74.59375 19.65625 C 76.992188 20.152344 79.675781 21.820312 80.34375 24.308594 C 80.390625 24.59375 80.441406 24.882812 80.5 25.164062 C 80.566406 25.464844 81.070312 25.402344 81.046875 25.09375 L 81.035156 25.023438 L 81.027344 24.96875 C 81 24.753906 80.964844 24.539062 80.914062 24.332031 C 80.441406 21.511719 80.878906 18.535156 82.140625 15.972656 C 83.285156 13.644531 85.15625 11.578125 87.625 10.640625 C 90.398438 9.582031 93.527344 10.101562 96.035156 11.605469 C 98.710938 13.214844 100.574219 15.941406 101.101562 19.019531 C 101.769531 22.90625 99.824219 26.390625 98.523438 29.917969 C 98.445312 30.136719 98.738281 30.367188 98.929688 30.230469 C 100.625 29.019531 102.675781 28.242188 104.613281 29.433594 C 106.199219 30.40625 106.984375 32.355469 106.148438 34.082031 C 105.996094 34.398438 106.472656 34.679688 106.625 34.359375 C 107.253906 33.050781 108.234375 31.882812 109.636719 31.386719 C 111.804688 30.621094 114.230469 31.570312 115.773438 33.160156 C 117.464844 34.917969 117.992188 37.417969 116.894531 39.621094 L 33.996094 39.53125 C 33.878906 39.269531 33.765625 39.003906 33.675781 38.730469 " fill-opacity="1" fill-rule="nonzero"/><path fill="#dbf1ff" d="M 259.523438 48.773438 C 258.734375 47.523438 258.375 46.070312 258.550781 44.59375 C 258.707031 43.28125 259.40625 41.929688 260.714844 41.476562 C 262.648438 40.804688 265.675781 41.679688 266.234375 43.871094 C 266.316406 44.125 266.699219 44.019531 266.636719 43.761719 C 266.285156 42.679688 266.132812 41.480469 266.335938 40.355469 C 266.511719 39.386719 266.992188 38.464844 267.914062 38.039062 C 268.75 37.652344 269.738281 37.71875 270.609375 37.957031 C 272.058594 38.351562 273.746094 39.363281 274.410156 40.824219 C 274.480469 41.0625 274.558594 41.292969 274.640625 41.523438 C 274.734375 41.773438 275.09375 41.679688 275.039062 41.414062 C 274.992188 41.171875 274.910156 40.945312 274.8125 40.722656 C 274.4375 39.425781 274.3125 38.050781 274.449219 36.703125 C 274.59375 35.308594 275.046875 33.886719 275.929688 32.789062 C 276.921875 31.550781 278.398438 30.847656 279.96875 30.757812 C 281.800781 30.65625 283.660156 31.277344 285.164062 32.316406 C 285.859375 32.796875 286.535156 33.351562 287.097656 33.980469 C 287.414062 34.332031 287.71875 34.734375 287.921875 35.171875 C 287.976562 35.59375 288.070312 36.003906 288.199219 36.40625 C 288.28125 36.628906 288.605469 36.589844 288.613281 36.351562 C 288.625 35.898438 288.511719 35.464844 288.328125 35.0625 C 288.082031 33.125 288.648438 31.042969 289.476562 29.34375 C 290.390625 27.480469 291.878906 25.601562 293.949219 25.019531 C 296.0625 24.421875 298.191406 25.523438 299.605469 27.078125 C 301.203125 28.84375 302.121094 31.183594 302.644531 33.484375 C 303.148438 35.703125 303.339844 38.097656 302.898438 40.347656 C 302.847656 40.609375 303.226562 40.71875 303.300781 40.457031 C 303.773438 38.75 304.457031 37.054688 305.507812 35.617188 C 306.386719 34.417969 307.621094 33.375 309.140625 33.222656 C 310.808594 33.054688 312.535156 33.871094 313.644531 35.089844 C 315.859375 37.515625 315.523438 41.339844 314.082031 44.0625 C 313.953125 44.308594 314.277344 44.484375 314.4375 44.273438 C 315.050781 43.464844 315.902344 42.84375 316.917969 42.679688 C 318.445312 42.433594 320.039062 43.265625 320.882812 44.535156 C 321.300781 45.15625 321.546875 45.882812 321.515625 46.636719 C 321.484375 47.515625 321.0625 48.296875 320.472656 48.925781 L 320.414062 49.074219 L 259.726562 49.074219 C 259.660156 48.976562 259.585938 48.875 259.523438 48.773438 " fill-opacity="1" fill-rule="nonzero"/><path fill="#a2ddd0" d="M 91.363281 137.242188 C 85.996094 137.929688 80.644531 138.339844 75.265625 138.339844 C 74.734375 138.34375 74.398438 139.007812 74.644531 139.476562 C 77.265625 144.578125 79.886719 149.675781 82.511719 154.769531 C 84.679688 158.980469 88.742188 164.511719 94.671875 168.902344 C 101.820312 174.191406 111.507812 175.863281 120.214844 171.839844 C 127.820312 168.320312 126.074219 159.488281 123.710938 153.007812 C 120.796875 145.023438 113.054688 140.695312 105.765625 138.222656 C 101.027344 136.617188 96.34375 136.59375 91.363281 137.242188 " fill-opacity="1" fill-rule="nonzero"/><path fill="#e0fbf0" d="M 75.101562 139.121094 C 78.203125 141.152344 81.316406 143.199219 84.667969 144.78125 C 84.945312 144.917969 85.226562 145.035156 85.507812 145.164062 C 84.453125 145.125 83.398438 145.085938 82.351562 145.097656 C 81.015625 145.113281 79.710938 145.304688 78.472656 145.808594 C 78.066406 145.972656 78.25 146.640625 78.664062 146.46875 C 79.886719 145.972656 81.167969 145.789062 82.484375 145.785156 C 84.007812 145.789062 85.535156 145.863281 87.054688 145.894531 C 87.125 145.90625 87.179688 145.886719 87.222656 145.863281 C 89.707031 146.808594 92.261719 147.542969 94.742188 148.507812 C 97.410156 149.535156 99.960938 150.8125 102.441406 152.226562 C 99.765625 154.089844 95.996094 153.777344 92.898438 153.859375 C 91.011719 153.914062 89.132812 153.957031 87.246094 154.011719 C 85.800781 154.054688 84.300781 154.105469 83.195312 155.152344 C 82.875 155.460938 83.375 155.9375 83.699219 155.636719 C 85.007812 154.386719 87.328125 154.699219 88.992188 154.660156 C 90.925781 154.601562 92.863281 154.554688 94.792969 154.5 C 97.652344 154.421875 100.71875 154.367188 103.085938 152.59375 C 106.691406 154.6875 110.132812 157.054688 113.550781 159.417969 C 114.671875 160.195312 115.796875 160.976562 116.910156 161.777344 C 108.292969 165.308594 98.800781 166.03125 89.792969 163.566406 C 89.363281 163.441406 89.203125 164.117188 89.632812 164.234375 C 98.898438 166.78125 108.722656 165.984375 117.554688 162.261719 C 119.804688 163.921875 121.953125 165.710938 123.828125 167.808594 C 124.125 168.140625 124.601562 167.636719 124.304688 167.304688 C 123.609375 166.53125 122.878906 165.800781 122.121094 165.097656 L 122.121094 165.03125 C 121.4375 160.582031 120.199219 156.25 118.382812 152.121094 C 116.570312 148.003906 114.285156 143.308594 110.445312 140.738281 C 110.070312 140.488281 109.75 141.101562 110.117188 141.347656 C 112.164062 142.71875 113.601562 144.722656 114.855469 146.804688 C 115.972656 148.667969 116.976562 150.601562 117.839844 152.59375 C 119.480469 156.367188 120.636719 160.324219 121.3125 164.371094 C 120.234375 163.429688 119.109375 162.546875 117.960938 161.699219 C 117.921875 161.5625 117.816406 161.472656 117.667969 161.480469 C 117.054688 161.03125 116.433594 160.589844 115.808594 160.152344 C 114.527344 159.253906 113.242188 158.363281 111.953125 157.476562 C 111.121094 154.078125 109.890625 150.917969 108.136719 147.886719 C 106.191406 144.523438 104.15625 141.207031 102.164062 137.867188 C 101.9375 137.488281 101.347656 137.839844 101.574219 138.21875 C 103.5 141.453125 105.449219 144.660156 107.347656 147.90625 C 109.015625 150.761719 110.238281 153.710938 111.082031 156.878906 C 109.558594 155.84375 108.019531 154.828125 106.457031 153.839844 C 105.484375 153.21875 104.488281 152.613281 103.496094 152.035156 C 103.433594 151.886719 103.257812 151.773438 103.078125 151.792969 C 101.164062 150.699219 99.199219 149.671875 97.175781 148.777344 L 97.160156 148.75 C 95.824219 146.925781 95.535156 144.664062 94.691406 142.613281 C 93.78125 140.414062 92.160156 138.925781 90.304688 137.5 C 89.957031 137.230469 89.472656 137.730469 89.832031 137.996094 C 90.761719 138.710938 91.707031 139.433594 92.484375 140.320312 C 93.273438 141.21875 93.839844 142.253906 94.246094 143.371094 C 94.84375 145.015625 95.203125 146.769531 96.054688 148.304688 C 92.882812 147.011719 89.546875 146.152344 86.394531 144.804688 C 82.503906 143.152344 78.949219 140.820312 75.425781 138.515625 C 75.054688 138.269531 74.726562 138.882812 75.101562 139.121094 " fill-opacity="1" fill-rule="nonzero"/><path fill="#a2ddd0" d="M 274.230469 199.214844 C 269.390625 196.125 263.269531 193.632812 257.253906 195.65625 C 252.371094 197.304688 246.40625 200.394531 247.898438 206.464844 C 249.609375 213.40625 255.097656 218.261719 261.507812 219.964844 C 266.832031 221.367188 271.945312 221.160156 275.414062 220.453125 C 279.609375 219.613281 283.800781 218.765625 287.992188 217.914062 C 288.378906 217.832031 288.613281 217.332031 288.367188 217.023438 C 285.859375 213.894531 283.605469 210.589844 281.511719 207.140625 C 279.566406 203.9375 277.375 201.222656 274.230469 199.214844 " fill-opacity="1" fill-rule="nonzero"/><path fill="#e0fbf0" d="M 287.984375 217.484375 C 285.359375 216.628906 282.71875 215.765625 280.230469 214.550781 C 280.023438 214.449219 279.820312 214.339844 279.617188 214.238281 C 280.132812 214.835938 280.644531 215.433594 281.128906 216.046875 C 281.738281 216.828125 282.234375 217.679688 282.519531 218.632812 C 282.613281 218.949219 282.136719 219.148438 282.042969 218.828125 C 281.765625 217.886719 281.273438 217.058594 280.664062 216.289062 C 279.953125 215.398438 279.199219 214.550781 278.46875 213.679688 L 278.414062 213.566406 C 276.703125 212.558594 275.085938 211.414062 273.371094 210.417969 C 271.523438 209.347656 269.59375 208.453125 267.613281 207.664062 C 267.773438 210.097656 269.710938 212.144531 271.105469 213.992188 C 271.953125 215.105469 272.804688 216.226562 273.648438 217.347656 C 274.300781 218.207031 274.964844 219.109375 274.867188 220.238281 C 274.84375 220.574219 274.332031 220.496094 274.363281 220.171875 C 274.472656 218.824219 273.210938 217.625 272.460938 216.636719 C 271.589844 215.480469 270.71875 214.335938 269.847656 213.179688 C 268.5625 211.484375 267.171875 209.675781 267.097656 207.464844 C 264.199219 206.351562 261.210938 205.445312 258.246094 204.558594 C 257.269531 204.265625 256.292969 203.96875 255.308594 203.703125 C 257.261719 210.359375 261.257812 216.222656 266.894531 220.316406 C 267.167969 220.511719 266.847656 220.914062 266.578125 220.722656 C 260.777344 216.515625 256.671875 210.425781 254.726562 203.550781 C 252.710938 203.011719 250.667969 202.59375 248.570312 202.484375 C 248.238281 202.460938 248.3125 201.953125 248.640625 201.972656 C 249.417969 202.007812 250.183594 202.097656 250.941406 202.207031 L 250.980469 202.183594 C 253.894531 200.507812 257 199.210938 260.253906 198.34375 C 263.496094 197.480469 267.296875 196.625 270.585938 197.664062 C 270.898438 197.765625 270.695312 198.238281 270.382812 198.136719 C 268.625 197.582031 266.792969 197.683594 264.996094 197.925781 C 263.386719 198.136719 261.792969 198.460938 260.226562 198.882812 C 257.269531 199.683594 254.417969 200.851562 251.742188 202.347656 C 252.792969 202.535156 253.835938 202.777344 254.863281 203.050781 C 254.957031 203.011719 255.066406 203.03125 255.128906 203.121094 C 255.675781 203.265625 256.21875 203.425781 256.765625 203.585938 C 257.882812 203.910156 259.003906 204.242188 260.121094 204.582031 C 262.488281 203.484375 264.90625 202.726562 267.496094 202.335938 C 270.355469 201.902344 273.242188 201.542969 276.113281 201.140625 C 276.441406 201.097656 276.511719 201.609375 276.179688 201.660156 C 273.402344 202.039062 270.621094 202.394531 267.84375 202.804688 C 265.40625 203.164062 263.113281 203.824219 260.875 204.808594 C 262.1875 205.214844 263.496094 205.640625 264.804688 206.085938 C 265.617188 206.363281 266.429688 206.660156 267.234375 206.972656 C 267.347656 206.933594 267.496094 206.984375 267.570312 207.101562 C 269.101562 207.707031 270.613281 208.371094 272.074219 209.132812 L 272.101562 209.128906 C 273.785156 209.054688 275.242188 208.167969 276.824219 207.707031 C 278.535156 207.210938 280.160156 207.464844 281.855469 207.875 C 282.171875 207.957031 282.101562 208.46875 281.78125 208.386719 C 280.929688 208.179688 280.070312 207.96875 279.191406 207.925781 C 278.304688 207.882812 277.433594 208.035156 276.59375 208.320312 C 275.355469 208.734375 274.171875 209.34375 272.875 209.5625 C 275.113281 210.804688 277.164062 212.347656 279.417969 213.558594 C 282.191406 215.050781 285.203125 216.039062 288.1875 217.007812 C 288.503906 217.113281 288.300781 217.589844 287.984375 217.484375 " fill-opacity="1" fill-rule="nonzero"/><path fill="#a2ddd0" d="M 284.101562 181.160156 C 287.445312 178.648438 290.285156 175.46875 292.15625 171.386719 C 294.101562 167.144531 295.035156 162.402344 295.953125 157.710938 C 296.09375 156.980469 295.480469 156.171875 294.816406 156.542969 C 291.84375 158.179688 288.46875 156.675781 285.371094 155.804688 C 282.824219 155.085938 280.265625 154.445312 277.683594 154.011719 C 272.457031 153.136719 267.109375 153.121094 262.160156 154.976562 C 259.5 155.972656 257.078125 157.542969 254.964844 159.523438 C 254.011719 160.25 253.085938 161.035156 252.226562 161.933594 C 247.683594 166.679688 244.550781 174.03125 245.273438 181.417969 C 245.632812 185.097656 248.238281 185.976562 251.03125 187.050781 C 254.671875 188.445312 258.492188 189.167969 262.269531 189.175781 C 270.140625 189.195312 277.71875 185.945312 284.101562 181.160156 " fill-opacity="1" fill-rule="nonzero"/><path fill="#e0fbf0" d="M 264.246094 188.394531 C 262.640625 186.25 260.257812 185.167969 257.613281 185.074219 C 256.121094 185.019531 254.753906 184.929688 253.347656 184.367188 C 252 183.832031 250.773438 183.046875 249.558594 182.257812 C 251.671875 180.386719 253.839844 178.570312 256.175781 176.96875 L 256.359375 176.847656 C 263.269531 178.355469 267.882812 184.558594 274.648438 186.453125 C 275.144531 186.589844 275.402344 185.839844 274.90625 185.699219 C 268.359375 183.871094 263.835938 177.996094 257.273438 176.253906 C 260.117188 174.472656 263.179688 173.132812 266.351562 172.011719 C 267.414062 171.636719 268.484375 171.265625 269.554688 170.902344 C 271.316406 171.582031 272.777344 172.769531 274.371094 173.761719 C 275.757812 174.628906 277.226562 175.222656 278.832031 175.550781 C 282.042969 176.195312 285.355469 175.914062 288.566406 176.585938 C 289.0625 176.6875 289.324219 175.929688 288.820312 175.828125 C 285.675781 175.171875 282.4375 175.402344 279.277344 174.828125 C 277.425781 174.488281 275.804688 173.761719 274.238281 172.726562 C 273.0625 171.949219 271.921875 171.136719 270.667969 170.523438 C 274.246094 169.304688 277.816406 168.085938 281.28125 166.59375 C 285.550781 167.539062 290.195312 168.3125 293.988281 165.585938 C 294.40625 165.28125 293.882812 164.679688 293.472656 164.972656 C 290.230469 167.304688 286.21875 166.824219 282.519531 166.054688 C 283.824219 165.46875 285.113281 164.832031 286.382812 164.140625 C 289.835938 162.257812 293.074219 159.992188 295.894531 157.234375 C 296.261719 156.878906 295.742188 156.269531 295.375 156.628906 C 291.296875 160.609375 286.390625 163.480469 281.214844 165.769531 C 281.019531 165.730469 280.863281 165.832031 280.777344 165.964844 C 280.234375 166.207031 279.683594 166.433594 279.128906 166.652344 C 279.371094 165.46875 279.753906 164.324219 280.242188 163.226562 C 281.339844 160.761719 282.933594 158.5 284.488281 156.316406 C 284.792969 155.894531 284.125 155.445312 283.828125 155.863281 C 281.410156 159.269531 278.96875 162.816406 278.261719 167.003906 C 277.824219 167.179688 277.390625 167.351562 276.953125 167.515625 C 274.5 168.441406 271.984375 169.253906 269.480469 170.085938 L 269.433594 170.101562 C 268.09375 170.546875 266.757812 171 265.4375 171.492188 C 265.269531 168.355469 266.921875 165.546875 268.566406 162.996094 C 270.367188 160.203125 271.933594 157.449219 272.765625 154.207031 C 272.890625 153.714844 272.132812 153.453125 272.007812 153.953125 C 271.542969 155.757812 270.890625 157.5 270.003906 159.144531 C 269.136719 160.742188 268.078125 162.226562 267.132812 163.773438 C 265.636719 166.214844 264.449219 168.875 264.660156 171.789062 C 261.878906 172.851562 259.171875 174.082031 256.648438 175.707031 C 255.066406 176.726562 253.570312 177.851562 252.113281 179.035156 C 250.957031 175.484375 252.859375 171.890625 254.515625 168.804688 C 256.277344 165.550781 257.550781 162.304688 257.65625 158.570312 C 257.667969 158.054688 256.875 158.003906 256.855469 158.511719 C 256.800781 160.546875 256.441406 162.542969 255.730469 164.453125 C 254.953125 166.550781 253.757812 168.449219 252.757812 170.4375 C 251.34375 173.261719 250.351562 176.484375 251.460938 179.570312 C 249.859375 180.898438 248.304688 182.304688 246.753906 183.703125 C 246.375 184.042969 246.890625 184.660156 247.277344 184.3125 C 247.828125 183.8125 248.382812 183.3125 248.9375 182.8125 C 251.152344 184.242188 253.453125 185.648438 256.144531 185.820312 C 257.589844 185.917969 258.976562 185.84375 260.351562 186.378906 C 261.679688 186.890625 262.789062 187.785156 263.636719 188.917969 C 263.945312 189.324219 264.550781 188.808594 264.246094 188.394531 " fill-opacity="1" fill-rule="nonzero"/><path fill="#20615e" d="M 297.945312 328.53125 C 298.375 326.925781 299.429688 325.589844 300.515625 324.371094 C 302.761719 321.847656 305.164062 319.460938 307.671875 317.1875 L 324.605469 317.1875 C 324.082031 318.523438 323.34375 319.773438 322.40625 320.855469 C 321.582031 321.800781 320.601562 322.570312 319.582031 323.300781 C 318.523438 324.054688 317.484375 324.828125 316.503906 325.6875 C 316.261719 325.902344 316.019531 326.121094 315.789062 326.347656 C 318.296875 327.21875 321.117188 329.648438 323.519531 330.820312 L 322.722656 338.984375 C 320.679688 338.722656 309.515625 336.417969 307.570312 335.78125 C 307.570312 335.78125 304.550781 335.476562 302.894531 335.039062 C 301.578125 334.695312 299.109375 333.472656 298.363281 332.28125 C 297.664062 331.171875 297.609375 329.773438 297.945312 328.53125 " fill-opacity="1" fill-rule="nonzero"/><path fill="#8dc5ea" d="M 280.722656 307.367188 C 284.410156 307.882812 297.082031 308.480469 298.800781 308.3125 C 298.835938 308.214844 303.082031 294.207031 308.988281 289.617188 C 313.03125 292.21875 311.378906 303.582031 311.378906 303.582031 C 310.894531 304.796875 310.230469 306.710938 309.699219 307.910156 C 309.246094 308.933594 309.039062 309.339844 308.082031 309.917969 C 307.0625 310.53125 305.90625 310.859375 304.757812 311.136719 C 303.46875 311.449219 302.214844 311.78125 300.996094 312.300781 C 299.773438 312.820312 298.570312 313.371094 297.335938 313.847656 C 296.101562 314.324219 293.976562 314.878906 292.652344 314.984375 C 291.355469 315.089844 279.664062 312.597656 279.664062 312.484375 C 279.664062 310.949219 280.722656 307.367188 280.722656 307.367188 " fill-opacity="1" fill-rule="nonzero"/><path fill="#4693b9" d="M 282.875 329.941406 L 288.816406 328.898438 L 282.253906 291.511719 L 276.3125 292.554688 L 282.875 329.941406 " fill-opacity="1" fill-rule="nonzero"/><path fill="#4693b9" d="M 274.660156 278.636719 L 276.113281 286.921875 L 280.519531 286.144531 L 279.066406 277.863281 C 282.28125 278.273438 284.996094 280.71875 285.582031 284.074219 C 286.308594 288.199219 283.546875 292.121094 279.421875 292.847656 C 275.296875 293.570312 271.367188 290.816406 270.644531 286.695312 C 270.054688 283.335938 271.773438 280.113281 274.660156 278.636719 " fill-opacity="1" fill-rule="nonzero"/><path fill="#4693b9" d="M 285.523438 340.507812 L 284.066406 332.226562 L 288.472656 331.453125 L 289.925781 339.734375 C 292.8125 338.261719 294.53125 335.039062 293.941406 331.679688 C 293.21875 327.558594 289.285156 324.804688 285.164062 325.527344 C 281.039062 326.25 278.277344 330.175781 279 334.300781 C 279.589844 337.652344 282.308594 340.101562 285.523438 340.507812 " fill-opacity="1" fill-rule="nonzero"/><path fill="#98d4fc" d="M 284.972656 324.460938 C 285.40625 324.382812 285.699219 323.972656 285.621094 323.539062 L 280.660156 295.277344 C 280.582031 294.847656 280.171875 294.554688 279.742188 294.632812 C 279.304688 294.707031 279.019531 295.121094 279.09375 295.550781 L 284.054688 323.8125 C 284.128906 324.25 284.539062 324.535156 284.972656 324.460938 " fill-opacity="1" fill-rule="nonzero"/><path fill="#ffa18a" d="M 280.003906 305.804688 L 280 305.8125 C 280.332031 305.738281 280.515625 305.683594 280.960938 305.492188 C 281.28125 305.359375 282.433594 304.863281 282.726562 304.855469 C 282.921875 304.847656 283.175781 304.90625 283.25 305.113281 C 283.328125 305.332031 283.1875 305.5625 283.050781 305.71875 C 282.855469 305.945312 282.59375 306.109375 282.324219 306.238281 C 282.117188 306.335938 281.175781 306.953125 280.402344 307.457031 C 281.367188 308.917969 283.050781 310.398438 279.890625 309.101562 C 279.699219 309.449219 282.023438 310 281.363281 311.210938 C 281.414062 311.519531 281.550781 312.269531 280.425781 312.175781 C 281.269531 313.835938 274.945312 312.023438 276.828125 308.855469 C 277.789062 307.699219 276.640625 307.070312 280.003906 305.804688 " fill-opacity="1" fill-rule="nonzero"/><path fill="#ffa18a" d="M 314.324219 279.351562 C 312.199219 280.105469 309.519531 273.789062 305.558594 271.535156 C 293.488281 269.332031 302.214844 297.890625 314.324219 279.351562 " fill-opacity="1" fill-rule="nonzero"/><path fill="#ffa18a" d="M 282.898438 319.984375 C 279.894531 323.171875 281.207031 323.449219 282 323.019531 C 281.800781 324.121094 282.679688 323.949219 282.984375 323.484375 C 285.917969 323 287.203125 318.34375 290.011719 319.21875 C 290.011719 319.21875 289.4375 317.617188 289.117188 314.984375 C 280.324219 315.15625 281.273438 318.234375 283.800781 317.214844 C 280.261719 320.808594 280.667969 320.160156 280.25 320.730469 C 279.800781 323.621094 282.863281 319.882812 282.898438 319.984375 " fill-opacity="1" fill-rule="nonzero"/><path fill="#ffa18a" d="M 315.417969 287.945312 C 314.40625 288.726562 311.253906 292.957031 309.480469 291.90625 L 307.097656 281.007812 L 314.324219 279.351562 C 314.324219 279.351562 314.453125 280.046875 314.726562 281.0625 C 315.144531 282.632812 316.492188 284.023438 317.601562 285.671875 C 317.71875 285.84375 315.585938 287.820312 315.417969 287.945312 " fill-opacity="1" fill-rule="nonzero"/><path fill="#a55852" d="M 299.484375 274.347656 C 298.898438 274.082031 298.203125 274.078125 297.71875 273.613281 C 297.339844 273.246094 297.152344 272.726562 297.058594 272.21875 C 296.789062 270.761719 296.480469 269.488281 296.996094 268.132812 C 297.761719 266.125 299.957031 265.03125 301.035156 264.820312 C 303.433594 264.363281 306.890625 264.066406 309.839844 265.09375 C 310.609375 265.359375 311.078125 266.101562 311.824219 266.425781 C 316.632812 268.527344 314.390625 273.765625 314.613281 274.832031 C 314.996094 276.652344 316.074219 278.785156 315.445312 280.5625 C 315.136719 281.449219 313.53125 282.117188 312.53125 282.210938 C 311.941406 282.269531 311.554688 282.128906 311.261719 281.839844 C 311.191406 281.652344 311.1875 281.457031 311.304688 281.28125 C 308.207031 276.613281 313.515625 278.769531 304.46875 274.554688 C 303.636719 274.007812 301.785156 274.5 300.210938 274.085938 C 300.238281 274.222656 300.042969 274.4375 299.515625 274.371094 L 299.484375 274.347656 " fill-opacity="1" fill-rule="nonzero"/><path fill="#ffa18a" d="M 310.566406 276.023438 C 310.640625 276.851562 310.332031 277.554688 309.496094 277.644531 C 308.746094 277.722656 308.019531 277.261719 307.851562 276.453125 C 307.683594 275.636719 308.144531 274.871094 308.878906 274.703125 C 310.214844 274.402344 310.496094 275.234375 310.566406 276.023438 " fill-opacity="1" fill-rule="nonzero"/><path fill="#98d4fc" d="M 288.628906 314.722656 C 291.382812 313.492188 294.003906 312.980469 296.683594 312.117188 C 298.066406 311.671875 305.488281 308.261719 306.214844 308.054688 L 306.238281 308.007812 C 306.046875 307.339844 305.996094 306.695312 305.96875 305.945312 C 305.933594 305.011719 306.464844 300.292969 306.777344 298.660156 C 307.113281 296.910156 307.425781 295.148438 307.824219 293.410156 C 308.125 292.101562 308.511719 290.839844 308.988281 289.617188 C 309.089844 290.101562 309.183594 290.558594 309.277344 290.976562 C 310.085938 288.929688 312.894531 286.820312 315.070312 285.789062 C 317.859375 284.460938 320.277344 284.621094 322.796875 286.230469 C 325.472656 287.933594 327.089844 290.011719 328.472656 292.828125 C 331.9375 299.855469 333.085938 301.613281 336.109375 308.566406 C 337.609375 312.023438 339.097656 317.105469 337.796875 321.550781 L 337.667969 321.460938 C 331.589844 317.585938 324.382812 317.019531 317.625 318.28125 C 315.5625 318.664062 311.3125 319.644531 311.3125 319.644531 C 310.683594 318.214844 310.035156 316.792969 309.386719 315.371094 C 308.542969 315.527344 307.710938 315.71875 306.890625 315.988281 C 305.632812 316.40625 304.386719 316.859375 303.117188 317.230469 C 301.847656 317.605469 300.558594 317.925781 299.265625 318.203125 C 296.738281 318.734375 294.171875 319.078125 291.59375 319.226562 C 290.851562 319.269531 288.574219 319.472656 288.574219 319.472656 C 289.34375 316.820312 288.539062 314.6875 288.628906 314.722656 " fill-opacity="1" fill-rule="nonzero"/><path fill="#25716d" d="M 313.492188 325.589844 C 313.675781 328.742188 312.625 331.992188 312.582031 335.148438 L 304.449219 335.148438 C 304.171875 333.929688 301.777344 323.65625 301.625 321.617188 C 301.625 321.617188 300.746094 318.714844 300.515625 317.019531 C 300.335938 315.667969 300.515625 312.921875 301.332031 311.78125 C 302.089844 310.707031 303.363281 310.128906 304.640625 309.960938 C 306.285156 309.742188 307.929688 310.203125 309.464844 310.738281 C 312.828125 311.898438 316.113281 313.277344 319.320312 314.808594 C 319.445312 314.839844 319.566406 314.871094 319.6875 314.90625 C 321.191406 315.367188 322.5625 316.140625 324.023438 316.691406 C 325.484375 317.25 327.015625 317.574219 328.535156 317.902344 C 330.074219 318.242188 331.597656 318.609375 333.074219 319.160156 C 334.679688 319.765625 336.21875 320.539062 337.667969 321.460938 C 335.980469 325.539062 332.441406 328.839844 328.097656 329.875 C 325.800781 330.417969 323.34375 330.34375 321.101562 329.597656 C 319.910156 329.199219 318.824219 328.589844 317.761719 327.925781 C 316.65625 327.238281 315.546875 326.574219 314.378906 325.996094 C 314.082031 325.859375 313.789062 325.722656 313.492188 325.589844 " fill-opacity="1" fill-rule="nonzero"/><path fill="#12252e" d="M 294.414062 351.386719 C 294.605469 350.363281 295.328125 349.667969 296.144531 349.125 C 297.703125 348.070312 302.582031 346.679688 303.101562 346.214844 C 304.101562 345.324219 304.285156 343.871094 304.242188 342.585938 C 304.144531 339.875 303.796875 337.148438 303.570312 334.449219 C 303.570312 334.449219 307 335.28125 312.878906 334.335938 C 312.878906 334.335938 312.480469 339.183594 312.28125 341.613281 C 312.183594 342.800781 312.078125 343.988281 312.167969 345.179688 C 312.25 346.222656 312.476562 347.242188 312.683594 348.265625 C 312.894531 349.28125 313.097656 350.308594 313.132812 351.351562 C 313.136719 351.539062 313.132812 351.917969 313.132812 351.917969 C 312.484375 352.578125 310.953125 352.527344 310.226562 352.492188 C 308.402344 352.417969 306.640625 352.136719 304.800781 352.25 C 302.433594 352.40625 300.085938 352.792969 297.710938 352.886719 C 296.898438 352.914062 296.121094 352.90625 295.386719 352.785156 C 294.441406 352.542969 294.363281 351.667969 294.414062 351.386719 " fill-opacity="1" fill-rule="nonzero"/><path fill="#12252e" d="M 335.726562 352.132812 C 334.757812 351.71875 334.242188 350.863281 333.886719 349.949219 C 333.203125 348.203125 332.902344 343.140625 332.566406 342.53125 C 331.910156 341.363281 330.527344 340.867188 329.265625 340.628906 C 326.597656 340.132812 323.863281 339.878906 321.167969 339.515625 C 321.167969 339.515625 322.734375 336.347656 323.089844 330.410156 C 323.089844 330.410156 327.742188 331.855469 330.070312 332.578125 C 331.203125 332.933594 332.347656 333.292969 333.523438 333.460938 C 334.5625 333.617188 335.613281 333.621094 336.65625 333.636719 C 337.695312 333.652344 338.742188 333.675781 339.769531 333.875 C 339.949219 333.910156 340.324219 333.996094 340.324219 333.996094 C 340.828125 334.769531 340.4375 336.253906 340.25 336.953125 C 339.773438 338.714844 339.117188 340.375 338.835938 342.191406 C 338.464844 344.535156 338.332031 346.910156 337.902344 349.242188 C 337.753906 350.042969 337.578125 350.796875 337.304688 351.492188 C 336.859375 352.359375 335.984375 352.246094 335.726562 352.132812 " fill-opacity="1" fill-rule="nonzero"/><path fill="#a2ddd0" d="M 30.066406 352.855469 C 30.066406 352.855469 44.492188 325.753906 32.777344 326.035156 C 27.953125 326.15625 23.792969 347.707031 23.792969 347.707031 C 23.792969 347.707031 24.738281 328.042969 15.097656 331.125 C 9.882812 332.796875 17.773438 347.707031 17.773438 347.707031 C 17.773438 347.707031 10.628906 338.082031 6.613281 340.8125 C 0.0625 345.269531 12.082031 352.929688 12.082031 352.929688 L 30.066406 352.855469 " fill-opacity="1" fill-rule="nonzero"/><path fill="#a2ddd0" d="M 36.394531 352.828125 C 36.394531 352.828125 38.9375 338.480469 44.523438 338.722656 C 48.523438 338.910156 44.914062 348.621094 41.527344 352.820312 C 41.527344 352.820312 36.550781 352.828125 36.394531 352.828125 " fill-opacity="1" fill-rule="nonzero"/><path fill="#e0fbf0" d="M 26.566406 352.871094 L 32.574219 331.628906 C 32.613281 331.484375 32.765625 331.402344 32.902344 331.4375 C 33.046875 331.480469 33.128906 331.628906 33.089844 331.773438 L 27.125 352.863281 L 26.566406 352.871094 " fill-opacity="1" fill-rule="nonzero"/><path fill="#e0fbf0" d="M 21.589844 352.890625 L 17.421875 335.699219 C 17.390625 335.558594 17.476562 335.410156 17.621094 335.375 C 17.765625 335.34375 17.910156 335.425781 17.945312 335.574219 L 22.140625 352.890625 L 21.589844 352.890625 " fill-opacity="1" fill-rule="nonzero"/><path fill="#e0fbf0" d="M 39.03125 352.820312 L 42.875 343.234375 C 42.929688 343.09375 43.089844 343.03125 43.222656 343.085938 C 43.359375 343.140625 43.429688 343.296875 43.375 343.433594 L 39.609375 352.820312 L 39.03125 352.820312 " fill-opacity="1" fill-rule="nonzero"/><path fill="#e0fbf0" d="M 17.167969 352.914062 L 9.601562 344.382812 C 9.503906 344.273438 9.511719 344.105469 9.621094 344.007812 C 9.734375 343.90625 9.902344 343.917969 10.003906 344.03125 L 17.882812 352.914062 L 17.167969 352.914062 " fill-opacity="1" fill-rule="nonzero"/><path fill="#29566d" d="M 137.910156 355.511719 L 235.117188 355.519531 C 244.429688 355.519531 251.984375 347.976562 251.984375 338.667969 L 251.996094 106.957031 C 251.996094 97.652344 244.445312 90.105469 235.132812 90.105469 L 137.925781 90.097656 C 128.609375 90.097656 121.058594 97.640625 121.058594 106.949219 L 121.042969 338.65625 C 121.042969 347.964844 128.59375 355.511719 137.910156 355.511719 " fill-opacity="1" fill-rule="nonzero"/><path fill="#c1e5fd" d="M 139.445312 95.09375 L 233.609375 95.101562 C 240.628906 95.101562 246.320312 100.785156 246.320312 107.800781 L 246.304688 337 C 246.304688 344.011719 240.613281 349.695312 233.597656 349.695312 L 139.429688 349.691406 C 132.414062 349.6875 126.722656 344.003906 126.722656 336.992188 L 126.738281 107.789062 C 126.738281 100.777344 132.425781 95.09375 139.445312 95.09375 " fill-opacity="1" fill-rule="nonzero"/><path fill="#ffd471" d="M 96.273438 214.835938 C 96.777344 210.199219 101.726562 207.570312 105.855469 209.746094 C 108.164062 210.964844 109.535156 213.542969 109.25 216.136719 C 108.75 220.769531 103.796875 223.398438 99.671875 221.222656 C 97.363281 220.003906 95.996094 217.425781 96.273438 214.835938 Z M 92.410156 213.585938 L 92.957031 213.75 C 93.21875 213.835938 93.378906 214.09375 93.34375 214.363281 C 93.285156 214.867188 93.261719 215.371094 93.28125 215.863281 C 93.292969 216.148438 93.105469 216.402344 92.824219 216.449219 L 92.222656 216.558594 C 91.96875 216.605469 91.800781 216.84375 91.84375 217.101562 L 92.097656 218.539062 C 92.148438 218.796875 92.386719 218.964844 92.644531 218.917969 L 93.402344 218.785156 C 93.664062 218.738281 93.917969 218.882812 94.019531 219.128906 C 94.210938 219.585938 94.429688 220.023438 94.691406 220.441406 C 94.824219 220.660156 94.804688 220.941406 94.625 221.128906 L 93.976562 221.796875 C 93.796875 221.980469 93.804688 222.273438 93.988281 222.457031 L 95.039062 223.472656 C 95.226562 223.65625 95.523438 223.648438 95.699219 223.460938 L 96.171875 222.980469 C 96.375 222.769531 96.699219 222.757812 96.929688 222.9375 C 97.382812 223.289062 97.878906 223.605469 98.402344 223.875 C 98.648438 224.003906 98.777344 224.277344 98.695312 224.539062 L 98.464844 225.296875 C 98.390625 225.546875 98.527344 225.804688 98.773438 225.882812 L 100.175781 226.308594 C 100.421875 226.382812 100.683594 226.246094 100.757812 226 L 100.992188 225.238281 C 101.070312 224.976562 101.332031 224.820312 101.605469 224.851562 C 102.070312 224.910156 102.535156 224.929688 102.992188 224.917969 C 103.273438 224.90625 103.519531 225.097656 103.570312 225.378906 L 103.722656 226.222656 C 103.765625 226.480469 104.011719 226.648438 104.269531 226.601562 L 105.707031 226.347656 C 105.960938 226.300781 106.128906 226.058594 106.085938 225.800781 L 105.914062 224.84375 C 105.867188 224.578125 106.019531 224.320312 106.265625 224.222656 C 106.835938 223.992188 107.382812 223.707031 107.898438 223.367188 C 108.121094 223.222656 108.410156 223.242188 108.601562 223.429688 L 109.15625 223.964844 C 109.34375 224.140625 109.640625 224.140625 109.820312 223.953125 L 110.832031 222.902344 C 111.015625 222.71875 111.011719 222.425781 110.824219 222.238281 L 110.386719 221.820312 C 110.183594 221.617188 110.167969 221.308594 110.335938 221.078125 C 110.628906 220.675781 110.894531 220.25 111.121094 219.796875 C 111.25 219.554688 111.523438 219.425781 111.789062 219.507812 L 112.410156 219.695312 C 112.660156 219.769531 112.921875 219.632812 112.996094 219.386719 L 113.425781 217.988281 C 113.503906 217.738281 113.359375 217.480469 113.113281 217.402344 L 112.488281 217.210938 C 112.226562 217.132812 112.070312 216.875 112.101562 216.597656 C 112.171875 216.019531 112.1875 215.4375 112.148438 214.867188 C 112.128906 214.578125 112.324219 214.320312 112.609375 214.269531 L 113.234375 214.15625 C 113.492188 214.113281 113.660156 213.871094 113.613281 213.613281 L 113.359375 212.175781 C 113.316406 211.917969 113.070312 211.75 112.8125 211.796875 L 111.945312 211.949219 C 111.691406 211.996094 111.441406 211.855469 111.339844 211.617188 C 111.140625 211.183594 110.910156 210.765625 110.652344 210.363281 C 110.507812 210.140625 110.527344 209.855469 110.714844 209.664062 L 111.429688 208.917969 C 111.613281 208.734375 111.609375 208.4375 111.421875 208.257812 L 110.371094 207.238281 C 110.1875 207.058594 109.890625 207.0625 109.707031 207.25 L 109.117188 207.859375 C 108.917969 208.066406 108.601562 208.082031 108.371094 207.910156 C 107.957031 207.601562 107.511719 207.328125 107.042969 207.089844 C 106.796875 206.964844 106.667969 206.691406 106.75 206.425781 L 106.984375 205.660156 C 107.058594 205.414062 106.921875 205.152344 106.671875 205.078125 L 105.273438 204.652344 C 105.027344 204.574219 104.765625 204.710938 104.6875 204.960938 L 104.453125 205.722656 C 104.375 205.984375 104.113281 206.144531 103.839844 206.113281 C 103.402344 206.0625 102.964844 206.039062 102.535156 206.046875 C 102.253906 206.050781 102.003906 205.863281 101.953125 205.589844 L 101.804688 204.734375 C 101.761719 204.476562 101.515625 204.308594 101.261719 204.355469 L 99.820312 204.609375 C 99.5625 204.652344 99.394531 204.898438 99.441406 205.152344 L 99.609375 206.09375 C 99.65625 206.355469 99.503906 206.613281 99.253906 206.710938 C 98.714844 206.925781 98.191406 207.1875 97.699219 207.496094 C 97.476562 207.636719 97.195312 207.613281 97.007812 207.429688 L 96.304688 206.75 C 96.121094 206.570312 95.820312 206.574219 95.640625 206.757812 L 94.625 207.808594 C 94.441406 207.996094 94.449219 208.292969 94.632812 208.472656 L 95.175781 208.996094 C 95.378906 209.195312 95.394531 209.515625 95.222656 209.746094 C 94.882812 210.1875 94.582031 210.660156 94.320312 211.167969 C 94.199219 211.414062 93.921875 211.539062 93.660156 211.460938 L 93.113281 211.292969 C 92.863281 211.214844 92.601562 211.355469 92.527344 211.601562 L 92.097656 213 C 92.023438 213.246094 92.164062 213.511719 92.410156 213.585938 " fill-opacity="1" fill-rule="nonzero"/><path fill="#2a817d" d="M 98.125 237.367188 C 101.511719 242.898438 98.992188 250.113281 92.898438 252.339844 C 88.378906 253.988281 83.21875 252.1875 80.710938 248.089844 C 77.316406 242.558594 79.835938 235.34375 85.933594 233.121094 C 90.449219 231.472656 95.617188 233.273438 98.125 237.367188 Z M 74.917969 249.675781 C 75.382812 250.792969 76.683594 251.28125 77.761719 250.765625 L 78.09375 250.609375 C 78.722656 250.308594 79.464844 250.472656 79.917969 250.996094 C 80.632812 251.8125 81.4375 252.523438 82.3125 253.121094 C 82.925781 253.53125 83.171875 254.296875 82.898438 254.976562 L 82.824219 255.167969 C 82.375 256.277344 82.945312 257.542969 84.089844 257.933594 C 85.164062 258.300781 86.332031 257.675781 86.753906 256.625 L 86.914062 256.230469 C 87.164062 255.605469 87.796875 255.226562 88.46875 255.277344 C 89.5625 255.363281 90.675781 255.300781 91.773438 255.089844 C 92.464844 254.957031 93.160156 255.292969 93.464844 255.925781 L 93.578125 256.167969 C 94.101562 257.242188 95.421875 257.671875 96.480469 257.089844 C 97.476562 256.546875 97.796875 255.261719 97.304688 254.242188 L 97.242188 254.101562 C 96.929688 253.472656 97.105469 252.714844 97.640625 252.253906 C 98.359375 251.640625 98.992188 250.953125 99.539062 250.214844 C 99.964844 249.640625 100.710938 249.414062 101.371094 249.675781 L 101.53125 249.742188 C 102.640625 250.1875 103.90625 249.617188 104.296875 248.476562 C 104.664062 247.402344 104.042969 246.234375 102.988281 245.8125 L 102.871094 245.765625 C 102.222656 245.503906 101.84375 244.835938 101.925781 244.136719 C 102.0625 242.957031 102.03125 241.75 101.820312 240.554688 C 101.699219 239.863281 102.039062 239.183594 102.667969 238.878906 L 102.996094 238.722656 C 104.074219 238.207031 104.511719 236.890625 103.933594 235.832031 C 103.390625 234.835938 102.105469 234.507812 101.085938 234.996094 L 100.925781 235.074219 C 100.28125 235.378906 99.523438 235.195312 99.066406 234.648438 C 98.390625 233.835938 97.621094 233.121094 96.777344 232.511719 C 96.199219 232.09375 95.960938 231.34375 96.230469 230.683594 L 96.457031 230.125 C 96.902344 229.015625 96.335938 227.75 95.1875 227.355469 C 94.117188 226.988281 92.949219 227.613281 92.523438 228.664062 L 92.285156 229.265625 C 92.023438 229.90625 91.367188 230.285156 90.675781 230.214844 C 89.484375 230.09375 88.269531 230.140625 87.0625 230.367188 C 86.367188 230.5 85.671875 230.171875 85.363281 229.535156 L 85.195312 229.183594 C 84.675781 228.109375 83.359375 227.675781 82.296875 228.257812 C 81.304688 228.804688 80.980469 230.089844 81.472656 231.105469 L 81.59375 231.355469 C 81.898438 231.988281 81.726562 232.742188 81.191406 233.203125 C 80.742188 233.589844 80.203125 234.203125 79.730469 234.777344 C 79.019531 235.648438 77.875 236.035156 76.78125 235.769531 L 76.578125 235.71875 C 75.421875 235.433594 74.246094 236.171875 74.019531 237.359375 C 73.808594 238.476562 74.589844 239.542969 75.695312 239.8125 L 75.726562 239.820312 C 76.484375 240.007812 76.964844 240.726562 76.886719 241.507812 C 76.769531 242.710938 76.820312 243.941406 77.0625 245.15625 C 77.199219 245.855469 76.863281 246.554688 76.222656 246.859375 L 76.058594 246.933594 C 75.039062 247.421875 74.484375 248.628906 74.917969 249.675781 " fill-opacity="1" fill-rule="nonzero"/><path fill="#2a817d" d="M 87.84375 243.488281 C 87.425781 242.621094 87.789062 241.578125 88.65625 241.160156 C 89.523438 240.746094 90.566406 241.105469 90.984375 241.972656 C 91.40625 242.839844 91.042969 243.878906 90.171875 244.300781 C 89.304688 244.71875 88.265625 244.355469 87.84375 243.488281 Z M 85.09375 244.746094 C 86.238281 247.121094 89.09375 248.117188 91.464844 246.96875 C 93.839844 245.824219 94.832031 242.972656 93.6875 240.601562 C 92.539062 238.230469 89.683594 237.234375 87.3125 238.378906 C 84.941406 239.527344 83.945312 242.375 85.09375 244.746094 " fill-opacity="1" fill-rule="nonzero"/><path fill="#98d4fc" d="M 86.273438 218.453125 C 86.429688 221.558594 83.714844 224.015625 80.636719 223.550781 C 78.363281 223.207031 76.605469 221.265625 76.492188 218.96875 C 76.339844 215.867188 79.054688 213.410156 82.132812 213.875 C 84.40625 214.21875 86.164062 216.160156 86.273438 218.453125 Z M 73.695312 218.304688 C 73.632812 218.878906 74.066406 219.386719 74.640625 219.414062 L 74.816406 219.425781 C 75.148438 219.441406 75.421875 219.683594 75.492188 220.007812 C 75.605469 220.515625 75.78125 220.996094 76.015625 221.449219 C 76.171875 221.761719 76.101562 222.140625 75.828125 222.367188 L 75.753906 222.425781 C 75.3125 222.792969 75.261719 223.453125 75.652344 223.878906 C 76.019531 224.28125 76.652344 224.285156 77.074219 223.941406 L 77.230469 223.8125 C 77.476562 223.609375 77.832031 223.589844 78.101562 223.769531 C 78.542969 224.054688 79.023438 224.285156 79.535156 224.449219 C 79.855469 224.546875 80.070312 224.851562 80.054688 225.1875 L 80.046875 225.316406 C 80.019531 225.886719 80.472656 226.371094 81.054688 226.371094 C 81.59375 226.371094 82.027344 225.902344 82.054688 225.363281 L 82.058594 225.289062 C 82.074219 224.953125 82.324219 224.675781 82.652344 224.605469 C 83.09375 224.507812 83.519531 224.367188 83.917969 224.179688 C 84.230469 224.035156 84.597656 224.113281 84.8125 224.375 L 84.867188 224.441406 C 85.230469 224.882812 85.890625 224.933594 86.320312 224.542969 C 86.71875 224.175781 86.726562 223.542969 86.382812 223.121094 L 86.34375 223.078125 C 86.128906 222.816406 86.121094 222.449219 86.316406 222.175781 C 86.648438 221.710938 86.914062 221.195312 87.097656 220.644531 C 87.207031 220.328125 87.507812 220.117188 87.839844 220.136719 L 88.015625 220.144531 C 88.585938 220.175781 89.070312 219.722656 89.074219 219.144531 C 89.078125 218.601562 88.609375 218.167969 88.066406 218.140625 L 87.980469 218.132812 C 87.640625 218.117188 87.363281 217.867188 87.300781 217.53125 C 87.199219 217.035156 87.039062 216.554688 86.828125 216.105469 C 86.679688 215.800781 86.753906 215.429688 87.019531 215.210938 L 87.242188 215.027344 C 87.6875 214.664062 87.738281 214.003906 87.34375 213.574219 C 86.980469 213.175781 86.34375 213.167969 85.925781 213.515625 L 85.683594 213.710938 C 85.429688 213.921875 85.0625 213.929688 84.792969 213.742188 C 84.320312 213.414062 83.796875 213.15625 83.234375 212.980469 C 82.914062 212.875 82.699219 212.574219 82.714844 212.238281 L 82.726562 212.046875 C 82.753906 211.476562 82.300781 210.996094 81.71875 210.996094 C 81.171875 210.996094 80.742188 211.460938 80.71875 212.003906 L 80.710938 212.132812 C 80.695312 212.472656 80.449219 212.75 80.117188 212.820312 C 79.839844 212.878906 79.472656 213.011719 79.144531 213.148438 C 78.644531 213.347656 78.074219 213.25 77.671875 212.886719 L 77.601562 212.820312 C 77.179688 212.433594 76.519531 212.476562 76.148438 212.921875 C 75.804688 213.339844 75.886719 213.96875 76.285156 214.335938 L 76.300781 214.347656 C 76.578125 214.597656 76.609375 215.011719 76.398438 215.324219 C 76.074219 215.800781 75.8125 216.328125 75.632812 216.898438 C 75.53125 217.21875 75.226562 217.4375 74.890625 217.421875 L 74.804688 217.414062 C 74.261719 217.386719 73.753906 217.765625 73.695312 218.304688 " fill-opacity="1" fill-rule="nonzero"/><path fill="#ffa18a" d="M 97.753906 256.144531 C 97.511719 255.898438 96.703125 255.132812 96.402344 255.671875 C 96.34375 255.78125 96.34375 255.910156 96.367188 256.03125 C 96.148438 255.761719 95.851562 255.527344 95.519531 255.453125 C 95.121094 255.363281 94.878906 255.648438 94.9375 256.023438 C 94.875 255.96875 94.808594 255.914062 94.730469 255.875 C 94.574219 255.78125 94.378906 255.671875 94.195312 255.664062 C 93.800781 255.636719 93.730469 256.078125 93.808594 256.378906 C 93.6875 256.300781 93.554688 256.25 93.410156 256.273438 C 93.265625 256.296875 93.160156 256.398438 93.125 256.542969 C 93.027344 256.929688 93.359375 257.308594 93.574219 257.589844 C 93.632812 257.667969 93.683594 257.746094 93.730469 257.828125 C 93.445312 257.921875 93.152344 257.980469 92.855469 258.007812 C 92.265625 258.054688 91.695312 258.015625 91.109375 257.894531 C 90.628906 257.789062 90.171875 257.695312 89.675781 257.761719 C 88.644531 257.914062 87.777344 258.59375 86.945312 259.171875 C 84.917969 260.582031 82.824219 261.886719 80.675781 263.09375 L 82.632812 266.316406 C 84.21875 265.070312 85.808594 263.800781 87.53125 262.75 C 88.367188 262.238281 89.25 261.785156 90.1875 261.5 C 91.128906 261.214844 92.082031 261.15625 93.058594 261.1875 C 93.957031 261.214844 94.882812 261.269531 95.753906 260.988281 C 96.523438 260.75 97.15625 260.238281 97.703125 259.667969 C 98.132812 259.21875 98.816406 258.613281 98.78125 257.933594 C 98.746094 257.289062 98.1875 256.59375 97.753906 256.144531 " fill-opacity="1" fill-rule="nonzero"/><path fill="#ffa18a" d="M 65.300781 338.507812 L 71.851562 338.507812 C 71.804688 337.757812 71.773438 337.007812 71.78125 336.253906 C 71.789062 333.667969 72.082031 331.074219 72.417969 328.515625 C 72.738281 326.046875 73.242188 323.628906 74.125 321.300781 C 74.597656 320.058594 75.113281 318.828125 75.390625 317.523438 C 75.609375 316.515625 75.660156 315.492188 75.578125 314.476562 L 66.261719 314.476562 C 66.375 316.308594 66.484375 318.136719 65.882812 319.902344 C 65.558594 320.855469 65.199219 321.792969 64.964844 322.78125 C 64.734375 323.734375 64.582031 324.703125 64.484375 325.679688 C 64.078125 329.78125 64.6875 333.921875 65.230469 337.984375 C 65.25 338.15625 65.28125 338.332031 65.300781 338.507812 " fill-opacity="1" fill-rule="nonzero"/><path fill="#ffd471" d="M 71.945312 338.507812 C 72.015625 337.859375 72.085938 337.214844 72.148438 336.574219 C 72.148438 336.574219 70.164062 336.785156 64.753906 336.492188 C 64.753906 336.492188 64.835938 337.398438 64.9375 338.507812 L 71.945312 338.507812 " fill-opacity="1" fill-rule="nonzero"/><path fill="#091317" d="M 79.648438 351.621094 C 79.488281 350.785156 78.902344 350.226562 78.246094 349.78125 C 76.976562 348.925781 73.015625 347.800781 72.597656 347.421875 C 71.78125 346.691406 71.632812 345.515625 71.671875 344.472656 C 71.746094 342.273438 72.03125 340.058594 72.21875 337.867188 C 72.21875 337.867188 69.429688 338.546875 64.660156 337.773438 C 64.660156 337.773438 64.980469 341.714844 65.144531 343.6875 C 65.222656 344.644531 65.308594 345.613281 65.230469 346.578125 C 65.167969 347.421875 64.988281 348.257812 64.816406 349.085938 C 64.644531 349.914062 64.476562 350.746094 64.449219 351.589844 C 64.449219 351.742188 64.449219 352.054688 64.449219 352.054688 C 64.976562 352.585938 66.226562 352.542969 66.8125 352.519531 C 68.292969 352.453125 69.71875 352.226562 71.214844 352.324219 C 73.136719 352.449219 75.042969 352.761719 76.972656 352.832031 C 77.632812 352.859375 78.261719 352.855469 78.859375 352.757812 C 79.625 352.558594 79.691406 351.847656 79.648438 351.621094 " fill-opacity="1" fill-rule="nonzero"/><path fill="#ffa18a" d="M 54.097656 338.507812 L 60.644531 338.507812 C 60.601562 337.757812 60.570312 337.007812 60.570312 336.253906 C 60.585938 333.667969 60.875 331.074219 61.210938 328.515625 C 61.53125 326.046875 62.035156 323.628906 62.917969 321.300781 C 63.386719 320.058594 63.902344 318.828125 64.183594 317.523438 C 64.398438 316.515625 64.457031 315.492188 64.371094 314.476562 L 55.054688 314.476562 C 55.164062 316.308594 55.273438 318.136719 54.675781 319.902344 C 54.347656 320.855469 53.996094 321.792969 53.757812 322.78125 C 53.527344 323.734375 53.375 324.703125 53.277344 325.679688 C 52.871094 329.78125 53.480469 333.921875 54.019531 337.984375 C 54.042969 338.15625 54.070312 338.332031 54.097656 338.507812 " fill-opacity="1" fill-rule="nonzero"/><path fill="#ffd471" d="M 60.738281 338.507812 C 60.808594 337.859375 60.878906 337.214844 60.941406 336.574219 C 60.941406 336.574219 58.953125 336.785156 53.546875 336.492188 C 53.546875 336.492188 53.628906 337.398438 53.730469 338.507812 L 60.738281 338.507812 " fill-opacity="1" fill-rule="nonzero"/><path fill="#12252e" d="M 68.441406 351.621094 C 68.285156 350.785156 67.699219 350.226562 67.039062 349.78125 C 65.769531 348.925781 61.8125 347.800781 61.386719 347.421875 C 60.578125 346.691406 60.425781 345.515625 60.460938 344.472656 C 60.542969 342.273438 60.820312 340.058594 61.011719 337.867188 C 61.011719 337.867188 58.21875 338.546875 53.449219 337.773438 C 53.449219 337.773438 53.777344 341.714844 53.9375 343.6875 C 54.015625 344.644531 54.097656 345.613281 54.027344 346.578125 C 53.960938 347.421875 53.78125 348.257812 53.609375 349.085938 C 53.441406 349.914062 53.273438 350.746094 53.246094 351.589844 C 53.242188 351.742188 53.246094 352.054688 53.246094 352.054688 C 53.769531 352.585938 55.015625 352.542969 55.605469 352.519531 C 57.085938 352.453125 58.515625 352.226562 60.007812 352.324219 C 61.933594 352.449219 63.835938 352.761719 65.765625 352.832031 C 66.425781 352.859375 67.054688 352.855469 67.652344 352.757812 C 68.417969 352.558594 68.484375 351.847656 68.441406 351.621094 " fill-opacity="1" fill-rule="nonzero"/><path fill="#ffa18a" d="M 61.625 252.449219 C 63.828125 252.289062 68.625 246.359375 68.304688 246.382812 C 66.242188 245.820312 65.507812 245.933594 64.136719 245.6875 C 63.40625 245.554688 62.84375 244.976562 62.777344 244.242188 L 62.65625 242.925781 C 64.261719 242.707031 65.617188 241.246094 66.542969 239.464844 C 67.300781 238.003906 67.925781 236.183594 67.871094 234.324219 C 67.871094 234.324219 67.863281 234.113281 67.859375 234.007812 C 67.589844 229.394531 65.324219 225.90625 61.039062 226.027344 C 57.320312 226.132812 54.359375 230.03125 54.082031 234.640625 C 53.953125 236.804688 55.382812 240.019531 55.84375 240.449219 L 56.210938 244.753906 C 56.269531 245.480469 55.796875 245.960938 55.152344 246.402344 C 54.3125 246.980469 52.316406 247.664062 51.144531 248.011719 C 51.144531 248.011719 56.882812 252.792969 61.625 252.449219 " fill-opacity="1" fill-rule="nonzero"/><path fill="#4693b9" d="M 82.636719 261.910156 C 81.082031 261.945312 80.453125 262.574219 79.667969 262.070312 C 78.867188 261.566406 78.328125 260.726562 77.820312 259.941406 C 76.734375 258.242188 76.023438 256.351562 74.984375 254.632812 C 74.492188 253.808594 73.929688 253.035156 73.445312 252.203125 C 72.949219 251.347656 72.5 250.457031 71.972656 249.617188 C 71.808594 249.21875 71.613281 248.835938 71.351562 248.46875 C 69.980469 246.558594 66.914062 245.78125 64.929688 245.808594 C 65.15625 247.417969 64.019531 249.578125 61.382812 249.886719 C 58.214844 250.257812 54.996094 249.65625 53.261719 247.285156 C 53.261719 247.285156 49.410156 248.285156 48.582031 249.816406 C 47.566406 251.710938 47.953125 253.992188 48.667969 255.917969 C 49.082031 257.027344 50.847656 261.457031 51.117188 262.640625 C 51.53125 264.421875 51.886719 266.285156 52.75 267.917969 C 52.472656 273.640625 51.144531 279.257812 50.472656 284.941406 C 49.726562 291.246094 49.039062 309.019531 49.34375 314.757812 C 49.34375 314.757812 57.464844 315.953125 61.359375 316.40625 C 65.375 316.871094 69.296875 316.488281 73.28125 315.914062 C 75.625 315.574219 77.972656 315.234375 80.316406 314.894531 C 79.640625 308.785156 78.050781 302.84375 76.539062 296.902344 C 74.996094 290.851562 73.699219 284.761719 73.023438 278.539062 C 72.902344 277.417969 72.644531 273.789062 72.570312 273.089844 C 72.46875 271.378906 72.402344 269.660156 72.378906 267.949219 C 72.378906 267.820312 72.671875 265.277344 72.988281 264.628906 C 74.46875 266.496094 76.285156 268.191406 78.714844 268.550781 C 79.945312 268.734375 81.265625 268.527344 82.3125 267.828125 C 83.597656 266.980469 84.457031 265.460938 85.359375 264.28125 C 83.75 264.074219 82.636719 261.910156 82.636719 261.910156 " fill-opacity="1" fill-rule="nonzero"/><path fill="#12252e" d="M 68.183594 228.839844 C 67.847656 227.601562 67.039062 226.472656 65.828125 226.027344 C 64.875 224.546875 63.019531 224.015625 61.355469 223.871094 C 59.472656 223.710938 57.050781 223.425781 55.164062 224.683594 C 54.355469 225.226562 53.550781 225.894531 52.363281 228.125 C 51.484375 229.769531 50.777344 232.527344 51.210938 234.253906 C 51.445312 235.207031 51.855469 236.125 52.492188 236.878906 L 52.582031 236.964844 C 51.636719 237.097656 50.753906 237.871094 50.242188 238.605469 C 49.585938 239.542969 49.167969 240.960938 49.628906 242.0625 C 49.871094 242.644531 50.390625 243.089844 50.941406 243.382812 C 51.546875 243.703125 52.152344 243.734375 52.820312 243.632812 C 53.5 243.53125 55.542969 242.671875 55.984375 242.117188 L 55.84375 240.449219 C 56.125 239.648438 55.792969 237.914062 55.746094 237.628906 C 55.964844 236.621094 56.527344 235.707031 57.117188 234.851562 C 57.53125 234.242188 57.976562 233.65625 58.605469 233.25 C 59.167969 232.886719 59.800781 232.636719 60.402344 232.347656 C 62.222656 231.472656 64.105469 230.226562 64.691406 228.246094 C 65.3125 228.910156 65.890625 229.597656 66.3125 230.425781 C 66.917969 231.621094 67.523438 233.574219 67.867188 234.867188 C 67.867188 234.867188 68.121094 234.414062 68.144531 234.1875 C 68.316406 232.4375 68.648438 230.578125 68.183594 228.839844 " fill-opacity="1" fill-rule="nonzero"/><path fill="#387694" d="M 52.925781 267.953125 C 53.609375 269.257812 54.855469 270.234375 56.316406 270.503906 C 57.96875 270.8125 59.832031 270.320312 61.382812 269.734375 C 64.078125 268.71875 66.074219 266.429688 67.964844 264.335938 C 69.160156 263.007812 70.265625 261.59375 71.148438 260.039062 C 71.1875 259.96875 71.300781 260.035156 71.257812 260.105469 C 69.742188 262.773438 67.597656 264.96875 65.449219 267.125 C 64.265625 268.316406 62.996094 269.257812 61.417969 269.855469 C 59.894531 270.433594 58.070312 270.910156 56.433594 270.648438 C 54.882812 270.410156 53.539062 269.398438 52.820312 268.019531 C 52.785156 267.945312 52.890625 267.878906 52.925781 267.953125 " fill-opacity="1" fill-rule="nonzero"/><path fill="#387694" d="M 52.984375 249.332031 C 54.699219 251.070312 55.820312 253.285156 56.449219 255.625 C 56.804688 256.949219 56.949219 258.324219 57.445312 259.609375 C 57.945312 260.910156 58.675781 262.109375 59.121094 263.4375 C 59.144531 263.515625 59.023438 263.546875 58.996094 263.46875 C 58.574219 262.203125 57.890625 261.054688 57.394531 259.820312 C 56.894531 258.585938 56.730469 257.285156 56.414062 256 C 55.808594 253.546875 54.675781 251.230469 52.894531 249.421875 L 52.984375 249.332031 " fill-opacity="1" fill-rule="nonzero"/><path fill="#387694" d="M 57.117188 265.460938 C 58.148438 263.527344 60.320312 262.867188 62.152344 261.925781 C 64.214844 260.863281 66.03125 259.386719 67.644531 257.730469 L 67.734375 257.816406 C 66.242188 259.355469 64.574219 260.734375 62.699219 261.777344 C 60.78125 262.84375 58.332031 263.449219 57.226562 265.527344 C 57.1875 265.597656 57.078125 265.535156 57.117188 265.460938 " fill-opacity="1" fill-rule="nonzero"/><path fill="#387694" d="M 72.847656 264.523438 C 73.542969 263.105469 72.894531 261.546875 72.203125 260.265625 C 72.164062 260.195312 72.273438 260.128906 72.3125 260.199219 C 73.027344 261.527344 73.675781 263.121094 72.953125 264.589844 C 72.917969 264.660156 72.808594 264.597656 72.847656 264.523438 " fill-opacity="1" fill-rule="nonzero"/><path fill="#387694" d="M 67.078125 246.519531 C 67.933594 247.476562 68.699219 248.523438 69.09375 249.753906 C 69.539062 251.148438 69.664062 252.644531 69.882812 254.082031 C 69.894531 254.160156 69.773438 254.195312 69.761719 254.117188 C 69.554688 252.765625 69.421875 251.367188 69.050781 250.050781 C 68.675781 248.730469 67.894531 247.621094 66.992188 246.605469 L 67.078125 246.519531 " fill-opacity="1" fill-rule="nonzero"/><path fill="#387694" d="M 79.835938 262.285156 L 79.820312 262.269531 L 79.875 262.296875 C 79.78125 262.285156 79.601562 262.507812 79.539062 262.566406 C 79.453125 262.652344 79.367188 262.746094 79.289062 262.84375 C 79.113281 263.050781 78.960938 263.285156 78.832031 263.523438 C 78.582031 264.003906 78.433594 264.53125 78.394531 265.070312 C 78.390625 265.15625 78.265625 265.15625 78.269531 265.070312 C 78.3125 264.445312 78.5 263.832031 78.820312 263.289062 C 78.925781 263.109375 79.734375 261.9375 79.945312 262.222656 C 79.992188 262.289062 79.882812 262.347656 79.835938 262.285156 " fill-opacity="1" fill-rule="nonzero"/><path fill="#387694" d="M 73.683594 315.492188 C 72.570312 307.1875 71.511719 298.871094 70.519531 290.546875 C 70.238281 288.1875 69.960938 285.828125 69.6875 283.46875 C 69.679688 283.386719 69.804688 283.394531 69.8125 283.46875 C 70.777344 291.796875 71.796875 300.121094 72.875 308.429688 C 73.183594 310.785156 73.496094 313.140625 73.808594 315.492188 C 73.820312 315.574219 73.695312 315.570312 73.683594 315.492188 " fill-opacity="1" fill-rule="nonzero"/><path fill="#387694" d="M 66.972656 316.324219 C 67.078125 311.640625 67.007812 306.957031 66.753906 302.277344 C 66.75 302.195312 66.878906 302.195312 66.882812 302.277344 C 67.132812 306.957031 67.207031 311.640625 67.101562 316.324219 C 67.101562 316.410156 66.972656 316.410156 66.972656 316.324219 " fill-opacity="1" fill-rule="nonzero"/><path fill="#387694" d="M 56.4375 315.191406 C 56.414062 306.902344 56.390625 298.617188 56.367188 290.328125 C 56.363281 287.984375 56.355469 285.640625 56.351562 283.300781 C 56.347656 283.214844 56.476562 283.214844 56.476562 283.300781 C 56.5 291.585938 56.523438 299.875 56.546875 308.164062 C 56.550781 310.503906 56.558594 312.847656 56.5625 315.191406 C 56.5625 315.273438 56.4375 315.273438 56.4375 315.191406 " fill-opacity="1" fill-rule="nonzero"/><path fill="#ffa18a" d="M 78.472656 249.21875 C 78.414062 249.113281 78.320312 249.046875 78.222656 249.015625 C 78.226562 248.945312 78.222656 248.871094 78.175781 248.796875 C 78.09375 248.65625 77.945312 248.554688 77.789062 248.503906 L 77.734375 248.5 C 77.773438 248.359375 77.761719 248.222656 77.621094 248.140625 C 77.527344 248.085938 77.40625 248.070312 77.292969 248.058594 L 77.277344 248.058594 C 77.34375 247.671875 76.828125 247.601562 76.539062 247.585938 C 75.085938 247.519531 73.574219 247.988281 72.527344 249.019531 C 72.054688 249.484375 71.683594 250.050781 71.46875 250.675781 C 71.199219 251.441406 71.308594 252.273438 71.046875 253.035156 C 70.597656 254.3125 68.058594 257.234375 67.699219 257.703125 C 67.699219 257.703125 70.046875 258.535156 71.246094 260.003906 C 71.667969 259.261719 72.09375 258.519531 72.515625 257.773438 C 72.941406 257.03125 73.324219 256.347656 74.050781 255.859375 C 75.027344 255.203125 76.003906 254.53125 76.339844 253.335938 C 76.515625 252.707031 76.453125 252 76.773438 251.421875 C 77.082031 250.871094 77.6875 250.667969 78.125 250.25 C 78.378906 250.011719 78.671875 249.578125 78.472656 249.21875 " fill-opacity="1" fill-rule="nonzero"/><path fill="#2a817d" d="M 194.738281 132.929688 L 196.578125 110.929688 L 212.207031 119.660156 C 214.460938 121.074219 215.808594 123.5625 215.765625 126.226562 L 215.328125 152.128906 C 215.320312 152.519531 214.898438 152.765625 214.554688 152.578125 L 213.148438 151.808594 C 212.625 151.523438 212.214844 151.066406 211.984375 150.519531 L 205.269531 134.554688 L 194.738281 132.929688 " fill-opacity="1" fill-rule="nonzero"/><path fill="#2a817d" d="M 177.898438 132.929688 L 175.753906 110.929688 L 160.957031 119.800781 C 158.671875 121.179688 157.273438 123.652344 157.277344 126.320312 L 157.3125 152.109375 C 157.3125 152.523438 157.773438 152.773438 158.121094 152.542969 L 159.585938 151.574219 C 160 151.300781 160.328125 150.917969 160.535156 150.464844 L 167.640625 134.796875 L 177.898438 132.929688 " fill-opacity="1" fill-rule="nonzero"/><path fill="#ffd471" d="M 194.90625 141.578125 L 177.820312 141.550781 L 171.410156 81.4375 C 170.339844 71.429688 172.113281 61.320312 176.523438 52.269531 L 185.746094 33.339844 C 186.0625 32.683594 187 32.683594 187.320312 33.339844 L 196.367188 51.863281 C 200.839844 61.023438 202.625 71.261719 201.511719 81.390625 L 194.90625 141.578125 " fill-opacity="1" fill-rule="nonzero"/><path fill="#a2ddd0" d="M 197.671875 54.75 C 197.265625 53.777344 196.832031 52.8125 196.367188 51.863281 L 187.320312 33.339844 C 187 32.683594 186.0625 32.683594 185.746094 33.339844 L 176.523438 52.269531 C 175.988281 53.367188 175.492188 54.484375 175.035156 55.609375 C 182.65625 56.230469 190.035156 57.6875 197.671875 54.75 " fill-opacity="1" fill-rule="nonzero"/><path fill="#eff4f7" d="M 200.554688 90.101562 L 201.511719 81.390625 C 201.726562 79.433594 201.832031 77.46875 201.832031 75.511719 C 201.832031 77.46875 201.726562 79.433594 201.511719 81.390625 L 200.554688 90.101562 M 187.320312 33.339844 C 187.316406 33.324219 187.308594 33.316406 187.300781 33.300781 C 187.265625 33.234375 187.222656 33.175781 187.175781 33.125 C 187.230469 33.183594 187.28125 33.253906 187.320312 33.339844 " fill-opacity="1" fill-rule="nonzero"/><path fill="#eeca6d" d="M 194.90625 141.578125 L 190.289062 141.570312 L 194.386719 82.660156 C 194.414062 82.449219 194.429688 82.222656 194.445312 81.980469 C 194.875 80.355469 194.820312 78.664062 194.335938 77.109375 C 193.925781 71.589844 192.730469 63.84375 191.390625 56.289062 C 193.46875 56.035156 195.5625 55.558594 197.671875 54.75 C 197.347656 53.976562 197.003906 53.207031 196.648438 52.449219 C 200.070312 59.675781 201.832031 67.554688 201.832031 75.511719 C 201.832031 77.46875 201.726562 79.433594 201.511719 81.390625 L 200.554688 90.101562 L 198.171875 111.816406 L 195.835938 133.097656 L 194.90625 141.578125 M 187.320312 33.339844 C 187.316406 33.324219 187.308594 33.316406 187.300781 33.300781 C 187.308594 33.316406 187.316406 33.324219 187.320312 33.339844 M 187.300781 33.300781 C 187.265625 33.234375 187.222656 33.175781 187.175781 33.125 C 187.222656 33.175781 187.265625 33.234375 187.300781 33.300781 " fill-opacity="1" fill-rule="nonzero"/><path fill="#97d3c9" d="M 191.390625 56.289062 C 189.613281 46.289062 187.585938 36.621094 186.785156 32.882812 C 186.785156 32.882812 186.996094 32.9375 187.175781 33.125 C 187.222656 33.175781 187.265625 33.234375 187.300781 33.300781 C 187.308594 33.316406 187.316406 33.324219 187.320312 33.339844 L 196.367188 51.863281 C 196.460938 52.058594 196.554688 52.253906 196.648438 52.449219 C 197.003906 53.207031 197.347656 53.976562 197.671875 54.75 C 195.5625 55.558594 193.46875 56.035156 191.390625 56.289062 " fill-opacity="1" fill-rule="nonzero"/><path fill="#2a817d" d="M 186.09375 54.773438 C 181.71875 54.257812 179.03125 52.976562 176.789062 51.730469 L 176.546875 52.171875 C 175.375 54.578125 174.394531 57.058594 173.597656 59.589844 C 182.925781 65.6875 194.386719 63 199.867188 61.089844 C 199.074219 58.234375 198.023438 55.320312 196.695312 52.550781 C 194.585938 53.640625 190.597656 55.304688 186.09375 54.773438 " fill-opacity="1" fill-rule="nonzero"/><path fill="#4693b9" d="M 190.148438 72.003906 C 194.421875 74.339844 195.992188 79.695312 193.652344 83.96875 C 191.316406 88.238281 185.953125 89.804688 181.679688 87.46875 C 177.40625 85.128906 175.835938 79.773438 178.175781 75.503906 C 180.515625 71.234375 185.875 69.667969 190.148438 72.003906 " fill-opacity="1" fill-rule="nonzero"/><path fill="#b2dffd" d="M 188.988281 74.128906 C 192.113281 75.835938 193.257812 79.753906 191.550781 82.878906 C 189.835938 86 185.917969 87.148438 182.789062 85.4375 C 179.664062 83.730469 178.519531 79.8125 180.230469 76.691406 C 181.9375 73.566406 185.859375 72.417969 188.988281 74.128906 " fill-opacity="1" fill-rule="nonzero"/><path fill="#3e8bb8" d="M 181.191406 84.207031 C 179.324219 82.230469 178.851562 79.199219 180.230469 76.6875 C 181.402344 74.542969 183.613281 73.332031 185.894531 73.332031 C 186.425781 73.332031 186.96875 73.398438 187.496094 73.539062 C 186.96875 73.398438 186.429688 73.335938 185.894531 73.335938 C 183.613281 73.335938 181.398438 74.546875 180.230469 76.691406 C 178.851562 79.199219 179.324219 82.230469 181.191406 84.207031 M 187.507812 73.542969 C 187.507812 73.542969 187.503906 73.542969 187.503906 73.539062 C 187.503906 73.542969 187.507812 73.542969 187.507812 73.542969 " fill-opacity="1" fill-rule="nonzero"/><path fill="#9cd4fc" d="M 185.472656 86.214844 C 184.5625 86.160156 183.644531 85.90625 182.789062 85.4375 C 182.183594 85.105469 181.652344 84.691406 181.203125 84.21875 C 181.199219 84.214844 181.195312 84.210938 181.191406 84.207031 C 179.324219 82.230469 178.851562 79.199219 180.230469 76.691406 C 181.398438 74.546875 183.613281 73.335938 185.894531 73.335938 C 186.429688 73.335938 186.96875 73.398438 187.496094 73.539062 C 187.5 73.539062 187.503906 73.539062 187.503906 73.539062 C 187.503906 73.542969 187.507812 73.542969 187.507812 73.542969 C 187.644531 73.574219 187.78125 73.617188 187.914062 73.660156 C 187.78125 73.652344 187.644531 73.648438 187.511719 73.648438 C 185.230469 73.648438 183.019531 74.859375 181.847656 77 C 180.132812 80.125 181.28125 84.042969 184.40625 85.75 C 184.753906 85.941406 185.113281 86.09375 185.472656 86.214844 " fill-opacity="1" fill-rule="nonzero"/><path fill="#4693b9" d="M 177.820312 141.550781 L 175.769531 152.226562 C 175.660156 152.804688 176.097656 153.34375 176.6875 153.34375 L 195.632812 153.449219 C 196.214844 153.453125 196.65625 152.9375 196.566406 152.367188 L 194.90625 141.578125 L 177.820312 141.550781 " fill-opacity="1" fill-rule="nonzero"/><path fill="#ffffff" d="M 193.566406 77.5625 C 193.792969 77.6875 193.878906 77.972656 193.753906 78.203125 C 193.628906 78.433594 193.34375 78.515625 193.113281 78.390625 C 192.882812 78.265625 192.800781 77.980469 192.925781 77.75 C 193.050781 77.519531 193.335938 77.4375 193.566406 77.5625 " fill-opacity="1" fill-rule="nonzero"/><path fill="#ffffff" d="M 178.523438 80.238281 C 178.75 80.359375 178.835938 80.648438 178.710938 80.878906 C 178.585938 81.105469 178.300781 81.191406 178.070312 81.0625 C 177.839844 80.9375 177.757812 80.652344 177.882812 80.425781 C 178.007812 80.195312 178.292969 80.113281 178.523438 80.238281 " fill-opacity="1" fill-rule="nonzero"/><path fill="#ffffff" d="M 183.996094 71.882812 C 184.125 71.652344 184.410156 71.570312 184.640625 71.695312 C 184.867188 71.820312 184.953125 72.105469 184.824219 72.335938 C 184.699219 72.5625 184.414062 72.648438 184.1875 72.523438 C 183.957031 72.398438 183.875 72.113281 183.996094 71.882812 " fill-opacity="1" fill-rule="nonzero"/><path fill="#ffffff" d="M 186.398438 87.042969 C 186.523438 86.8125 186.808594 86.730469 187.039062 86.855469 C 187.265625 86.980469 187.351562 87.269531 187.226562 87.496094 C 187.097656 87.722656 186.8125 87.804688 186.582031 87.679688 C 186.355469 87.558594 186.273438 87.269531 186.398438 87.042969 " fill-opacity="1" fill-rule="nonzero"/><path fill="#ffffff" d="M 189.710938 72.78125 C 189.960938 72.710938 190.222656 72.851562 190.296875 73.105469 C 190.371094 73.351562 190.226562 73.617188 189.976562 73.6875 C 189.726562 73.757812 189.464844 73.617188 189.390625 73.367188 C 189.320312 73.117188 189.460938 72.855469 189.710938 72.78125 " fill-opacity="1" fill-rule="nonzero"/><path fill="#ffffff" d="M 180.96875 85.300781 C 181.21875 85.226562 181.480469 85.371094 181.550781 85.621094 C 181.628906 85.875 181.484375 86.132812 181.230469 86.207031 C 180.980469 86.277344 180.71875 86.136719 180.648438 85.886719 C 180.574219 85.636719 180.71875 85.375 180.96875 85.300781 " fill-opacity="1" fill-rule="nonzero"/><path fill="#ffffff" d="M 179.246094 75.429688 C 179.167969 75.179688 179.3125 74.917969 179.566406 74.847656 C 179.816406 74.773438 180.078125 74.917969 180.148438 75.167969 C 180.222656 75.417969 180.078125 75.679688 179.828125 75.75 C 179.578125 75.824219 179.316406 75.683594 179.246094 75.429688 " fill-opacity="1" fill-rule="nonzero"/><path fill="#ffffff" d="M 191.558594 84.761719 C 191.488281 84.511719 191.628906 84.25 191.878906 84.175781 C 192.132812 84.101562 192.394531 84.246094 192.46875 84.496094 C 192.539062 84.746094 192.394531 85.007812 192.148438 85.082031 C 191.894531 85.152344 191.636719 85.011719 191.558594 84.761719 " fill-opacity="1" fill-rule="nonzero"/><path fill="#ffffff" d="M 191.886719 74.683594 C 192.148438 74.707031 192.339844 74.933594 192.316406 75.195312 C 192.296875 75.453125 192.070312 75.644531 191.808594 75.625 C 191.550781 75.601562 191.355469 75.375 191.378906 75.117188 C 191.398438 74.855469 191.625 74.664062 191.886719 74.683594 " fill-opacity="1" fill-rule="nonzero"/><path fill="#ffffff" d="M 179.308594 82.992188 C 179.570312 83.011719 179.761719 83.242188 179.742188 83.5 C 179.71875 83.757812 179.488281 83.953125 179.230469 83.933594 C 178.972656 83.910156 178.777344 83.683594 178.800781 83.425781 C 178.820312 83.164062 179.046875 82.972656 179.308594 82.992188 " fill-opacity="1" fill-rule="nonzero"/><path fill="#ffffff" d="M 181.242188 73.164062 C 181.261719 72.902344 181.492188 72.710938 181.75 72.730469 C 182.007812 72.75 182.203125 72.980469 182.179688 73.238281 C 182.160156 73.5 181.929688 73.691406 181.671875 73.671875 C 181.410156 73.648438 181.21875 73.421875 181.242188 73.164062 " fill-opacity="1" fill-rule="nonzero"/><path fill="#ffffff" d="M 189.390625 86.285156 C 189.414062 86.023438 189.640625 85.832031 189.902344 85.851562 C 190.164062 85.875 190.355469 86.101562 190.332031 86.363281 C 190.3125 86.621094 190.082031 86.8125 189.824219 86.789062 C 189.566406 86.769531 189.371094 86.542969 189.390625 86.285156 " fill-opacity="1" fill-rule="nonzero"/><path fill="#ffffff" d="M 187.066406 71.8125 C 187.265625 71.640625 187.566406 71.667969 187.734375 71.863281 C 187.902344 72.0625 187.878906 72.359375 187.679688 72.53125 C 187.480469 72.699219 187.183594 72.675781 187.015625 72.476562 C 186.847656 72.277344 186.871094 71.980469 187.066406 71.8125 " fill-opacity="1" fill-rule="nonzero"/><path fill="#ffffff" d="M 183.601562 86.625 C 183.800781 86.457031 184.097656 86.480469 184.269531 86.679688 C 184.4375 86.878906 184.414062 87.175781 184.210938 87.34375 C 184.011719 87.511719 183.714844 87.488281 183.546875 87.292969 C 183.378906 87.09375 183.402344 86.796875 183.601562 86.625 " fill-opacity="1" fill-rule="nonzero"/><path fill="#ffffff" d="M 178.011719 78.308594 C 177.84375 78.109375 177.867188 77.816406 178.066406 77.648438 C 178.265625 77.476562 178.5625 77.503906 178.730469 77.699219 C 178.902344 77.898438 178.875 78.195312 178.675781 78.367188 C 178.480469 78.535156 178.179688 78.507812 178.011719 78.308594 " fill-opacity="1" fill-rule="nonzero"/><path fill="#ffffff" d="M 193.058594 81.828125 C 192.890625 81.628906 192.914062 81.332031 193.117188 81.164062 C 193.316406 80.996094 193.613281 81.019531 193.78125 81.21875 C 193.949219 81.417969 193.925781 81.714844 193.726562 81.882812 C 193.527344 82.050781 193.230469 82.027344 193.058594 81.828125 " fill-opacity="1" fill-rule="nonzero"/><path fill="#ffffff" d="M 200.511719 332.476562 C 199.613281 328.546875 198.738281 295.351562 198.644531 290.105469 L 195.414062 153.46875 L 176.84375 153.34375 L 172.578125 306.019531 C 172.402344 314.9375 171.023438 322.714844 168.980469 326.796875 C 167.347656 330.0625 202.140625 339.636719 200.511719 332.476562 " fill-opacity="1" fill-rule="nonzero"/><path fill="#ffffff" d="M 173.816406 158.449219 C 174.195312 157.988281 174.90625 158.390625 174.75 158.96875 C 172.976562 165.730469 171.074219 174.007812 167.320312 178.386719 C 164.996094 181.097656 159.492188 180.53125 159.347656 176.117188 C 159.1875 171.070312 165.660156 170.109375 165.660156 170.109375 C 165.660156 170.109375 163.277344 165.441406 167.171875 163.71875 C 170.078125 162.433594 172.328125 160.246094 173.816406 158.449219 " fill-opacity="1" fill-rule="nonzero"/><path fill="#ffffff" d="M 198.597656 160.425781 C 198.414062 160.082031 197.890625 160.242188 197.933594 160.632812 C 198.484375 165.492188 200.136719 175.480469 203.675781 176.363281 C 207.53125 177.324219 211.257812 171.894531 204.863281 167.214844 C 201.339844 164.636719 199.523438 162.140625 198.597656 160.425781 " fill-opacity="1" fill-rule="nonzero"/><path fill="#ffffff" d="M 173.109375 172.050781 C 173.21875 171.789062 173.609375 171.902344 173.566406 172.179688 C 172.972656 175.90625 171.414062 184.148438 168.886719 186.851562 C 165.585938 190.390625 162.257812 188.703125 163.53125 185.859375 C 164.808594 183.019531 166.972656 182.765625 169.167969 179.5 C 170.488281 177.53125 172.21875 174.164062 173.109375 172.050781 " fill-opacity="1" fill-rule="nonzero"/><path fill="#ffffff" d="M 281.960938 357.414062 C 283.71875 357.414062 285.160156 355.976562 285.164062 354.226562 C 285.164062 349.070312 281.097656 344.863281 275.988281 344.617188 C 275.996094 344.40625 276.003906 344.199219 276.003906 343.984375 C 276.003906 331.714844 266.023438 321.761719 253.710938 321.761719 C 248.507812 321.761719 243.71875 323.546875 239.925781 326.527344 C 240.015625 325.90625 240.0625 325.273438 240.0625 324.621094 C 240.0625 317.121094 233.960938 311.039062 226.4375 311.039062 C 224.222656 311.039062 222.132812 311.566406 220.285156 312.503906 C 219.875 303.453125 212.386719 296.242188 203.207031 296.242188 C 194.210938 296.242188 186.839844 303.175781 186.171875 311.980469 C 184.136719 312.292969 182.589844 312.90625 180.761719 313.703125 C 178.78125 306.472656 171.75 301.109375 163.867188 301.109375 C 154.429688 301.109375 146.773438 308.746094 146.773438 318.15625 C 146.773438 318.6875 146.800781 319.210938 146.847656 319.730469 C 143.960938 316.734375 139.898438 314.867188 135.402344 314.867188 C 129.722656 314.867188 124.746094 317.835938 121.9375 322.300781 C 119.34375 321.324219 116.53125 320.78125 113.59375 320.78125 C 100.582031 320.78125 90.03125 331.300781 90.03125 344.273438 C 90.03125 345.566406 90.140625 346.835938 90.339844 348.074219 C 89.996094 348.34375 89.664062 348.640625 89.347656 348.949219 C 86.222656 352.03125 88.410156 357.34375 92.804688 357.34375 L 281.960938 357.414062 " fill-opacity="1" fill-rule="nonzero"/><path fill="#eaf6fe" d="M 246.738281 358.097656 C 246.738281 358.007812 246.746094 357.914062 246.746094 357.824219 C 246.746094 355.808594 245.621094 354.019531 243.871094 352.863281 C 244.003906 352.199219 244.070312 351.523438 244.070312 350.832031 C 244.070312 343.894531 237.355469 338.269531 229.066406 338.269531 C 227.195312 338.269531 225.40625 338.5625 223.753906 339.085938 C 221.964844 336.699219 218.796875 335.109375 215.179688 335.109375 C 212.316406 335.109375 209.730469 336.109375 207.890625 337.710938 C 207.921875 337.433594 207.9375 337.152344 207.9375 336.867188 C 207.9375 331.839844 203.066406 327.757812 197.050781 327.757812 C 192.035156 327.757812 187.8125 330.601562 186.550781 334.46875 C 185.390625 334.042969 184.148438 333.734375 182.851562 333.570312 C 182.425781 328.863281 177.730469 325.152344 172 325.152344 C 166.15625 325.152344 161.390625 329.007812 161.128906 333.84375 C 159.953125 333.347656 158.621094 333.0625 157.210938 333.0625 C 152.421875 333.0625 148.53125 336.316406 148.53125 340.328125 C 148.53125 340.671875 148.566406 341.015625 148.621094 341.34375 C 146.207031 339.75 143.15625 338.796875 139.84375 338.796875 C 132.003906 338.796875 125.648438 344.113281 125.648438 350.675781 C 125.648438 350.792969 125.65625 350.90625 125.65625 351.019531 C 122.40625 351.152344 119.816406 353.394531 119.816406 356.152344 C 119.816406 356.839844 119.980469 357.496094 120.273438 358.097656 L 246.738281 358.097656 " fill-opacity="1" fill-rule="nonzero"/><path fill="#eaf6fe" d="M 243.640625 331.988281 C 241.347656 331.128906 238.851562 331.832031 237.328125 333.570312 C 237.40625 333.398438 237.480469 333.222656 237.546875 333.039062 C 239.015625 329.144531 237.042969 324.800781 233.144531 323.335938 C 229.332031 321.902344 225.09375 323.753906 223.535156 327.480469 C 225.519531 325.027344 228.929688 323.996094 232.050781 325.171875 C 235.949219 326.636719 237.917969 330.984375 236.453125 334.878906 C 236.421875 334.957031 236.386719 335.039062 236.355469 335.117188 L 236.347656 335.132812 L 236.351562 335.132812 L 236.347656 335.132812 L 236.359375 335.121094 C 237.867188 333.269531 240.445312 332.496094 242.808594 333.382812 C 245.761719 334.496094 247.261719 337.792969 246.148438 340.746094 C 246.125 340.8125 246.097656 340.878906 246.066406 340.941406 C 246.445312 340.476562 246.757812 339.945312 246.980469 339.351562 C 248.09375 336.398438 246.597656 333.101562 243.640625 331.988281 " fill-opacity="1" fill-rule="nonzero"/><path fill="#a2ddd0" d="M 207.46875 274.605469 L 207.46875 285.542969 C 207.46875 285.804688 207.335938 286.046875 207.117188 286.183594 L 203.644531 288.320312 C 203.503906 288.40625 203.5625 288.625 203.730469 288.625 L 258.335938 288.625 C 258.75 288.625 259.085938 288.292969 259.085938 287.878906 L 259.085938 274.605469 C 259.085938 274.191406 258.75 273.855469 258.335938 273.855469 L 208.214844 273.855469 C 207.804688 273.855469 207.46875 274.191406 207.46875 274.605469 " fill-opacity="1" fill-rule="nonzero"/><path fill="#254d62" d="M 243.871094 279.257812 L 218.507812 279.257812 L 218.507812 278.851562 L 243.871094 278.851562 L 243.871094 279.257812 " fill-opacity="1" fill-rule="nonzero"/><path fill="#254d62" d="M 256.066406 278.851562 L 247.683594 278.851562 L 247.683594 279.257812 L 256.066406 279.257812 L 256.066406 278.851562 " fill-opacity="1" fill-rule="nonzero"/><path fill="#254d62" d="M 231.257812 281.421875 L 218.507812 281.421875 L 218.507812 281.828125 L 231.257812 281.828125 L 231.257812 281.421875 " fill-opacity="1" fill-rule="nonzero"/><path fill="#254d62" d="M 241.007812 281.421875 L 235.152344 281.421875 L 235.152344 281.828125 L 241.007812 281.828125 L 241.007812 281.421875 " fill-opacity="1" fill-rule="nonzero"/><path fill="#254d62" d="M 244.613281 281.421875 L 244.613281 281.828125 L 256.066406 281.828125 L 256.066406 281.421875 L 244.613281 281.421875 " fill-opacity="1" fill-rule="nonzero"/><path fill="#254d62" d="M 216.625 281.144531 C 216.625 282.925781 215.183594 284.363281 213.402344 284.363281 C 211.625 284.363281 210.179688 282.925781 210.179688 281.144531 C 210.179688 279.371094 211.625 277.929688 213.402344 277.929688 C 215.183594 277.929688 216.625 279.371094 216.625 281.144531 " fill-opacity="1" fill-rule="nonzero"/><path fill="#ffffff" d="M 214.90625 282.898438 L 214.90625 282.636719 C 214.90625 281.402344 214.195312 280.757812 213.402344 280.757812 C 212.613281 280.757812 211.902344 281.457031 211.902344 282.636719 L 211.902344 282.898438 L 214.90625 282.898438 " fill-opacity="1" fill-rule="nonzero"/><path fill="#ffffff" d="M 213.402344 279.019531 C 213.867188 279.019531 214.242188 279.375 214.242188 279.808594 C 214.242188 280.25 213.867188 280.601562 213.402344 280.601562 C 212.9375 280.601562 212.5625 280.25 212.5625 279.808594 C 212.5625 279.375 212.9375 279.019531 213.402344 279.019531 " fill-opacity="1" fill-rule="nonzero"/><path fill="#254d62" d="M 231.257812 284.34375 L 218.507812 284.34375 L 218.507812 284.75 L 231.257812 284.75 L 231.257812 284.34375 " fill-opacity="1" fill-rule="nonzero"/><path fill="#ffd471" d="M 212.027344 239.203125 L 212.027344 252.339844 C 212.027344 252.648438 211.867188 252.941406 211.605469 253.101562 L 207.4375 255.671875 C 207.265625 255.777344 207.339844 256.039062 207.539062 256.039062 L 273.101562 256.039062 C 273.597656 256.039062 273.996094 255.636719 273.996094 255.144531 L 273.996094 239.203125 C 273.996094 238.707031 273.597656 238.308594 273.101562 238.308594 L 212.929688 238.308594 C 212.433594 238.308594 212.027344 238.707031 212.027344 239.203125 " fill-opacity="1" fill-rule="nonzero"/><path fill="#254d62" d="M 228.21875 247.316406 C 228.21875 249.855469 226.160156 251.910156 223.621094 251.910156 C 221.085938 251.910156 219.03125 249.855469 219.03125 247.316406 C 219.03125 244.785156 221.085938 242.730469 223.621094 242.730469 C 226.160156 242.730469 228.21875 244.785156 228.21875 247.316406 " fill-opacity="1" fill-rule="nonzero"/><path fill="#ffffff" d="M 225.765625 249.820312 L 225.765625 249.445312 C 225.765625 247.683594 224.753906 246.765625 223.621094 246.765625 C 222.492188 246.765625 221.476562 247.757812 221.476562 249.445312 L 221.476562 249.820312 L 225.765625 249.820312 " fill-opacity="1" fill-rule="nonzero"/><path fill="#ffffff" d="M 223.621094 244.285156 C 224.285156 244.285156 224.824219 244.789062 224.824219 245.414062 C 224.824219 246.035156 224.285156 246.542969 223.621094 246.542969 C 222.960938 246.542969 222.425781 246.035156 222.425781 245.414062 C 222.425781 244.789062 222.960938 244.285156 223.621094 244.285156 " fill-opacity="1" fill-rule="nonzero"/><path fill="#254d62" d="M 248.582031 245.496094 L 233.542969 245.496094 L 233.542969 245.070312 L 248.582031 245.070312 L 248.582031 245.496094 " fill-opacity="1" fill-rule="nonzero"/><path fill="#254d62" d="M 267.3125 245.496094 L 252.273438 245.496094 L 252.273438 245.070312 L 267.3125 245.070312 L 267.3125 245.496094 " fill-opacity="1" fill-rule="nonzero"/><path fill="#254d62" d="M 262.171875 248.695312 L 233.542969 248.695312 L 233.542969 248.269531 L 262.171875 248.269531 L 262.171875 248.695312 " fill-opacity="1" fill-rule="nonzero"/><path fill="#98d4fc" d="M 164.402344 251.664062 L 164.402344 263.070312 C 164.402344 263.34375 164.542969 263.589844 164.773438 263.730469 L 168.390625 265.964844 C 168.539062 266.058594 168.472656 266.285156 168.300781 266.285156 L 111.363281 266.285156 C 110.933594 266.285156 110.582031 265.9375 110.582031 265.503906 L 110.582031 251.664062 C 110.582031 251.230469 110.933594 250.886719 111.363281 250.886719 L 163.621094 250.886719 C 164.054688 250.886719 164.402344 251.230469 164.402344 251.664062 " fill-opacity="1" fill-rule="nonzero"/><path fill="#254d62" d="M 159.992188 258.875 C 159.992188 261.332031 158 263.320312 155.542969 263.320312 C 153.085938 263.320312 151.097656 261.332031 151.097656 258.875 C 151.097656 256.417969 153.085938 254.433594 155.542969 254.433594 C 158 254.433594 159.992188 256.417969 159.992188 258.875 " fill-opacity="1" fill-rule="nonzero"/><path fill="#ffffff" d="M 157.621094 261.296875 L 157.621094 260.933594 C 157.621094 259.230469 156.636719 258.34375 155.542969 258.34375 C 154.449219 258.34375 153.464844 259.300781 153.464844 260.933594 L 153.464844 261.296875 L 157.621094 261.296875 " fill-opacity="1" fill-rule="nonzero"/><path fill="#ffffff" d="M 155.542969 255.9375 C 156.183594 255.9375 156.707031 256.425781 156.707031 257.03125 C 156.707031 257.636719 156.183594 258.125 155.542969 258.125 C 154.902344 258.125 154.382812 257.636719 154.382812 257.03125 C 154.382812 256.425781 154.902344 255.9375 155.542969 255.9375 " fill-opacity="1" fill-rule="nonzero"/><path fill="#254d62" d="M 137.035156 257.214844 L 114.15625 257.214844 L 114.15625 256.847656 L 137.035156 256.847656 L 137.035156 257.214844 " fill-opacity="1" fill-rule="nonzero"/><path fill="#254d62" d="M 148.039062 256.847656 L 140.476562 256.847656 L 140.476562 257.214844 L 148.039062 257.214844 L 148.039062 256.847656 " fill-opacity="1" fill-rule="nonzero"/><path fill="#254d62" d="M 120.699219 259.886719 L 114.15625 259.886719 L 114.15625 260.253906 L 120.699219 260.253906 L 120.699219 259.886719 " fill-opacity="1" fill-rule="nonzero"/><path fill="#254d62" d="M 139.242188 260.253906 L 123.78125 260.253906 L 123.78125 259.886719 L 139.242188 259.886719 L 139.242188 260.253906 " fill-opacity="1" fill-rule="nonzero"/><path fill="#254d62" d="M 129.621094 262.738281 L 114.15625 262.738281 L 114.15625 263.101562 L 129.621094 263.101562 L 129.621094 262.738281 " fill-opacity="1" fill-rule="nonzero"/><path fill="#4693b9" d="M 207.46875 206.386719 L 221.679688 206.386719 C 221.933594 206.386719 222.136719 206.59375 222.136719 206.84375 L 222.136719 221.046875 C 222.136719 221.300781 221.933594 221.503906 221.679688 221.503906 L 211.5625 221.503906 L 208.789062 225.960938 C 208.632812 226.210938 208.25 226.101562 208.25 225.808594 L 208.25 221.503906 L 207.46875 221.503906 C 207.214844 221.503906 207.011719 221.300781 207.011719 221.046875 L 207.011719 206.84375 C 207.011719 206.59375 207.214844 206.386719 207.46875 206.386719 " fill-opacity="1" fill-rule="nonzero"/><path fill="#ffffff" d="M 220.21875 211.351562 L 213.464844 218.097656 L 213.25 218.097656 L 209.414062 214.265625 L 209.414062 214.050781 L 210.347656 213.121094 L 210.5625 213.121094 L 213.359375 215.910156 L 219.070312 210.203125 L 219.285156 210.203125 L 220.21875 211.132812 L 220.21875 211.351562 " fill-opacity="1" fill-rule="nonzero"/><path fill="#ffd471" d="M 168.449219 273.699219 L 152.050781 273.699219 C 151.757812 273.699219 151.519531 273.933594 151.519531 274.222656 L 151.519531 290.609375 C 151.519531 290.902344 151.757812 291.136719 152.050781 291.136719 L 163.722656 291.136719 L 166.921875 296.277344 C 167.101562 296.566406 167.546875 296.441406 167.546875 296.097656 L 167.546875 291.136719 L 168.449219 291.136719 C 168.742188 291.136719 168.976562 290.902344 168.976562 290.609375 L 168.976562 274.222656 C 168.976562 273.933594 168.742188 273.699219 168.449219 273.699219 " fill-opacity="1" fill-rule="nonzero"/><path fill="#ffffff" d="M 154.984375 283.554688 C 155.039062 284.511719 155.054688 285.472656 155.015625 286.429688 L 157.09375 286.371094 C 157.117188 285.515625 157.117188 284.664062 157.109375 283.808594 C 157.09375 282.601562 157.152344 281.371094 156.917969 280.179688 L 154.726562 280.242188 C 154.867188 281.34375 154.921875 282.453125 154.984375 283.554688 " fill-opacity="1" fill-rule="nonzero"/><path fill="#ffffff" d="M 165.402344 282.765625 L 165.398438 282.632812 L 165.394531 282.550781 L 165.390625 282.539062 L 165.378906 282.472656 L 165.375 282.457031 L 165.355469 282.394531 L 165.347656 282.382812 L 165.328125 282.324219 L 165.324219 282.324219 C 165.253906 282.164062 165.125 282.035156 164.972656 281.953125 C 165.042969 281.828125 165.085938 281.683594 165.082031 281.53125 L 165.074219 281.398438 L 165.070312 281.3125 L 165.0625 281.296875 L 165.054688 281.238281 L 165.046875 281.214844 L 165.03125 281.160156 L 165.023438 281.136719 L 165.003906 281.085938 L 165 281.082031 C 164.871094 280.804688 164.582031 280.617188 164.261719 280.625 L 161.792969 280.699219 L 161.636719 280.714844 L 162.015625 278.476562 L 162.027344 278.398438 C 162.058594 278.167969 162.046875 277.929688 161.976562 277.710938 C 161.859375 277.335938 161.613281 277.007812 161.191406 276.960938 C 160.90625 276.921875 160.714844 277.140625 160.59375 277.371094 C 160.511719 277.539062 160.457031 277.71875 160.40625 277.898438 L 160.371094 278.042969 C 160.332031 278.230469 160.289062 278.410156 160.234375 278.585938 C 159.972656 279.46875 159.617188 279.929688 158.976562 280.226562 L 158.96875 280.230469 C 158.558594 280.421875 158.117188 280.519531 157.667969 280.550781 C 157.773438 281.542969 157.75 282.5625 157.757812 283.5625 C 157.761719 284.234375 157.773438 284.902344 157.765625 285.574219 C 158.390625 285.65625 158.992188 285.828125 159.582031 286.042969 C 159.867188 286.148438 160.167969 286.199219 160.476562 286.1875 L 161.917969 286.148438 L 162.015625 286.148438 L 163.46875 286.105469 C 163.804688 286.097656 164.128906 285.957031 164.347656 285.703125 C 164.542969 285.480469 164.558594 285.292969 164.53125 285.121094 L 164.527344 285.089844 L 164.515625 285.027344 L 164.507812 285 L 164.484375 284.9375 L 164.472656 284.910156 L 164.449219 284.847656 L 164.441406 284.832031 L 164.433594 284.824219 C 164.851562 284.753906 165.160156 284.386719 165.148438 283.953125 L 165.140625 283.855469 L 165.136719 283.832031 L 165.121094 283.765625 L 165.113281 283.734375 L 165.09375 283.671875 L 165.082031 283.648438 L 165.054688 283.582031 L 165.046875 283.570312 L 164.992188 283.480469 C 165.242188 283.34375 165.410156 283.074219 165.402344 282.765625 " fill-opacity="1" fill-rule="nonzero"/><path fill="#2f627c" d="M 154.695312 220.753906 C 160.296875 220.753906 164.839844 225.363281 164.839844 231.046875 C 164.839844 232.828125 164.390625 234.503906 163.605469 235.964844 L 166.515625 239.015625 C 166.574219 239.074219 166.511719 239.175781 166.429688 239.148438 L 162.433594 237.703125 L 162.453125 237.671875 C 160.59375 239.910156 157.808594 241.332031 154.695312 241.332031 C 149.089844 241.332031 144.550781 236.726562 144.550781 231.046875 C 144.550781 225.363281 149.089844 220.753906 154.695312 220.753906 " fill-opacity="1" fill-rule="nonzero"/><path fill="#ffd471" d="M 150.210938 229.433594 L 153.195312 228.988281 L 154.535156 226.1875 C 154.636719 225.976562 154.984375 225.976562 155.082031 226.1875 L 156.421875 228.988281 L 159.410156 229.433594 C 159.652344 229.46875 159.753906 229.761719 159.578125 229.9375 L 157.414062 232.121094 L 157.925781 235.207031 C 157.964844 235.453125 157.699219 235.636719 157.476562 235.519531 L 154.8125 234.070312 L 152.144531 235.519531 C 151.925781 235.636719 151.65625 235.457031 151.695312 235.207031 L 152.210938 232.121094 L 150.039062 229.9375 C 149.867188 229.761719 149.964844 229.46875 150.210938 229.433594 " fill-opacity="1" fill-rule="nonzero"/><path fill="#2a817d" d="M 144.082031 271.429688 L 132.328125 271.429688 C 132.121094 271.429688 131.949219 271.597656 131.949219 271.808594 L 131.949219 283.550781 C 131.949219 283.757812 132.121094 283.925781 132.328125 283.925781 L 140.695312 283.925781 L 142.984375 287.613281 C 143.117188 287.820312 143.433594 287.726562 143.433594 287.484375 L 143.433594 283.925781 L 144.082031 283.925781 C 144.289062 283.925781 144.460938 283.757812 144.460938 283.550781 L 144.460938 271.808594 C 144.460938 271.597656 144.289062 271.429688 144.082031 271.429688 " fill-opacity="1" fill-rule="nonzero"/><path fill="#ffffff" d="M 137.121094 279.984375 L 137.113281 280.445312 L 137.109375 280.78125 L 137.109375 280.792969 C 137.109375 281.003906 137.273438 281.171875 137.480469 281.183594 L 137.476562 281.183594 L 137.476562 281.210938 C 137.472656 281.59375 137.777344 281.902344 138.15625 281.90625 C 138.535156 281.910156 138.847656 281.605469 138.851562 281.226562 L 138.851562 281.195312 L 138.84375 281.195312 C 139.046875 281.179688 139.207031 281.015625 139.207031 280.8125 L 139.207031 280.464844 L 139.214844 279.984375 L 137.121094 279.984375 " fill-opacity="1" fill-rule="nonzero"/><path fill="#ffffff" d="M 140.824219 275.46875 C 140.265625 272.671875 136.167969 272.625 135.589844 275.417969 C 135.554688 275.601562 135.527344 275.789062 135.527344 275.984375 C 135.511719 276.738281 135.773438 277.433594 136.210938 277.980469 C 136.546875 278.398438 136.773438 278.894531 136.867188 279.414062 L 136.890625 279.507812 L 139.457031 279.507812 L 139.476562 279.449219 C 139.503906 279.304688 139.542969 279.152344 139.597656 279.003906 L 139.601562 278.996094 C 139.726562 278.640625 139.914062 278.308594 140.160156 278.015625 C 140.605469 277.484375 140.875 276.804688 140.882812 276.0625 C 140.882812 275.859375 140.863281 275.664062 140.824219 275.46875 " fill-opacity="1" fill-rule="nonzero"/></svg>