<svg xmlns="http://www.w3.org/2000/svg" xmlns:xlink="http://www.w3.org/1999/xlink" width="500" zoomAndPan="magnify" viewBox="0 0 375 374.999991" height="500" preserveAspectRatio="xMidYMid meet" version="1.0"><defs><clipPath id="f4c83f7d85"><path d="M 77.066406 227.796875 L 357.632812 227.796875 L 357.632812 332.882812 L 77.066406 332.882812 Z M 77.066406 227.796875 " clip-rule="nonzero"/></clipPath><clipPath id="02bcfb9a91"><path d="M 255.195312 147 L 364.683594 147 L 364.683594 318.253906 L 255.195312 318.253906 Z M 255.195312 147 " clip-rule="nonzero"/></clipPath><clipPath id="d0701ecc1c"><path d="M 10.734375 113.0625 L 135.640625 113.0625 L 135.640625 237.671875 L 10.734375 237.671875 Z M 10.734375 113.0625 " clip-rule="nonzero"/></clipPath><clipPath id="a138bcfb9b"><path d="M 135.410156 175.300781 C 135.410156 209.648438 107.5 237.492188 73.070312 237.492188 C 38.644531 237.492188 10.734375 209.648438 10.734375 175.300781 C 10.734375 140.953125 38.644531 113.113281 73.070312 113.113281 C 107.5 113.113281 135.410156 140.953125 135.410156 175.300781 Z M 135.410156 175.300781 " clip-rule="nonzero"/></clipPath><clipPath id="388b9fd678"><path d="M 135.410156 175.300781 C 135.410156 209.648438 107.5 237.492188 73.070312 237.492188 C 38.644531 237.492188 10.734375 209.648438 10.734375 175.300781 C 10.734375 140.953125 38.644531 113.113281 73.070312 113.113281 C 107.5 113.113281 135.410156 140.953125 135.410156 175.300781 " clip-rule="nonzero"/></clipPath><clipPath id="ad5263e68b"><path d="M 71.546875 299.664062 L 197.726562 176.824219 L 74.597656 50.941406 L -51.582031 173.777344 Z M 71.546875 299.664062 " clip-rule="nonzero"/></clipPath><linearGradient x1="-0.212488" gradientTransform="matrix(-86.47843, -88.412268, 88.62084, -86.274893, 116.261644, 219.456235)" y1="0" x2="1.211332" gradientUnits="userSpaceOnUse" y2="0" id="1e08807d0f"><stop stop-opacity="1" stop-color="rgb(85.899353%, 1.998901%, 0%)" offset="0"/><stop stop-opacity="1" stop-color="rgb(85.899353%, 1.998901%, 0%)" offset="0.125"/><stop stop-opacity="1" stop-color="rgb(85.899353%, 1.998901%, 0%)" offset="0.15625"/><stop stop-opacity="1" stop-color="rgb(86.094666%, 2.194214%, 0.195312%)" offset="0.164062"/><stop stop-opacity="1" stop-color="rgb(86.485291%, 2.394104%, 0.395203%)" offset="0.171875"/><stop stop-opacity="1" stop-color="rgb(86.875916%, 2.537537%, 0.585938%)" offset="0.179688"/><stop stop-opacity="1" stop-color="rgb(87.084961%, 2.688599%, 0.785828%)" offset="0.1875"/><stop stop-opacity="1" stop-color="rgb(87.30011%, 2.89917%, 0.999451%)" offset="0.191406"/><stop stop-opacity="1" stop-color="rgb(87.503052%, 3.09906%, 1.199341%)" offset="0.195312"/><stop stop-opacity="1" stop-color="rgb(87.649536%, 3.09906%, 1.199341%)" offset="0.203125"/><stop stop-opacity="1" stop-color="rgb(87.797546%, 3.291321%, 1.391602%)" offset="0.210938"/><stop stop-opacity="1" stop-color="rgb(87.986755%, 3.491211%, 1.591492%)" offset="0.21875"/><stop stop-opacity="1" stop-color="rgb(88.371277%, 3.681946%, 1.782227%)" offset="0.226562"/><stop stop-opacity="1" stop-color="rgb(88.783264%, 3.886414%, 1.986694%)" offset="0.230469"/><stop stop-opacity="1" stop-color="rgb(88.999939%, 3.907776%, 2.008057%)" offset="0.234375"/><stop stop-opacity="1" stop-color="rgb(88.999939%, 4.103088%, 2.203369%)" offset="0.242187"/><stop stop-opacity="1" stop-color="rgb(89.193726%, 4.298401%, 2.398682%)" offset="0.25"/><stop stop-opacity="1" stop-color="rgb(89.584351%, 4.489136%, 2.542114%)" offset="0.257813"/><stop stop-opacity="1" stop-color="rgb(89.788818%, 4.689026%, 2.69165%)" offset="0.265625"/><stop stop-opacity="1" stop-color="rgb(90.005493%, 4.899597%, 2.89917%)" offset="0.269531"/><stop stop-opacity="1" stop-color="rgb(90.211487%, 5.099487%, 3.09906%)" offset="0.273438"/><stop stop-opacity="1" stop-color="rgb(90.405273%, 5.099487%, 3.09906%)" offset="0.28125"/><stop stop-opacity="1" stop-color="rgb(90.791321%, 5.291748%, 3.291321%)" offset="0.296875"/><stop stop-opacity="1" stop-color="rgb(91.175842%, 5.674744%, 3.675842%)" offset="0.3125"/><stop stop-opacity="1" stop-color="rgb(91.583252%, 5.885315%, 3.886414%)" offset="0.316406"/><stop stop-opacity="1" stop-color="rgb(91.799927%, 5.906677%, 3.90625%)" offset="0.320312"/><stop stop-opacity="1" stop-color="rgb(91.799927%, 6.10199%, 4.101562%)" offset="0.324219"/><stop stop-opacity="1" stop-color="rgb(91.799927%, 6.297302%, 4.298401%)" offset="0.328125"/><stop stop-opacity="1" stop-color="rgb(91.993713%, 6.297302%, 4.298401%)" offset="0.335938"/><stop stop-opacity="1" stop-color="rgb(92.193604%, 6.298828%, 4.299927%)" offset="0.34375"/><stop stop-opacity="1" stop-color="rgb(92.338562%, 6.483459%, 4.484558%)" offset="0.351562"/><stop stop-opacity="1" stop-color="rgb(92.687988%, 6.689453%, 4.690552%)" offset="0.355469"/><stop stop-opacity="1" stop-color="rgb(92.89856%, 6.710815%, 4.711914%)" offset="0.359375"/><stop stop-opacity="1" stop-color="rgb(92.900085%, 6.904602%, 4.905701%)" offset="0.367188"/><stop stop-opacity="1" stop-color="rgb(93.096924%, 7.099915%, 5.099487%)" offset="0.375"/><stop stop-opacity="1" stop-color="rgb(93.482971%, 7.287598%, 5.28717%)" offset="0.390625"/><stop stop-opacity="1" stop-color="rgb(93.695068%, 7.487488%, 5.487061%)" offset="0.398438"/><stop stop-opacity="1" stop-color="rgb(93.907166%, 7.501221%, 5.502319%)" offset="0.40625"/><stop stop-opacity="1" stop-color="rgb(94.099426%, 7.650757%, 5.702209%)" offset="0.414063"/><stop stop-opacity="1" stop-color="rgb(94.293213%, 7.797241%, 5.897522%)" offset="0.421875"/><stop stop-opacity="1" stop-color="rgb(94.587708%, 7.893372%, 5.993652%)" offset="0.429688"/><stop stop-opacity="1" stop-color="rgb(94.786072%, 8.087158%, 6.187439%)" offset="0.4375"/><stop stop-opacity="1" stop-color="rgb(94.891357%, 8.192444%, 6.292725%)" offset="0.453125"/><stop stop-opacity="1" stop-color="rgb(95.095825%, 8.395386%, 6.495667%)" offset="0.46875"/><stop stop-opacity="1" stop-color="rgb(95.394897%, 8.694458%, 6.794739%)" offset="0.476563"/><stop stop-opacity="1" stop-color="rgb(95.602417%, 8.898926%, 6.999207%)" offset="0.484375"/><stop stop-opacity="1" stop-color="rgb(95.903015%, 8.999634%, 7.099915%)" offset="0.5"/><stop stop-opacity="1" stop-color="rgb(96.29364%, 9.19342%, 7.293701%)" offset="0.515625"/><stop stop-opacity="1" stop-color="rgb(96.592712%, 9.393311%, 7.493591%)" offset="0.523438"/><stop stop-opacity="1" stop-color="rgb(96.79718%, 9.40094%, 7.501221%)" offset="0.53125"/><stop stop-opacity="1" stop-color="rgb(96.899414%, 9.501648%, 7.575989%)" offset="0.539062"/><stop stop-opacity="1" stop-color="rgb(96.899414%, 9.69696%, 7.722473%)" offset="0.546875"/><stop stop-opacity="1" stop-color="rgb(97.093201%, 9.797668%, 7.797241%)" offset="0.5625"/><stop stop-opacity="1" stop-color="rgb(97.366333%, 9.896851%, 7.896423%)" offset="0.570312"/><stop stop-opacity="1" stop-color="rgb(97.523499%, 10.096741%, 8.096313%)" offset="0.578125"/><stop stop-opacity="1" stop-color="rgb(97.798157%, 10.198975%, 8.198547%)" offset="0.59375"/><stop stop-opacity="1" stop-color="rgb(97.996521%, 10.299683%, 8.299255%)" offset="0.601562"/><stop stop-opacity="1" stop-color="rgb(98.00415%, 10.499573%, 8.500671%)" offset="0.609375"/><stop stop-opacity="1" stop-color="rgb(98.204041%, 10.598755%, 8.599854%)" offset="0.625"/><stop stop-opacity="1" stop-color="rgb(98.399353%, 10.598755%, 8.599854%)" offset="0.640625"/><stop stop-opacity="1" stop-color="rgb(98.498535%, 10.697937%, 8.699036%)" offset="0.648437"/><stop stop-opacity="1" stop-color="rgb(98.698425%, 10.897827%, 8.898926%)" offset="0.65625"/><stop stop-opacity="1" stop-color="rgb(98.799133%, 10.998535%, 8.999634%)" offset="0.6875"/><stop stop-opacity="1" stop-color="rgb(98.89679%, 11.096191%, 9.09729%)" offset="0.703125"/><stop stop-opacity="1" stop-color="rgb(99.095154%, 11.296082%, 9.295654%)" offset="0.71875"/><stop stop-opacity="1" stop-color="rgb(99.298096%, 11.398315%, 9.397888%)" offset="0.734375"/><stop stop-opacity="1" stop-color="rgb(99.497986%, 11.399841%, 9.399414%)" offset="0.75"/><stop stop-opacity="1" stop-color="rgb(99.699402%, 11.499023%, 9.498596%)" offset="0.875"/><stop stop-opacity="1" stop-color="rgb(99.899292%, 11.698914%, 9.698486%)" offset="1"/></linearGradient><clipPath id="a27219905e"><path d="M 10.582031 110.527344 L 140.695312 110.527344 L 140.695312 240.640625 L 10.582031 240.640625 Z M 10.582031 110.527344 " clip-rule="nonzero"/></clipPath></defs><path fill="#ffdc00" d="M 349.171875 140.347656 L 85.445312 140.347656 L 200.632812 49.46875 C 210.410156 41.757812 224.230469 41.757812 234.003906 49.476562 L 349.171875 140.347656 " fill-opacity="1" fill-rule="nonzero"/><path fill="#ffae0e" d="M 349.171875 140.347656 C 340.566406 146.945312 331.023438 154.394531 321.121094 162.199219 C 299.246094 179.457031 275.609375 198.476562 256.425781 214.007812 C 233.765625 232.363281 217.320312 245.859375 217.320312 245.859375 C 217.320312 245.859375 200.875 232.363281 178.210938 214.007812 C 159.027344 198.476562 135.386719 179.457031 113.503906 162.199219 C 103.601562 154.394531 94.058594 146.945312 85.445312 140.347656 L 349.171875 140.347656 " fill-opacity="1" fill-rule="nonzero"/><g clip-path="url(#f4c83f7d85)"><path fill="#ffdc00" d="M 357.453125 318.140625 C 350.773438 327.082031 340.089844 332.882812 328.078125 332.882812 L 106.527344 332.882812 C 94.527344 332.882812 83.855469 327.082031 77.175781 318.148438 L 178.367188 228.550781 L 179.191406 227.816406 L 182.96875 230.796875 L 217.3125 257.894531 L 251.660156 230.792969 L 251.667969 230.792969 L 255.445312 227.8125 L 256.269531 228.542969 L 357.453125 318.140625 " fill-opacity="1" fill-rule="nonzero"/></g><g clip-path="url(#02bcfb9a91)"><path fill="#ffdc00" d="M 364.683594 168.523438 L 364.683594 296.371094 C 364.683594 304.53125 361.992188 312.0625 357.453125 318.140625 L 266.496094 237.59375 L 256.269531 228.539062 L 255.441406 227.808594 L 354.355469 149.78125 C 354.386719 149.742188 354.425781 149.710938 354.46875 149.683594 L 357.679688 147.148438 C 357.679688 147.148438 358.652344 148.453125 359.03125 149.042969 C 359.15625 149.246094 359.285156 149.445312 359.402344 149.648438 C 362.761719 155.15625 364.683594 161.617188 364.683594 168.523438 " fill-opacity="1" fill-rule="nonzero"/></g><path fill="#ffdc00" d="M 179.191406 227.816406 L 178.367188 228.546875 L 168.140625 237.605469 L 77.179688 318.148438 C 72.632812 312.066406 69.945312 304.53125 69.945312 296.371094 L 69.945312 168.523438 C 69.945312 161.363281 72.015625 154.683594 75.589844 149.042969 C 75.816406 148.691406 76.605469 147.722656 77.359375 146.796875 C 77.414062 146.734375 77.460938 146.667969 77.511719 146.605469 L 79.261719 145.226562 L 179.191406 227.816406 " fill-opacity="1" fill-rule="nonzero"/><path fill="#ffc600" d="M 347.824219 156.421875 C 343.070312 161.238281 338.117188 166.238281 333.105469 171.28125 C 303.832031 200.71875 272.453125 231.71875 266.496094 237.59375 L 266.492188 237.597656 C 265.839844 238.242188 265.496094 238.589844 265.496094 238.589844 C 265.496094 238.589844 268.976562 242.078125 274.375 247.535156 C 293.292969 266.648438 335.714844 309.902344 333.945312 311.53125 C 331.066406 314.183594 246.582031 252.382812 246.582031 252.382812 L 225.433594 267.792969 C 223.730469 269.027344 221.6875 269.832031 219.519531 270.105469 C 218.839844 270.195312 218.113281 270.226562 217.320312 270.195312 C 216.519531 270.226562 215.792969 270.195312 215.105469 270.105469 C 212.9375 269.832031 210.90625 269.027344 209.191406 267.792969 L 188.050781 252.382812 C 188.050781 252.382812 102.988281 313.664062 100.683594 311.539062 C 98.914062 309.902344 141.339844 266.648438 160.257812 247.535156 C 165.652344 242.078125 169.136719 238.589844 169.136719 238.589844 C 169.136719 238.589844 168.789062 238.246094 168.140625 237.605469 C 162.214844 231.765625 130.804688 200.730469 101.503906 171.253906 C 96.496094 166.21875 91.546875 161.226562 86.800781 156.410156 C 84.566406 154.144531 82.382812 151.921875 80.25 149.75 L 80.238281 149.742188 C 79.265625 148.742188 78.308594 147.769531 77.359375 146.796875 C 77.347656 146.785156 77.335938 146.769531 77.324219 146.757812 L 77.511719 146.605469 L 79.261719 145.226562 L 80.277344 144.429688 L 85.445312 140.347656 C 90.519531 144.234375 95.90625 148.414062 101.503906 152.78125 C 105.417969 155.835938 109.433594 158.992188 113.503906 162.199219 C 161.25 199.84375 217.320312 245.859375 217.320312 245.859375 C 217.320312 245.859375 273.386719 199.84375 321.121094 162.199219 C 325.1875 158.992188 329.199219 155.84375 333.105469 152.789062 C 338.710938 148.414062 344.105469 144.234375 349.171875 140.347656 L 354.378906 144.453125 L 354.386719 144.460938 L 357.679688 147.148438 C 357.679688 147.148438 350.042969 154.160156 347.824219 156.421875 " fill-opacity="1" fill-rule="nonzero"/><path fill="#f5f5f7" d="M 333.105469 91.398438 L 333.105469 152.789062 C 329.199219 155.84375 325.1875 158.992188 321.121094 162.199219 C 273.386719 199.84375 217.320312 245.859375 217.320312 245.859375 C 217.320312 245.859375 161.25 199.84375 113.503906 162.199219 C 109.433594 158.992188 105.417969 155.835938 101.503906 152.78125 L 101.503906 59.289062 L 300.921875 59.289062 L 333.105469 91.398438 " fill-opacity="1" fill-rule="nonzero"/><path fill="#d3d2cd" d="M 333.105469 91.398438 L 300.921875 91.398438 L 300.921875 59.289062 Z M 333.105469 91.398438 " fill-opacity="1" fill-rule="nonzero"/><path fill="#d3d2cd" d="M 198.28125 148.160156 C 198.28125 159.699219 203.121094 165.734375 211.054688 165.734375 C 220.734375 165.734375 227.996094 159.5625 231.761719 142.660156 C 235.253906 127.238281 230.820312 118.652344 218.71875 118.652344 C 205.8125 118.652344 198.28125 132.332031 198.28125 148.160156 Z M 248.699219 190.414062 C 241.980469 195.375 231.222656 199.402344 215.222656 199.402344 C 185.105469 199.402344 164.265625 179.011719 164.265625 146.015625 C 164.265625 113.285156 185.914062 86.863281 221.542969 86.863281 C 248.429688 86.863281 270.347656 104.03125 270.347656 133.273438 C 270.347656 157.683594 257.574219 172.304688 241.980469 172.304688 C 234.449219 172.304688 229.339844 168.953125 229.878906 160.503906 C 225.441406 167.878906 219.527344 172.304688 209.976562 172.304688 C 199.492188 172.304688 191.15625 164.660156 191.15625 148.832031 C 191.15625 128.175781 203.121094 112.214844 218.851562 112.214844 C 231.085938 112.214844 234.988281 119.589844 236.0625 124.285156 L 238.617188 113.554688 L 245.070312 113.554688 L 236.734375 152.585938 C 234.582031 162.648438 237.675781 165.734375 242.917969 165.734375 C 254.75 165.734375 262.953125 153.257812 262.953125 133.808594 C 262.953125 109.261719 246.144531 93.433594 221.003906 93.433594 C 190.617188 93.433594 171.929688 116.105469 171.796875 146.015625 C 171.660156 172.84375 188.734375 192.558594 215.625 192.558594 C 226.515625 192.558594 237.40625 190.28125 246.414062 184.378906 L 248.699219 190.414062 " fill-opacity="1" fill-rule="nonzero"/><g clip-path="url(#d0701ecc1c)"><g clip-path="url(#a138bcfb9b)"><g clip-path="url(#388b9fd678)"><g clip-path="url(#ad5263e68b)"><path fill="url(#1e08807d0f)" d="M 71.546875 299.664062 L 197.726562 176.824219 L 74.597656 50.941406 L -51.582031 173.78125 Z M 71.546875 299.664062 " fill-rule="nonzero"/></g></g></g></g><path fill="#ffffff" d="M 59.046875 143.648438 L 80.863281 143.648438 L 80.863281 206.957031 L 67.128906 206.957031 L 67.128906 156.925781 L 59.046875 156.925781 L 59.046875 143.648438 " fill-opacity="1" fill-rule="nonzero"/><g clip-path="url(#a27219905e)"><path stroke-linecap="butt" transform="matrix(0.340248, 0, 0, 0.340248, 10.582617, 110.528078)" fill-opacity="1" fill="#00d300" fill-rule="nonzero" stroke-linejoin="miter" d="M 191.219099 381.945818 C 85.884623 381.945818 0.503424 296.553138 0.503424 191.218662 C 0.503424 85.884186 85.884623 0.502987 191.219099 0.502987 C 296.553575 0.502987 381.946254 85.895667 381.946254 191.218662 C 381.946254 296.553138 296.553575 381.945818 191.219099 381.945818 Z M 191.219099 381.945818 " stroke="#3fb24f" stroke-width="1" stroke-opacity="1" stroke-miterlimit="10"/></g><path fill="#ffffff" d="M 62.367188 216.074219 L 34.394531 179.742188 L 45.179688 171.441406 L 62.75 194.261719 L 106.261719 141.675781 L 116.75 150.351562 Z M 62.367188 216.074219 " fill-opacity="1" fill-rule="nonzero"/></svg>