<svg xmlns="http://www.w3.org/2000/svg" xmlns:xlink="http://www.w3.org/1999/xlink" width="500" zoomAndPan="magnify" viewBox="0 0 375 374.999991" height="500" preserveAspectRatio="xMidYMid meet" version="1.0"><defs><clipPath id="75c1b8ee45"><path d="M 16 16 L 358.722656 16 L 358.722656 358.722656 L 16 358.722656 Z M 16 16 " clip-rule="nonzero"/></clipPath><clipPath id="c91a6d6fd1"><path d="M 85.246094 72.492188 L 202 72.492188 L 202 270 L 85.246094 270 Z M 85.246094 72.492188 " clip-rule="nonzero"/></clipPath><clipPath id="681b462955"><path d="M 146 104 L 289.960938 104 L 289.960938 302.507812 L 146 302.507812 Z M 146 104 " clip-rule="nonzero"/></clipPath></defs><g clip-path="url(#75c1b8ee45)"><path fill="#00bf63" d="M 358.988281 187.492188 C 358.988281 190.300781 358.917969 193.105469 358.78125 195.910156 C 358.644531 198.710938 358.4375 201.511719 358.160156 204.304688 C 357.886719 207.097656 357.542969 209.882812 357.132812 212.65625 C 356.71875 215.433594 356.238281 218.199219 355.691406 220.949219 C 355.144531 223.703125 354.53125 226.441406 353.847656 229.164062 C 353.164062 231.886719 352.417969 234.589844 351.601562 237.277344 C 350.789062 239.960938 349.90625 242.625 348.960938 245.269531 C 348.015625 247.910156 347.007812 250.527344 345.933594 253.121094 C 344.859375 255.714844 343.722656 258.28125 342.523438 260.816406 C 341.320312 263.355469 340.058594 265.859375 338.738281 268.335938 C 337.414062 270.808594 336.03125 273.25 334.589844 275.660156 C 333.144531 278.066406 331.644531 280.4375 330.085938 282.769531 C 328.527344 285.105469 326.910156 287.398438 325.238281 289.652344 C 323.566406 291.90625 321.839844 294.117188 320.058594 296.289062 C 318.28125 298.457031 316.445312 300.582031 314.5625 302.660156 C 312.675781 304.742188 310.742188 306.773438 308.757812 308.757812 C 306.773438 310.742188 304.742188 312.675781 302.660156 314.5625 C 300.582031 316.445312 298.457031 318.28125 296.289062 320.058594 C 294.117188 321.839844 291.90625 323.566406 289.652344 325.238281 C 287.398438 326.910156 285.105469 328.527344 282.769531 330.085938 C 280.4375 331.644531 278.066406 333.144531 275.660156 334.589844 C 273.25 336.03125 270.808594 337.414062 268.335938 338.738281 C 265.859375 340.058594 263.355469 341.320312 260.816406 342.523438 C 258.28125 343.722656 255.714844 344.859375 253.121094 345.933594 C 250.527344 347.007812 247.910156 348.015625 245.269531 348.960938 C 242.625 349.90625 239.960938 350.789062 237.277344 351.601562 C 234.589844 352.417969 231.886719 353.164062 229.164062 353.847656 C 226.441406 354.53125 223.703125 355.144531 220.949219 355.691406 C 218.199219 356.238281 215.433594 356.71875 212.65625 357.132812 C 209.882812 357.542969 207.097656 357.886719 204.304688 358.160156 C 201.511719 358.4375 198.710938 358.644531 195.910156 358.78125 C 193.105469 358.917969 190.300781 358.988281 187.492188 358.988281 C 184.6875 358.988281 181.882812 358.917969 179.078125 358.78125 C 176.277344 358.644531 173.476562 358.4375 170.683594 358.160156 C 167.890625 357.886719 165.105469 357.542969 162.332031 357.132812 C 159.554688 356.71875 156.789062 356.238281 154.039062 355.691406 C 151.285156 355.144531 148.546875 354.53125 145.824219 353.847656 C 143.101562 353.164062 140.398438 352.417969 137.710938 351.601562 C 135.027344 350.789062 132.363281 349.90625 129.71875 348.960938 C 127.078125 348.015625 124.460938 347.007812 121.867188 345.933594 C 119.273438 344.859375 116.707031 343.722656 114.171875 342.523438 C 111.632812 341.320312 109.128906 340.058594 106.652344 338.738281 C 104.175781 337.414062 101.734375 336.03125 99.328125 334.589844 C 96.921875 333.144531 94.550781 331.644531 92.21875 330.085938 C 89.882812 328.527344 87.589844 326.910156 85.335938 325.238281 C 83.082031 323.566406 80.871094 321.839844 78.699219 320.058594 C 76.53125 318.28125 74.40625 316.445312 72.324219 314.5625 C 70.246094 312.675781 68.214844 310.742188 66.230469 308.757812 C 64.246094 306.773438 62.3125 304.742188 60.425781 302.660156 C 58.542969 300.582031 56.707031 298.457031 54.929688 296.289062 C 53.148438 294.117188 51.421875 291.90625 49.75 289.652344 C 48.078125 287.398438 46.460938 285.105469 44.902344 282.769531 C 43.34375 280.4375 41.84375 278.066406 40.398438 275.660156 C 38.957031 273.25 37.574219 270.808594 36.25 268.335938 C 34.925781 265.859375 33.664062 263.355469 32.464844 260.816406 C 31.265625 258.28125 30.128906 255.714844 29.054688 253.121094 C 27.980469 250.527344 26.972656 247.910156 26.027344 245.269531 C 25.078125 242.625 24.199219 239.960938 23.386719 237.277344 C 22.570312 234.589844 21.820312 231.886719 21.140625 229.164062 C 20.457031 226.441406 19.84375 223.703125 19.296875 220.949219 C 18.75 218.199219 18.269531 215.433594 17.855469 212.65625 C 17.445312 209.882812 17.101562 207.097656 16.828125 204.304688 C 16.550781 201.511719 16.34375 198.710938 16.207031 195.910156 C 16.070312 193.105469 16 190.300781 16 187.492188 C 16 184.6875 16.070312 181.882812 16.207031 179.078125 C 16.34375 176.277344 16.550781 173.476562 16.828125 170.683594 C 17.101562 167.890625 17.445312 165.105469 17.855469 162.332031 C 18.269531 159.554688 18.75 156.789062 19.296875 154.039062 C 19.84375 151.285156 20.457031 148.546875 21.140625 145.824219 C 21.820312 143.101562 22.570312 140.398438 23.386719 137.710938 C 24.199219 135.027344 25.078125 132.363281 26.027344 129.71875 C 26.972656 127.078125 27.980469 124.460938 29.054688 121.867188 C 30.128906 119.273438 31.265625 116.707031 32.464844 114.171875 C 33.664062 111.632812 34.925781 109.128906 36.25 106.652344 C 37.574219 104.175781 38.957031 101.734375 40.398438 99.328125 C 41.84375 96.921875 43.34375 94.550781 44.902344 92.21875 C 46.460938 89.882812 48.078125 87.589844 49.75 85.335938 C 51.421875 83.082031 53.148438 80.871094 54.929688 78.699219 C 56.707031 76.53125 58.542969 74.40625 60.425781 72.324219 C 62.3125 70.246094 64.246094 68.214844 66.230469 66.230469 C 68.214844 64.246094 70.246094 62.3125 72.324219 60.425781 C 74.40625 58.542969 76.53125 56.707031 78.699219 54.929688 C 80.871094 53.148438 83.082031 51.421875 85.335938 49.75 C 87.589844 48.078125 89.882812 46.460938 92.21875 44.902344 C 94.550781 43.34375 96.921875 41.84375 99.328125 40.398438 C 101.734375 38.957031 104.175781 37.574219 106.652344 36.25 C 109.128906 34.925781 111.632812 33.664062 114.171875 32.464844 C 116.707031 31.265625 119.273438 30.128906 121.867188 29.054688 C 124.460938 27.980469 127.078125 26.972656 129.71875 26.027344 C 132.363281 25.078125 135.027344 24.199219 137.710938 23.386719 C 140.398438 22.570312 143.101562 21.820312 145.824219 21.140625 C 148.546875 20.457031 151.285156 19.84375 154.039062 19.296875 C 156.789062 18.75 159.554688 18.269531 162.332031 17.855469 C 165.105469 17.445312 167.890625 17.101562 170.683594 16.828125 C 173.476562 16.550781 176.277344 16.34375 179.078125 16.207031 C 181.882812 16.070312 184.6875 16 187.492188 16 C 190.300781 16 193.105469 16.070312 195.910156 16.207031 C 198.710938 16.34375 201.511719 16.550781 204.304688 16.828125 C 207.097656 17.101562 209.882812 17.445312 212.65625 17.855469 C 215.433594 18.269531 218.199219 18.75 220.949219 19.296875 C 223.703125 19.84375 226.441406 20.457031 229.164062 21.140625 C 231.886719 21.820312 234.589844 22.570312 237.277344 23.386719 C 239.960938 24.199219 242.625 25.078125 245.269531 26.027344 C 247.910156 26.972656 250.527344 27.980469 253.121094 29.054688 C 255.714844 30.128906 258.28125 31.265625 260.816406 32.464844 C 263.355469 33.664062 265.859375 34.925781 268.335938 36.25 C 270.808594 37.574219 273.25 38.957031 275.660156 40.398438 C 278.066406 41.84375 280.4375 43.34375 282.769531 44.902344 C 285.105469 46.460938 287.398438 48.078125 289.652344 49.75 C 291.90625 51.421875 294.117188 53.148438 296.289062 54.929688 C 298.457031 56.707031 300.582031 58.542969 302.660156 60.425781 C 304.742188 62.3125 306.773438 64.246094 308.757812 66.230469 C 310.742188 68.214844 312.675781 70.246094 314.5625 72.324219 C 316.445312 74.40625 318.28125 76.53125 320.058594 78.699219 C 321.839844 80.871094 323.566406 83.082031 325.238281 85.335938 C 326.910156 87.589844 328.527344 89.882812 330.085938 92.21875 C 331.644531 94.550781 333.144531 96.921875 334.589844 99.328125 C 336.03125 101.734375 337.414062 104.175781 338.738281 106.652344 C 340.058594 109.128906 341.320312 111.632812 342.523438 114.171875 C 343.722656 116.707031 344.859375 119.273438 345.933594 121.867188 C 347.007812 124.460938 348.015625 127.078125 348.960938 129.71875 C 349.90625 132.363281 350.789062 135.027344 351.601562 137.710938 C 352.417969 140.398438 353.164062 143.101562 353.847656 145.824219 C 354.53125 148.546875 355.144531 151.285156 355.691406 154.039062 C 356.238281 156.789062 356.71875 159.554688 357.132812 162.332031 C 357.542969 165.105469 357.886719 167.890625 358.160156 170.683594 C 358.4375 173.476562 358.644531 176.277344 358.78125 179.078125 C 358.917969 181.882812 358.988281 184.6875 358.988281 187.492188 Z M 358.988281 187.492188 " fill-opacity="1" fill-rule="nonzero"/></g><g clip-path="url(#c91a6d6fd1)"><path fill="#000000" d="M 162.804688 72.492188 C 165.71875 73.160156 168.695312 73.644531 171.609375 74.433594 C 183.871094 77.949219 193.585938 84.984375 201.113281 95.476562 C 177.921875 102.8125 162.136719 117.671875 155.582031 141.140625 C 148.90625 165.152344 156.371094 185.40625 173.792969 202.628906 C 149.449219 218.398438 133.605469 239.015625 135.0625 269.699219 C 134.214844 269.761719 133.546875 269.882812 132.878906 269.882812 C 125.046875 269.882812 117.214844 269.941406 109.324219 269.882812 C 97.0625 269.820312 87.894531 262 85.769531 249.929688 C 85.710938 249.386719 85.527344 248.898438 85.34375 248.414062 L 85.34375 227.917969 C 85.46875 227.3125 85.710938 226.703125 85.769531 226.097656 C 86.4375 218.882812 88.746094 212.152344 92.386719 205.964844 C 101.554688 190.5 115.152344 180.433594 131.601562 173.886719 C 132.695312 173.460938 133.789062 173.035156 134.394531 172.792969 C 129.175781 168.429688 123.589844 164.425781 118.792969 159.636719 C 109.75 150.539062 103.980469 139.5 103.738281 126.28125 C 103.253906 102.148438 120.007812 80.316406 143.441406 74.3125 C 146.113281 73.644531 148.84375 73.097656 151.574219 72.492188 Z M 162.804688 72.492188 " fill-opacity="1" fill-rule="nonzero"/></g><g clip-path="url(#681b462955)"><path fill="#000000" d="M 195.953125 205.175781 C 192.371094 202.570312 188.667969 200.203125 185.328125 197.355469 C 175.371094 188.925781 167.84375 178.738281 165.660156 165.578125 C 163.171875 150.597656 166.996094 136.953125 176.585938 125.3125 C 190.304688 108.574219 208.335938 101.78125 229.523438 106.390625 C 251.863281 111.242188 265.703125 125.734375 270.679688 148.050781 C 274.503906 165.09375 268.859375 179.648438 257.082031 191.898438 C 252.652344 196.445312 247.1875 200.023438 242.148438 204.023438 C 241.664062 204.390625 241.175781 204.691406 240.386719 205.175781 C 243.242188 206.390625 245.914062 207.359375 248.460938 208.574219 C 264.003906 215.851562 276.691406 226.21875 284.644531 241.746094 C 287.980469 248.234375 289.863281 255.144531 289.621094 262.542969 C 289.4375 268.425781 289.558594 274.308594 289.558594 280.25 C 289.558594 290.742188 281.789062 300.140625 271.46875 302.082031 C 269.890625 302.386719 268.253906 302.507812 266.613281 302.507812 L 169.910156 302.507812 C 157.644531 302.507812 147.265625 293.109375 146.902344 280.859375 C 146.660156 272.125 146.476562 263.273438 147.75 254.660156 C 149.753906 241.257812 157.585938 230.769531 167.542969 221.855469 C 175.3125 214.878906 184.234375 209.785156 194.007812 206.148438 C 194.617188 205.90625 195.164062 205.722656 195.707031 205.480469 C 195.890625 205.417969 195.953125 205.238281 195.953125 205.175781 Z M 195.953125 205.175781 " fill-opacity="1" fill-rule="nonzero"/></g></svg>