<svg xmlns="http://www.w3.org/2000/svg" xmlns:xlink="http://www.w3.org/1999/xlink" width="500" zoomAndPan="magnify" viewBox="0 0 375 374.999991" height="500" preserveAspectRatio="xMidYMid meet" version="1.0"><defs><clipPath id="d44547dab4"><path d="M 3.40625 4 L 371 4 L 371 371.65625 L 3.40625 371.65625 Z M 3.40625 4 " clip-rule="nonzero"/></clipPath></defs><g clip-path="url(#d44547dab4)"><path fill="#040606" d="M 327.613281 217.757812 L 327.613281 205.882812 C 327.613281 202.511719 324.863281 199.765625 321.496094 199.765625 L 266.441406 199.765625 C 263.070312 199.765625 260.324219 197.015625 260.324219 193.648438 L 260.324219 181.414062 C 260.324219 178.042969 263.070312 175.296875 266.441406 175.296875 L 321.496094 175.296875 C 324.863281 175.296875 327.613281 172.546875 327.613281 169.179688 L 327.613281 156.875 C 327.660156 156.921875 327.730469 156.96875 327.851562 156.992188 L 357.578125 187.53125 Z M 284.792969 346.574219 C 284.792969 353.3125 279.296875 358.808594 272.558594 358.808594 L 101.277344 358.808594 C 94.539062 358.808594 89.046875 353.3125 89.046875 346.574219 L 89.046875 228.75 C 90.097656 228.175781 91.101562 227.484375 91.9375 226.621094 L 110.097656 207.984375 C 119.175781 242.371094 150.289062 267.054688 186.917969 267.054688 C 221.636719 267.054688 252.367188 244.136719 262.714844 211.617188 C 263.910156 211.855469 265.152344 212 266.441406 212 L 284.792969 212 Z M 21.757812 199.765625 C 18.386719 199.765625 15.640625 197.015625 15.640625 193.648438 L 15.640625 181.414062 C 15.640625 178.042969 18.386719 175.296875 21.757812 175.296875 L 76.8125 175.296875 C 80.179688 175.296875 82.929688 172.546875 82.929688 169.179688 L 82.929688 156.875 C 82.976562 156.921875 83.046875 156.96875 83.167969 156.992188 L 112.890625 187.53125 L 82.929688 217.757812 L 82.929688 205.882812 C 82.929688 202.511719 80.179688 199.765625 76.8125 199.765625 Z M 122.617188 179.957031 L 120.371094 177.660156 C 125.222656 144.757812 153.324219 120.242188 186.917969 120.242188 C 217.410156 120.242188 244.242188 141.125 251.9375 170.324219 C 249.546875 173.410156 248.089844 177.230469 248.089844 181.414062 L 248.089844 193.648438 C 248.089844 197.828125 249.546875 201.652344 251.9375 204.734375 C 244.242188 233.933594 217.410156 254.820312 186.917969 254.820312 C 153.324219 254.820312 125.246094 230.300781 120.371094 197.398438 L 122.570312 195.128906 C 126.800781 190.875 126.800781 184.183594 122.617188 179.957031 Z M 101.277344 16.25 L 125.746094 16.25 L 125.746094 34.601562 C 125.746094 44.734375 133.96875 52.953125 144.097656 52.953125 L 229.738281 52.953125 C 239.871094 52.953125 248.089844 44.734375 248.089844 34.601562 L 248.089844 16.25 L 272.558594 16.25 C 279.296875 16.25 284.792969 21.746094 284.792969 28.484375 L 284.792969 163.0625 L 266.441406 163.0625 C 265.152344 163.0625 263.910156 163.207031 262.714844 163.445312 C 252.367188 130.921875 221.636719 108.007812 186.917969 108.007812 C 150.289062 108.007812 119.175781 132.691406 110.097656 167.101562 L 91.9375 148.4375 C 91.101562 147.578125 90.097656 146.886719 89.046875 146.3125 L 89.046875 28.484375 C 89.046875 21.746094 94.539062 16.25 101.277344 16.25 Z M 137.980469 16.25 L 235.855469 16.25 L 235.855469 34.601562 C 235.855469 37.972656 233.109375 40.71875 229.738281 40.71875 L 144.097656 40.71875 C 140.730469 40.71875 137.980469 37.972656 137.980469 34.601562 Z M 336.621094 148.4375 C 334.277344 146.050781 331.078125 144.710938 327.589844 144.710938 C 320.851562 144.710938 315.378906 149.871094 315.378906 156.226562 L 315.378906 163.0625 L 297.027344 163.0625 L 297.027344 28.484375 C 297.027344 14.984375 286.058594 4.015625 272.558594 4.015625 L 101.277344 4.015625 C 87.777344 4.015625 76.8125 14.984375 76.8125 28.484375 L 76.8125 146.3125 C 73.179688 148.320312 70.695312 151.976562 70.695312 156.226562 L 70.695312 163.0625 L 21.757812 163.0625 C 11.625 163.0625 3.40625 171.28125 3.40625 181.414062 L 3.40625 193.648438 C 3.40625 203.777344 11.625 212 21.757812 212 L 70.695312 212 L 70.695312 218.832031 C 70.695312 223.085938 73.179688 226.742188 76.8125 228.75 L 76.8125 346.574219 C 76.8125 360.074219 87.777344 371.042969 101.277344 371.042969 L 272.558594 371.042969 C 286.058594 371.042969 297.027344 360.074219 297.027344 346.574219 L 297.027344 212 L 315.378906 212 L 315.378906 218.832031 C 315.378906 225.1875 320.851562 230.351562 327.589844 230.351562 C 331.078125 230.351562 334.277344 229.011719 336.621094 226.621094 L 367.253906 195.128906 C 371.484375 190.875 371.484375 184.183594 367.300781 179.957031 L 336.621094 148.4375 " fill-opacity="1" fill-rule="nonzero"/></g><path fill="#040606" d="M 107.394531 46.835938 C 110.765625 46.835938 113.511719 44.089844 113.511719 40.71875 L 113.511719 34.601562 C 113.511719 31.234375 110.765625 28.484375 107.394531 28.484375 C 104.027344 28.484375 101.277344 31.234375 101.277344 34.601562 L 101.277344 40.71875 C 101.277344 44.089844 104.027344 46.835938 107.394531 46.835938 " fill-opacity="1" fill-rule="nonzero"/><path fill="#040606" d="M 266.441406 46.835938 C 269.808594 46.835938 272.558594 44.089844 272.558594 40.71875 L 272.558594 34.601562 C 272.558594 31.234375 269.808594 28.484375 266.441406 28.484375 C 263.070312 28.484375 260.324219 31.234375 260.324219 34.601562 L 260.324219 40.71875 C 260.324219 44.089844 263.070312 46.835938 266.441406 46.835938 " fill-opacity="1" fill-rule="nonzero"/><path fill="#040606" d="M 229.738281 334.339844 L 144.097656 334.339844 C 140.730469 334.339844 137.980469 337.089844 137.980469 340.457031 C 137.980469 343.828125 140.730469 346.574219 144.097656 346.574219 L 229.738281 346.574219 C 233.109375 346.574219 235.855469 343.828125 235.855469 340.457031 C 235.855469 337.089844 233.109375 334.339844 229.738281 334.339844 " fill-opacity="1" fill-rule="nonzero"/><path fill="#040606" d="M 186.917969 218.117188 C 180.179688 218.117188 174.683594 212.621094 174.683594 205.882812 C 174.683594 202.511719 171.9375 199.765625 168.566406 199.765625 C 165.199219 199.765625 162.449219 202.511719 162.449219 205.882812 C 162.449219 217.253906 170.289062 226.742188 180.800781 229.488281 L 180.800781 230.351562 C 180.800781 233.71875 183.550781 236.46875 186.917969 236.46875 C 190.289062 236.46875 193.035156 233.71875 193.035156 230.351562 L 193.035156 229.488281 C 203.550781 226.742188 211.386719 217.253906 211.386719 205.882812 C 211.386719 192.382812 200.417969 181.414062 186.917969 181.414062 C 180.179688 181.414062 174.683594 175.917969 174.683594 169.179688 C 174.683594 162.441406 180.179688 156.945312 186.917969 156.945312 C 193.65625 156.945312 199.152344 162.441406 199.152344 169.179688 C 199.152344 172.546875 201.902344 175.296875 205.269531 175.296875 C 208.640625 175.296875 211.386719 172.546875 211.386719 169.179688 C 211.386719 157.804688 203.550781 148.320312 193.035156 145.570312 L 193.035156 144.710938 C 193.035156 141.339844 190.289062 138.59375 186.917969 138.59375 C 183.550781 138.59375 180.800781 141.339844 180.800781 144.710938 L 180.800781 145.570312 C 170.289062 148.320312 162.449219 157.804688 162.449219 169.179688 C 162.449219 182.679688 173.417969 193.648438 186.917969 193.648438 C 193.65625 193.648438 199.152344 199.144531 199.152344 205.882812 C 199.152344 212.621094 193.65625 218.117188 186.917969 218.117188 " fill-opacity="1" fill-rule="nonzero"/></svg>