<svg xmlns="http://www.w3.org/2000/svg" xmlns:xlink="http://www.w3.org/1999/xlink" width="500" zoomAndPan="magnify" viewBox="0 0 375 374.999991" height="500" preserveAspectRatio="xMidYMid meet" version="1.0"><path fill="#8bc34a" d="M 49.433594 9.375 L 18.75 121.875 L 131.25 91.191406 Z M 49.433594 9.375 " fill-opacity="1" fill-rule="nonzero"/><path fill="#2e7d32" d="M 194.382812 174.9375 C 194.382812 174.9375 170.464844 167.757812 170.464844 151.386719 C 170.464844 132.234375 186.65625 132.421875 190.058594 132.421875 C 196.398438 132.421875 210.824219 135.824219 210.824219 159.375 L 243.75 159.375 C 243.75 113.671875 208.003906 109.566406 196.875 107.925781 L 196.875 84.375 L 178.125 84.375 L 178.125 108.179688 C 165.929688 110.304688 137.511719 118.648438 137.511719 151.285156 C 137.511719 186.148438 172.152344 195.703125 175.050781 196.914062 C 195.121094 205.265625 210.824219 207.789062 210.824219 225.804688 C 210.824219 243.9375 192.730469 244.40625 189.140625 244.40625 C 186.027344 244.40625 164.203125 245.210938 164.203125 215.625 L 131.25 215.625 C 131.25 261.84375 167.539062 267.777344 178.125 268.949219 L 178.125 290.625 L 196.875 290.625 L 196.875 269.054688 C 203.71875 268.398438 243.75 263.484375 243.75 225.542969 C 243.75 189.074219 201.777344 177.757812 194.382812 174.9375 Z M 194.382812 174.9375 " fill-opacity="1" fill-rule="nonzero"/><path fill="#8bc34a" d="M 37.5 187.5 C 37.5 184.164062 37.78125 180.890625 37.996094 177.601562 L 0.589844 175.164062 C 0.394531 179.304688 0 183.355469 0 187.5 C 0 192.824219 0.300781 198.054688 0.695312 203.390625 L 38.136719 200.109375 C 37.789062 195.9375 37.5 191.757812 37.5 187.5 Z M 44.765625 233.539062 L 9.179688 245.035156 C 12.335938 254.804688 16.179688 264.179688 20.820312 273.160156 L 54.1875 256.058594 C 50.476562 248.859375 47.289062 241.359375 44.765625 233.539062 Z M 73.078125 284.371094 L 44.410156 308.484375 C 50.925781 316.078125 57.929688 323.183594 65.53125 329.699219 L 89.878906 301.238281 C 83.851562 296.0625 78.214844 290.4375 73.078125 284.371094 Z M 120.234375 321.429688 L 103.425781 354.964844 C 112.210938 359.410156 121.386719 363.160156 130.855469 366.214844 L 142.199219 330.496094 C 134.578125 328.085938 127.273438 324.976562 120.234375 321.429688 Z M 187.5 0 C 130.519531 0 79.574219 25.507812 45.1875 65.625 L 100.285156 65.625 C 124.875 47.992188 154.929688 37.5 187.5 37.5 C 270.347656 37.5 337.5 104.652344 337.5 187.5 C 337.5 270.347656 270.347656 337.5 187.5 337.5 C 181.132812 337.5 174.910156 336.976562 168.75 336.207031 L 168.75 374.054688 C 174.917969 374.664062 181.171875 375 187.5 375 C 291.054688 375 375 291.054688 375 187.5 C 375 83.945312 291.054688 0 187.5 0 Z M 187.5 0 " fill-opacity="1" fill-rule="nonzero"/></svg>