<svg xmlns="http://www.w3.org/2000/svg" xmlns:xlink="http://www.w3.org/1999/xlink" width="500" zoomAndPan="magnify" viewBox="0 0 375 374.999991" height="500" preserveAspectRatio="xMidYMid meet" version="1.0"><defs><clipPath id="e4a0f3951e"><path d="M 110 219 L 269 219 L 269 351.691406 L 110 351.691406 Z M 110 219 " clip-rule="nonzero"/></clipPath></defs><path fill="#fff" d="M 48.046875 81.527344 L 48.046875 186.707031 C 48.046875 214.550781 70.21875 237.238281 97.800781 238.191406 L 97.800781 219.917969 L 90.007812 219.917969 C 80.65625 219.917969 73.035156 212.296875 73.035156 202.988281 L 73.035156 172.675781 C 73.035156 163.324219 80.65625 155.746094 90.007812 155.746094 L 285.515625 155.746094 C 294.867188 155.746094 302.488281 163.367188 302.488281 172.675781 L 302.488281 202.988281 C 302.488281 212.339844 294.867188 219.917969 285.515625 219.917969 L 281.359375 219.917969 L 281.359375 238.019531 C 307.253906 235.289062 327.476562 213.335938 327.476562 186.707031 L 327.476562 81.527344 C 327.476562 53.078125 304.351562 29.910156 275.859375 29.910156 L 99.621094 29.910156 C 71.171875 29.953125 48.046875 53.078125 48.046875 81.527344 Z M 110.402344 69.878906 C 112.523438 63.816406 118.066406 59.875 124.519531 59.875 L 245.589844 59.875 C 252.042969 59.875 257.585938 63.816406 259.707031 69.878906 C 261.828125 75.941406 259.96875 82.476562 254.945312 86.503906 L 189.125 139.203125 C 187.957031 140.15625 186.484375 140.632812 185.054688 140.632812 C 183.625 140.632812 182.199219 140.15625 180.984375 139.203125 L 115.167969 86.546875 C 110.144531 82.523438 108.28125 75.984375 110.402344 69.878906 Z M 110.402344 69.878906 " fill-opacity="1" fill-rule="nonzero"/><path fill="#fff" d="M 281.316406 187.832031 L 281.316406 206.929688 L 285.472656 206.929688 C 287.636719 206.929688 289.457031 205.152344 289.457031 202.988281 L 289.457031 172.675781 C 289.457031 170.511719 287.679688 168.734375 285.472656 168.734375 L 89.964844 168.734375 C 87.800781 168.734375 85.980469 170.511719 85.980469 172.675781 L 85.980469 202.988281 C 85.980469 205.152344 87.757812 206.929688 89.964844 206.929688 L 97.757812 206.929688 L 97.757812 187.832031 C 97.757812 184.238281 100.660156 181.335938 104.253906 181.335938 L 274.820312 181.335938 C 278.414062 181.335938 281.316406 184.238281 281.316406 187.832031 Z M 281.316406 187.832031 " fill-opacity="1" fill-rule="nonzero"/><path fill="#004aad" d="M 185.054688 125.824219 L 246.804688 76.417969 C 247.714844 75.679688 247.625 74.8125 247.453125 74.207031 C 247.238281 73.601562 246.761719 72.910156 245.589844 72.910156 L 124.519531 72.910156 C 123.351562 72.910156 122.875 73.644531 122.65625 74.207031 C 122.441406 74.8125 122.398438 75.679688 123.308594 76.417969 Z M 185.054688 125.824219 " fill-opacity="1" fill-rule="nonzero"/><path fill="#004aad" d="M 110.75 194.328125 L 268.324219 194.328125 L 268.324219 206.929688 L 110.75 206.929688 Z M 110.75 194.328125 " fill-opacity="1" fill-rule="nonzero"/><g clip-path="url(#e4a0f3951e)"><path fill="#fff" d="M 110.75 361.429688 L 268.324219 361.429688 L 268.324219 219.917969 L 110.75 219.917969 Z M 206.230469 241.050781 C 206.230469 237.457031 209.132812 234.554688 212.726562 234.554688 C 216.320312 234.554688 219.21875 237.457031 219.21875 241.050781 L 219.21875 260.058594 C 219.21875 263.652344 216.320312 266.554688 212.726562 266.554688 C 209.132812 266.554688 206.230469 263.652344 206.230469 260.058594 Z M 206.230469 280.109375 C 206.230469 276.515625 209.132812 273.613281 212.726562 273.613281 C 216.320312 273.613281 219.21875 276.515625 219.21875 280.109375 L 219.21875 299.117188 C 219.21875 302.710938 216.320312 305.613281 212.726562 305.613281 C 209.132812 305.613281 206.230469 302.710938 206.230469 299.117188 Z M 206.230469 317.21875 C 206.230469 313.625 209.132812 310.722656 212.726562 310.722656 C 216.320312 310.722656 219.21875 313.625 219.21875 317.21875 L 219.21875 336.226562 C 219.21875 339.820312 216.320312 342.722656 212.726562 342.722656 C 209.132812 342.722656 206.230469 339.820312 206.230469 336.226562 Z M 169.25 241.484375 C 169.25 237.886719 172.152344 234.988281 175.746094 234.988281 C 179.339844 234.988281 182.242188 237.886719 182.242188 241.484375 L 182.242188 273.871094 C 182.242188 277.464844 179.339844 280.367188 175.746094 280.367188 C 172.152344 280.367188 169.25 277.464844 169.25 273.871094 Z M 169.25 303.402344 C 169.25 299.808594 172.152344 296.910156 175.746094 296.910156 C 179.339844 296.910156 182.242188 299.808594 182.242188 303.402344 L 182.242188 335.792969 C 182.242188 339.386719 179.339844 342.289062 175.746094 342.289062 C 172.152344 342.289062 169.25 339.386719 169.25 335.792969 Z M 138.332031 254.863281 C 138.332031 251.269531 141.234375 248.367188 144.828125 248.367188 C 148.421875 248.367188 151.324219 251.269531 151.324219 254.863281 L 151.324219 319.597656 C 151.324219 323.191406 148.421875 326.09375 144.828125 326.09375 C 141.234375 326.09375 138.332031 323.191406 138.332031 319.597656 Z M 138.332031 254.863281 " fill-opacity="1" fill-rule="nonzero"/></g></svg>